<svg width="16" height="16" viewBox="0 0 16 16" fill="none" xmlns="http://www.w3.org/2000/svg">
<path fill-rule="evenodd" clip-rule="evenodd" d="M7.99989 0.465454C10.046 0.465454 10.3031 0.473749 11.1063 0.511076C11.7315 0.523036 12.35 0.641315 12.9354 0.860846C13.4357 1.05481 13.8901 1.35096 14.2695 1.7304C14.6489 2.10983 14.9451 2.56421 15.1391 3.06453C15.3581 3.64864 15.4764 4.26571 15.4888 4.88942C15.5262 5.69264 15.5345 5.94979 15.5345 7.99587C15.5345 10.042 15.5262 10.2991 15.4888 11.1023C15.4769 11.7274 15.3586 12.3459 15.1391 12.9314C14.9451 13.4317 14.6489 13.8861 14.2695 14.2655C13.8901 14.6449 13.4357 14.9411 12.9354 15.135C12.3515 15.3555 11.7344 15.4752 11.1105 15.489C10.3073 15.5263 10.0501 15.5346 8.00404 15.5346C5.95796 15.5346 5.70082 15.5263 4.89759 15.489C4.27248 15.477 3.65397 15.3587 3.06856 15.1392C2.56824 14.9452 2.11386 14.6491 1.73442 14.2696C1.35499 13.8902 1.05884 13.4358 0.864873 12.9355C0.644388 12.3516 0.524709 11.7346 0.510952 11.1106C0.473625 10.3074 0.465332 10.0502 0.465332 8.00416C0.465332 5.95808 0.473625 5.70094 0.510952 4.89771C0.522912 4.2726 0.641191 3.65409 0.860722 3.06868C1.0542 2.56759 1.35014 2.11241 1.7296 1.73223C2.10906 1.35206 2.56369 1.05527 3.06441 0.860846C3.64851 0.641777 4.26558 0.523505 4.8893 0.511076C5.69667 0.473749 5.95381 0.465454 7.99989 0.465454ZM11.0414 1.8673C10.2478 1.83135 10.0086 1.82306 7.99989 1.82306C5.99114 1.82306 5.7492 1.83135 4.95842 1.8673C4.47987 1.8722 4.00571 1.95917 3.55657 2.12444C3.23107 2.24994 2.93546 2.44222 2.68878 2.6889C2.4421 2.93558 2.24981 3.23119 2.12432 3.5567C1.95889 4.00488 1.87145 4.47808 1.86579 4.95578C1.82985 5.74933 1.82155 5.9885 1.82155 7.99725C1.82155 10.006 1.82985 10.2479 1.86579 11.0387C1.87082 11.5183 1.95827 11.9934 2.12432 12.4433C2.24981 12.7688 2.4421 13.0645 2.68878 13.3111C2.93546 13.5578 3.23107 13.7501 3.55657 13.8756C4.00475 14.041 4.47796 14.1285 4.95566 14.1341C5.7492 14.1701 5.98838 14.1784 7.99713 14.1784C10.0059 14.1784 10.2478 14.1701 11.0386 14.1341C11.5182 14.1291 11.9933 14.0416 12.4432 13.8756C12.7687 13.7501 13.0643 13.5578 13.311 13.3111C13.5577 13.0645 13.75 12.7688 13.8755 12.4433C14.0409 11.9952 14.1283 11.522 14.134 11.0443C14.1699 10.2507 14.1782 10.0115 14.1782 8.00278C14.1782 5.99403 14.1699 5.75209 14.134 4.96131C14.129 4.48175 14.0415 4.00662 13.8755 3.5567C13.75 3.23119 13.5577 2.93558 13.311 2.6889C13.0643 2.44222 12.7687 2.24994 12.4432 2.12444C11.995 1.95948 11.5218 1.87251 11.0441 1.8673H11.0414ZM7.99989 10.512C8.49672 10.512 8.98238 10.3647 9.39547 10.0887C9.80857 9.81263 10.1305 9.42031 10.3207 8.96131C10.5108 8.50231 10.5605 7.99723 10.4636 7.50995C10.3667 7.02268 10.1274 6.57508 9.77614 6.22378C9.42483 5.87247 8.97723 5.63323 8.48996 5.5363C8.00268 5.43938 7.4976 5.48912 7.0386 5.67925C6.57959 5.86937 6.18728 6.19134 5.91126 6.60443C5.63524 7.01753 5.48791 7.50319 5.48791 8.00002C5.48828 8.66612 5.75305 9.30484 6.22406 9.77585C6.69507 10.2469 7.33379 10.5116 7.99989 10.512ZM7.99989 4.13043C8.7655 4.13043 9.51391 4.35746 10.1505 4.78281C10.7871 5.20815 11.2832 5.81272 11.5762 6.52004C11.8692 7.22737 11.9458 8.00569 11.7965 8.75659C11.6471 9.50748 11.2784 10.1972 10.7371 10.7386C10.1957 11.28 9.50598 11.6486 8.75508 11.798C8.00419 11.9473 7.22586 11.8707 6.51854 11.5777C5.81121 11.2847 5.20665 10.7886 4.7813 10.152C4.35595 9.51542 4.12893 8.767 4.12893 8.0014C4.12893 6.97475 4.53676 5.99016 5.26271 5.26421C5.98866 4.53826 6.97325 4.13043 7.99989 4.13043ZM12.9257 3.97836C12.9257 4.15718 12.8727 4.33199 12.7733 4.48067C12.674 4.62936 12.5328 4.74525 12.3676 4.81368C12.2023 4.88211 12.0206 4.90002 11.8452 4.86513C11.6698 4.83024 11.5087 4.74413 11.3822 4.61769C11.2558 4.49124 11.1697 4.33014 11.1348 4.15475C11.0999 3.97936 11.1178 3.79757 11.1862 3.63235C11.2547 3.46714 11.3706 3.32594 11.5192 3.22659C11.6679 3.12724 11.8427 3.07421 12.0216 3.07421C12.2613 3.07421 12.4913 3.16947 12.6609 3.33903C12.8304 3.50859 12.9257 3.73856 12.9257 3.97836Z" fill="white"/>
</svg>
