<svg width="18" height="15" viewBox="0 0 18 15" fill="none" xmlns="http://www.w3.org/2000/svg">
<path fill-rule="evenodd" clip-rule="evenodd" d="M1.88042 6.74183C6.24228 4.84137 9.15066 3.58834 10.6055 2.98276C14.7609 1.25532 15.6288 0.955319 16.1869 0.944157C16.3939 0.940133 16.5969 1.00114 16.7674 1.11858C16.887 1.22172 16.9633 1.36625 16.9809 1.52323C17.0109 1.71845 17.0194 1.91639 17.006 2.11346C16.7814 4.48555 15.806 10.219 15.3107 12.8688C15.1014 13.9851 14.6883 14.366 14.2879 14.4037C13.42 14.4832 12.753 13.8288 11.9158 13.2776C10.5986 12.4139 9.85484 11.8823 8.5767 11.0339C7.09902 10.0572 8.05763 9.52555 8.89902 8.65206C9.11949 8.42323 12.9455 4.94044 13.0209 4.62509C13.0308 4.57852 13.0297 4.53027 13.0176 4.48422C13.0054 4.43818 12.9827 4.39562 12.9511 4.35997C12.9053 4.33135 12.8535 4.31379 12.7997 4.30871C12.7459 4.30362 12.6917 4.31114 12.6414 4.33067C12.5102 4.35951 10.4069 5.74974 6.33159 8.50137C5.73438 8.9116 5.19345 9.1116 4.7088 9.10137C4.17438 9.08881 3.14739 8.79858 2.38274 8.54323C1.44646 8.23904 0.708331 8.07858 0.766935 7.56648C0.801354 7.29858 1.17251 7.02369 1.88042 6.74183Z" fill="white"/>
</svg>
