<svg width="30" height="30" viewBox="0 0 30 30" fill="none" xmlns="http://www.w3.org/2000/svg">
<path d="M15 30C23.2843 30 30 23.2843 30 15C30 6.71573 23.2843 0 15 0C6.71573 0 0 6.71573 0 15C0 23.2843 6.71573 30 15 30Z" fill="#F96B0A"/>
<path fill-rule="evenodd" clip-rule="evenodd" d="M8.55369 10.1861H6.69787C6.16764 10.1861 6.06299 10.4344 6.06299 10.7093C6.06299 11.1991 6.6895 13.6312 8.98485 16.8488C10.5197 19.0451 12.67 20.2354 14.6304 20.2354C15.8067 20.2354 15.9532 19.9716 15.9532 19.5154V17.8605C15.9532 17.3316 16.0649 17.2256 16.4374 17.2256C16.7165 17.2256 17.1825 17.3651 18.2807 18.4214C19.5365 19.6772 19.743 20.2354 20.4476 20.2354H22.2993C22.8281 20.2354 23.0932 19.9716 22.9397 19.4498C22.7862 18.9279 22.1737 18.1744 21.3783 17.28C20.9472 16.7707 20.2997 16.2223 20.1044 15.9475C19.8253 15.5944 19.9076 15.4368 20.1044 15.1242C20.1044 15.1242 22.3593 11.947 22.5951 10.8698C22.7123 10.4763 22.5951 10.1888 22.0369 10.1888H20.1895C20.0167 10.1769 19.8447 10.2215 19.6995 10.3159C19.5542 10.4103 19.4436 10.5493 19.3844 10.7121C19.3844 10.7121 18.4425 13.0061 17.1086 14.4963C16.6774 14.9275 16.4821 15.0656 16.2462 15.0656C16.129 15.0656 15.9588 14.9261 15.9588 14.5354V10.867C15.9588 10.3954 15.8193 10.1861 15.43 10.1861H12.5207C12.4027 10.1792 12.2867 10.2194 12.1983 10.2979C12.1099 10.3763 12.0562 10.4867 12.049 10.6047C12.049 11.0512 12.716 11.153 12.7844 12.4088V15.134C12.7844 15.7312 12.6769 15.84 12.4411 15.84C11.8146 15.84 10.2881 13.5349 9.38252 10.8991C9.2095 10.3926 9.02671 10.1861 8.55369 10.1861Z" fill="white"/>
</svg>
