<svg width="30" height="30" viewBox="0 0 30 30" fill="none" xmlns="http://www.w3.org/2000/svg">
<path d="M15 30C23.2843 30 30 23.2843 30 15C30 6.71573 23.2843 0 15 0C6.71573 0 0 6.71573 0 15C0 23.2843 6.71573 30 15 30Z" fill="#F96B0A"/>
<path d="M7.66211 22.4649L8.7156 18.6193C7.90058 17.2041 7.57519 15.5596 7.78987 13.9406C8.00455 12.3217 8.7473 10.8188 9.903 9.6649C11.0587 8.51102 12.5628 7.77062 14.1821 7.55848C15.8013 7.34635 17.4454 7.67433 18.8593 8.49158C20.2732 9.30882 21.3781 10.5697 22.0025 12.0787C22.627 13.5877 22.7362 15.2606 22.3132 16.838C21.8902 18.4154 20.9587 19.8092 19.663 20.8033C18.3673 21.7974 16.7799 22.3364 15.1468 22.3365C13.908 22.3358 12.689 22.025 11.6012 21.4324L7.66211 22.4649ZM11.7784 20.0928L12.0044 20.2324C12.955 20.7953 14.0393 21.0926 15.144 21.0933C16.512 21.0936 17.8413 20.6392 18.923 19.8016C20.0046 18.964 20.7772 17.7907 21.1193 16.4662C21.4615 15.1416 21.3537 13.7409 20.813 12.4843C20.2723 11.2277 19.3293 10.1864 18.1323 9.52408C16.9353 8.8618 15.5521 8.6161 14.2002 8.82562C12.8483 9.03514 11.6044 9.68799 10.664 10.6815C9.72359 11.6751 9.14003 12.953 9.00506 14.3143C8.8701 15.6757 9.19138 17.0433 9.91839 18.2021L10.0579 18.4351L9.4342 20.711L11.7784 20.0928Z" fill="white"/>
<path fill-rule="evenodd" clip-rule="evenodd" d="M18.8849 16.6799C18.8389 16.6018 18.7147 16.5557 18.5291 16.4637C18.3435 16.3716 17.4324 15.9223 17.2621 15.8595C17.0919 15.7967 16.9691 15.7674 16.8435 15.953C16.7179 16.1385 16.3649 16.5557 16.2575 16.6799C16.15 16.8041 16.0398 16.8195 15.8556 16.726C15.3117 16.5076 14.8099 16.1964 14.3724 15.8064C13.967 15.4314 13.6194 14.9984 13.3412 14.5213C13.2324 14.3357 13.3286 14.2423 13.4221 14.1432C13.5156 14.0441 13.6077 13.9255 13.7012 13.8181C13.7779 13.7245 13.8405 13.6201 13.8868 13.5083C13.9112 13.457 13.9226 13.4005 13.9199 13.3438C13.9172 13.2871 13.9006 13.2319 13.8714 13.1832C13.8254 13.0911 13.4528 12.1785 13.2993 11.8074C13.1458 11.4362 12.9965 11.4948 12.8807 11.4878C12.7649 11.4809 12.6491 11.4878 12.5263 11.4878C12.4309 11.4894 12.337 11.511 12.2504 11.5511C12.1639 11.5912 12.0868 11.6491 12.024 11.7209C11.8159 11.9182 11.6508 12.1564 11.5392 12.4205C11.4275 12.6846 11.3717 12.969 11.3752 13.2557C11.3752 14.1683 12.0393 15.0502 12.1328 15.1744C12.2263 15.2985 13.4403 17.1711 15.3003 17.9734C15.6456 18.1224 15.9987 18.2529 16.3579 18.3641C16.7362 18.479 17.1361 18.5043 17.5258 18.4381C17.8817 18.3851 18.6226 17.9888 18.7817 17.5562C18.9407 17.1237 18.931 16.7567 18.8849 16.6799Z" fill="white"/>
</svg>
