<svg width="22" height="24" viewBox="0 0 22 24" fill="none" xmlns="http://www.w3.org/2000/svg">
<g filter="url(#filter0_d_23_395)">
<ellipse cx="17.2599" cy="6.93884" rx="2.54075" ry="4.17726" transform="rotate(-18.5907 17.2599 6.93884)" fill="#F96B0A"/>
<ellipse cx="10.7771" cy="4.71929" rx="2.54075" ry="4.17726" transform="rotate(-16.1575 10.7771 4.71929)" fill="#F96B0A"/>
<ellipse cx="5.70723" cy="7.63275" rx="2.54075" ry="4.17726" transform="rotate(-41.2598 5.70723 7.63275)" fill="#F96B0A"/>
<ellipse cx="4.66475" cy="14.1487" rx="2.54075" ry="4.17726" transform="rotate(-41.2598 4.66475 14.1487)" fill="#F96B0A"/>
<path d="M10.2947 9.85426C12.5099 8.2904 20.9669 12.3319 20.8506 15.5883C20.7204 19.2373 18.2443 18.3251 15.8986 19.4979C13.3395 20.7775 13.5529 24.4501 9.38245 22.1043C7.85446 21.2448 8.07939 11.4181 10.2947 9.85426Z" fill="#F96B0A"/>
</g>
<defs>
<filter id="filter0_d_23_395" x="1.3125" y="0.644531" width="20.5396" height="23.2256" filterUnits="userSpaceOnUse" color-interpolation-filters="sRGB">
<feFlood flood-opacity="0" result="BackgroundImageFix"/>
<feColorMatrix in="SourceAlpha" type="matrix" values="0 0 0 0 0 0 0 0 0 0 0 0 0 0 0 0 0 0 127 0" result="hardAlpha"/>
<feOffset dx="1" dy="1"/>
<feComposite in2="hardAlpha" operator="out"/>
<feColorMatrix type="matrix" values="0 0 0 0 0 0 0 0 0 0 0 0 0 0 0 0 0 0 0.25 0"/>
<feBlend mode="normal" in2="BackgroundImageFix" result="effect1_dropShadow_23_395"/>
<feBlend mode="normal" in="SourceGraphic" in2="effect1_dropShadow_23_395" result="shape"/>
</filter>
</defs>
</svg>
