<svg width="30" height="30" viewBox="0 0 30 30" fill="none" xmlns="http://www.w3.org/2000/svg">
<path d="M15 30C23.2843 30 30 23.2843 30 15C30 6.71573 23.2843 0 15 0C6.71573 0 0 6.71573 0 15C0 23.2843 6.71573 30 15 30Z" fill="#F96B0A"/>

<path fill-rule="evenodd" clip-rule="evenodd" d="M14.9999 7.46547C17.046 7.46547 17.3031 7.47376 18.1063 7.51109C18.7315 7.52305 19.35 7.64133 19.9354 7.86086C20.4357 8.05483 20.8901 8.35098 21.2695 8.73041C21.6489 9.10985 21.9451 9.56423 22.1391 10.0645C22.3581 10.6487 22.4764 11.2657 22.4888 11.8894C22.5262 12.6927 22.5345 12.9498 22.5345 14.9959C22.5345 17.042 22.5262 17.2991 22.4888 18.1023C22.4769 18.7274 22.3586 19.346 22.1391 19.9314C21.9451 20.4317 21.6489 20.8861 21.2695 21.2655C20.8901 21.6449 20.4357 21.9411 19.9354 22.1351C19.3515 22.3555 18.7344 22.4752 18.1105 22.489C17.3073 22.5263 17.0501 22.5346 15.004 22.5346C12.958 22.5346 12.7008 22.5263 11.8976 22.489C11.2725 22.477 10.654 22.3587 10.0686 22.1392C9.56824 21.9452 9.11386 21.6491 8.73442 21.2696C8.35499 20.8902 8.05884 20.4358 7.86487 19.9355C7.64439 19.3517 7.52471 18.7346 7.51095 18.1106C7.47363 17.3074 7.46533 17.0503 7.46533 15.0042C7.46533 12.9581 7.47363 12.701 7.51095 11.8977C7.52291 11.2726 7.64119 10.6541 7.86072 10.0687C8.0542 9.56761 8.35014 9.11242 8.7296 8.73225C9.10906 8.35207 9.56369 8.05528 10.0644 7.86086C10.6485 7.64179 11.2656 7.52352 11.8893 7.51109C12.6967 7.47376 12.9538 7.46547 14.9999 7.46547ZM18.0414 8.86731C17.2478 8.83137 17.0086 8.82307 14.9999 8.82307C12.9911 8.82307 12.7492 8.83137 11.9584 8.86731C11.4799 8.87221 11.0057 8.95919 10.5566 9.12446C10.2311 9.24995 9.93546 9.44223 9.68878 9.68891C9.4421 9.93559 9.24981 10.2312 9.12432 10.5567C8.95889 11.0049 8.87145 11.4781 8.86579 11.9558C8.82985 12.7493 8.82155 12.9885 8.82155 14.9973C8.82155 17.006 8.82985 17.248 8.86579 18.0387C8.87082 18.5183 8.95827 18.9934 9.12432 19.4433C9.24981 19.7689 9.4421 20.0645 9.68878 20.3112C9.93546 20.5578 10.2311 20.7501 10.5566 20.8756C11.0048 21.041 11.478 21.1285 11.9557 21.1341C12.7492 21.1701 12.9884 21.1784 14.9971 21.1784C17.0059 21.1784 17.2478 21.1701 18.0386 21.1341C18.5182 21.1291 18.9933 21.0417 19.4432 20.8756C19.7687 20.7501 20.0643 20.5578 20.311 20.3112C20.5577 20.0645 20.75 19.7689 20.8755 19.4433C21.0409 18.9952 21.1283 18.522 21.134 18.0443C21.1699 17.2507 21.1782 17.0116 21.1782 15.0028C21.1782 12.994 21.1699 12.7521 21.134 11.9613C21.129 11.4818 21.0415 11.0066 20.8755 10.5567C20.75 10.2312 20.5577 9.93559 20.311 9.68891C20.0643 9.44223 19.7687 9.24995 19.4432 9.12446C18.995 8.9595 18.5218 8.87253 18.0441 8.86731H18.0414ZM14.9999 17.512C15.4967 17.512 15.9824 17.3647 16.3955 17.0887C16.8086 16.8126 17.1305 16.4203 17.3207 15.9613C17.5108 15.5023 17.5605 14.9972 17.4636 14.51C17.3667 14.0227 17.1274 13.5751 16.7761 13.2238C16.4248 12.8725 15.9772 12.6332 15.49 12.5363C15.0027 12.4394 14.4976 12.4891 14.0386 12.6793C13.5796 12.8694 13.1873 13.1914 12.9113 13.6044C12.6352 14.0175 12.4879 14.5032 12.4879 15C12.4883 15.6661 12.753 16.3049 13.2241 16.7759C13.6951 17.2469 14.3338 17.5116 14.9999 17.512ZM14.9999 11.1304C15.7655 11.1304 16.5139 11.3575 17.1505 11.7828C17.7871 12.2082 18.2832 12.8127 18.5762 13.5201C18.8692 14.2274 18.9458 15.0057 18.7965 15.7566C18.6471 16.5075 18.2784 17.1972 17.7371 17.7386C17.1957 18.28 16.506 18.6486 15.7551 18.798C15.0042 18.9474 14.2259 18.8707 13.5185 18.5777C12.8112 18.2847 12.2066 17.7886 11.7813 17.152C11.356 16.5154 11.1289 15.767 11.1289 15.0014C11.1289 13.9748 11.5368 12.9902 12.2627 12.2642C12.9887 11.5383 13.9732 11.1304 14.9999 11.1304ZM19.9257 10.9784C19.9257 11.1572 19.8727 11.332 19.7733 11.4807C19.674 11.6294 19.5328 11.7453 19.3676 11.8137C19.2023 11.8821 19.0206 11.9 18.8452 11.8651C18.6698 11.8303 18.5087 11.7441 18.3822 11.6177C18.2558 11.4913 18.1697 11.3302 18.1348 11.1548C18.0999 10.9794 18.1178 10.7976 18.1862 10.6324C18.2547 10.4672 18.3706 10.326 18.5192 10.2266C18.6679 10.1273 18.8427 10.0742 19.0216 10.0742C19.2613 10.0742 19.4913 10.1695 19.6609 10.339C19.8304 10.5086 19.9257 10.7386 19.9257 10.9784Z" fill="white"/>
</svg>
