<svg width="316" height="178" viewBox="0 0 316 178" fill="none" xmlns="http://www.w3.org/2000/svg">
<path d="M170.883 86.725H170.998C175.446 86.725 177.03 81.5826 177.03 76.7713C177.03 72.2308 175.421 66.9295 170.883 66.9295C166.637 66.9295 164.735 71.9012 164.735 76.8273C164.705 80.5547 165.618 83.5368 167.305 85.2402C168.28 86.2254 169.484 86.725 170.883 86.725Z" fill="#F96B09"/>
<path d="M202.138 53.8466C202.198 54.0092 202.258 54.1726 202.316 54.3359C202.621 55.1762 202.906 56.0238 203.177 56.8773C203.233 57.0554 203.293 57.2312 203.348 57.4107C203.645 58.3768 203.923 59.3488 204.177 60.3281C204.189 60.373 204.202 60.4171 204.214 60.462C204.479 61.4987 204.72 62.5428 204.936 63.5928C204.981 63.8047 205.015 64.0195 205.057 64.2322C205.214 65.0356 205.361 65.8413 205.49 66.6521C205.546 67.0061 205.595 67.3622 205.646 67.7183C205.743 68.4084 205.832 69.1016 205.909 69.7969C205.952 70.178 205.992 70.5606 206.029 70.9439C206.096 71.6621 206.149 72.3831 206.193 73.1057C206.214 73.4471 206.241 73.7863 206.257 74.1284C206.305 75.1894 206.338 76.2533 206.338 77.321C206.338 114.607 176.059 144.942 138.844 144.942C137.662 144.942 136.476 144.9 135.288 144.836C135.067 144.824 134.846 144.816 134.625 144.803C133.587 144.735 132.548 144.64 131.509 144.524C131.117 144.481 130.726 144.434 130.335 144.384C130.208 144.37 130.083 144.358 129.957 144.341C141.577 154.626 156.294 160.225 172.005 160.225C182.357 160.225 192.651 157.669 201.77 152.83C202.325 152.532 202.992 152.536 203.546 152.835C217.117 160.117 233.057 159.118 242.112 157.66C236.149 155.181 227.814 149.901 221.31 138.755C220.912 138.074 220.978 137.218 221.474 136.604C230.661 125.278 235.719 110.996 235.719 96.3894C235.719 68.4754 218.07 44.369 192.109 35.809C195.745 40.4804 198.715 45.5742 200.993 50.9543C201.021 51.0212 201.048 51.0889 201.077 51.1573C201.449 52.0462 201.804 52.9423 202.138 53.8466Z" fill="#F96B09"/>
<path d="M131.51 73.0998C131.498 73.0556 131.487 73.01 131.475 72.9644C131.462 73.0152 131.449 73.0645 131.436 73.1115L130.341 77.6962H132.684L131.51 73.0998Z" fill="#F96B09"/>
<path d="M124.384 98.1045H113.65C113.055 98.1045 112.495 97.825 112.138 97.3482C111.781 96.8721 111.668 96.2541 111.834 95.6824L123.085 56.9163C123.32 56.1069 124.06 55.5514 124.9 55.5514H138.679C139.514 55.5514 140.251 56.101 140.49 56.903L152.029 95.6706C152.2 96.243 152.089 96.864 151.733 97.343C151.376 97.822 150.815 98.1045 150.217 98.1045H139.023C138.173 98.1045 137.428 97.5343 137.201 96.7139L135.116 89.1317H128.05L126.22 96.6595C126.013 97.5078 125.255 98.1045 124.384 98.1045ZM100.958 83.3808V96.2114C100.958 97.2562 100.111 98.1045 99.0672 98.1045H88.6771C87.6338 98.1045 86.7874 97.2562 86.7874 96.2114V57.4446C86.7874 56.3998 87.6338 55.5514 88.6771 55.5514H113.535C114.579 55.5514 115.425 56.3998 115.425 57.4446V65.9576C115.425 67.0024 114.579 67.8507 113.535 67.8507H100.958V71.1963H112.673C113.717 71.1963 114.564 72.0447 114.564 73.0895V81.4862C114.564 82.5325 113.717 83.3808 112.673 83.3808H100.958ZM171.226 54.9172C185.344 54.9172 191.775 66.037 191.775 76.3681C191.775 82.9607 189.443 88.8918 185.621 92.5053C186.772 92.7797 187.971 93.035 189.202 93.2984L190.396 93.5537C190.933 93.6693 191.391 94.0121 191.656 94.4926C191.919 94.9753 191.962 95.5462 191.772 96.0605L188.844 103.999C188.564 104.761 187.844 105.236 187.072 105.236C186.889 105.236 186.702 105.211 186.518 105.154C180.567 103.329 176.097 101.527 170.814 99.2112C170.208 98.9448 169.477 98.7851 168.643 98.7329C159.347 98.0472 149.989 91.1146 149.989 77.1745C149.989 64.0695 158.722 54.9172 171.226 54.9172ZM128.853 140.333C129.761 140.48 130.67 140.617 131.58 140.724C132.051 140.778 132.525 140.811 132.997 140.855C133.723 140.923 134.45 140.999 135.176 141.042C136.397 141.113 137.619 141.155 138.843 141.155C173.975 141.155 202.556 112.52 202.556 77.321C202.556 76.2592 202.528 75.2048 202.477 74.1564C202.459 73.7899 202.424 73.4265 202.4 73.0615C202.354 72.3809 202.311 71.6989 202.244 71.0234C202.203 70.5989 202.144 70.1773 202.094 69.7542C202.021 69.1405 201.95 68.5269 201.861 67.9184C201.797 67.4902 201.719 67.0642 201.647 66.6374C201.546 66.0356 201.444 65.4337 201.326 64.837C201.245 64.4308 201.152 64.0269 201.064 63.6222C200.929 63.0056 200.791 62.3898 200.639 61.7813C200.546 61.4112 200.445 61.0448 200.346 60.6776C200.172 60.0323 199.992 59.3893 199.8 58.7513C199.702 58.432 199.599 58.1127 199.496 57.7948C199.277 57.1113 199.049 56.4314 198.808 55.7582C198.712 55.4918 198.614 55.2277 198.514 54.9628C198.243 54.2395 197.961 53.5214 197.666 52.8106C197.579 52.6009 197.489 52.3912 197.399 52.1815C197.073 51.4207 196.733 50.6673 196.379 49.922C196.304 49.7652 196.229 49.6085 196.152 49.4511C195.768 48.6616 195.369 47.8816 194.955 47.1105C194.893 46.998 194.833 46.8832 194.771 46.7706C194.332 45.9679 193.877 45.1769 193.407 44.3955C193.355 44.3109 193.304 44.2255 193.253 44.1409C192.767 43.3433 192.263 42.5583 191.744 41.7842C191.696 41.7136 191.65 41.643 191.603 41.5731C191.077 40.7968 190.534 40.0338 189.976 39.2826C189.925 39.2134 189.875 39.1435 189.822 39.0744C189.265 38.3319 188.692 37.6035 188.106 36.8869C188.043 36.8104 187.982 36.7331 187.919 36.6573C187.335 35.9502 186.734 35.2579 186.12 34.5773C186.049 34.4985 185.979 34.4183 185.908 34.3403C174.247 21.5341 157.467 13.4861 138.843 13.4861C103.712 13.4861 75.1291 42.1227 75.1291 77.321C75.1291 91.9277 80.1879 106.209 89.3729 117.536C89.8696 118.149 89.9357 119.005 89.5382 119.686C83.0343 130.831 74.7008 136.111 68.7354 138.591C77.7926 140.047 93.73 141.048 107.301 133.765C107.579 133.616 107.886 133.54 108.193 133.54C108.497 133.54 108.801 133.614 109.078 133.76C114.152 136.453 119.594 138.409 125.204 139.642C126.135 139.846 127.068 140.04 128.004 140.202C128.286 140.252 128.57 140.288 128.853 140.333Z" fill="#F96B09"/>
</svg>
