<svg width="48" height="48" viewBox="0 0 48 48" fill="none" xmlns="http://www.w3.org/2000/svg">
<circle cx="24" cy="24" r="24" fill="white"/>
<ellipse rx="3.62964" ry="5.96751" transform="matrix(-0.94782 -0.318805 -0.318805 0.94782 15.3428 17.9126)" fill="#F96B0A"/>
<ellipse rx="3.62964" ry="5.96751" transform="matrix(-0.960501 -0.278278 -0.278278 0.960501 24.6031 14.7418)" fill="#F96B0A"/>
<ellipse rx="3.62964" ry="5.96751" transform="matrix(-0.751727 -0.659474 -0.659474 0.751727 31.8459 18.9039)" fill="#F96B0A"/>
<ellipse rx="3.62964" ry="5.96751" transform="matrix(-0.751727 -0.659474 -0.659474 0.751727 33.3361 28.2125)" fill="#F96B0A"/>
<path d="M25.2928 22.0775C22.1281 19.8434 10.0468 25.6169 10.2128 30.269C10.3989 35.4819 13.9361 34.1787 17.2872 35.8542C20.943 37.6821 20.6382 42.9287 26.5959 39.5775C28.7788 38.3497 28.4575 24.3116 25.2928 22.0775Z" fill="#F96B0A"/>
</svg>
