<svg width="159" height="153" viewBox="0 0 159 153" fill="none" xmlns="http://www.w3.org/2000/svg">
<ellipse cx="34.8084" cy="15.1993" rx="5.56544" ry="9.15018" transform="rotate(-18.5907 34.8084 15.1993)" fill="white"/>
<ellipse cx="20.6067" cy="10.3375" rx="5.56544" ry="9.15018" transform="rotate(-16.1575 20.6067 10.3375)" fill="white"/>
<ellipse cx="9.50218" cy="16.7193" rx="5.56544" ry="9.15018" transform="rotate(-41.2598 9.50218 16.7193)" fill="white"/>
<ellipse cx="7.218" cy="30.9925" rx="5.56544" ry="9.15018" transform="rotate(-41.2598 7.218 30.9925)" fill="white"/>
<path d="M19.5503 21.5855C24.4028 18.1599 42.9275 27.0126 42.6729 34.1458C42.3876 42.1388 36.9639 40.1406 31.8256 42.7097C26.22 45.5125 26.6874 53.5573 17.5522 48.4188C14.2051 46.5361 14.6979 25.0111 19.5503 21.5855Z" fill="white"/>
<ellipse cx="101.698" cy="21.2699" rx="4.9605" ry="8.15558" transform="rotate(-18.5907 101.698 21.2699)" fill="white"/>
<ellipse cx="89.0409" cy="16.9365" rx="4.9605" ry="8.15558" transform="rotate(-16.1575 89.0409 16.9365)" fill="white"/>
<ellipse cx="79.1425" cy="22.6246" rx="4.9605" ry="8.15558" transform="rotate(-41.2598 79.1425 22.6246)" fill="white"/>
<ellipse cx="77.1073" cy="35.3463" rx="4.9605" ry="8.15558" transform="rotate(-41.2598 77.1073 35.3463)" fill="white"/>
<path d="M88.0998 26.9619C92.4248 23.9086 108.936 31.7991 108.709 38.157C108.455 45.2812 103.621 43.5001 99.0408 45.79C94.0445 48.2881 94.4611 55.4585 86.3188 50.8785C83.3356 49.2005 83.7748 30.0151 88.0998 26.9619Z" fill="white"/>
<ellipse cx="91.8355" cy="87.1165" rx="3.50864" ry="5.76858" transform="rotate(-18.5907 91.8355 87.1165)" fill="white"/>
<ellipse cx="82.8826" cy="84.0514" rx="3.50864" ry="5.76858" transform="rotate(-16.1575 82.8826 84.0514)" fill="white"/>
<ellipse cx="75.8812" cy="88.0747" rx="3.50864" ry="5.76858" transform="rotate(-41.2598 75.8812 88.0747)" fill="white"/>
<ellipse cx="74.4418" cy="97.073" rx="3.50864" ry="5.76858" transform="rotate(-41.2598 74.4418 97.073)" fill="white"/>
<path d="M82.2167 91.1425C85.2759 88.9829 96.9545 94.564 96.794 99.061C96.6141 104.1 93.1948 102.84 89.9554 104.46C86.4215 106.227 86.7162 111.299 80.957 108.059C78.8469 106.872 79.1575 93.3022 82.2167 91.1425Z" fill="white"/>
<ellipse cx="144.37" cy="85.2245" rx="3.14569" ry="5.17185" transform="rotate(-18.5907 144.37 85.2245)" fill="white"/>
<ellipse cx="136.343" cy="82.4765" rx="3.14569" ry="5.17185" transform="rotate(-16.1575 136.343 82.4765)" fill="white"/>
<ellipse cx="130.066" cy="86.0836" rx="3.14569" ry="5.17185" transform="rotate(-41.2598 130.066 86.0836)" fill="white"/>
<ellipse cx="128.775" cy="94.151" rx="3.14569" ry="5.17185" transform="rotate(-41.2598 128.775 94.151)" fill="white"/>
<path d="M135.746 88.834C138.489 86.8978 148.959 91.9016 148.815 95.9334C148.654 100.451 145.589 99.3217 142.684 100.774C139.516 102.358 139.78 106.905 134.617 104.001C132.725 102.937 133.003 90.7703 135.746 88.834Z" fill="white"/>
<ellipse cx="155.26" cy="136.661" rx="2.54075" ry="4.17726" transform="rotate(-18.5907 155.26 136.661)" fill="white"/>
<ellipse cx="148.777" cy="134.442" rx="2.54075" ry="4.17726" transform="rotate(-16.1575 148.777 134.442)" fill="white"/>
<ellipse cx="143.708" cy="137.355" rx="2.54075" ry="4.17726" transform="rotate(-41.2598 143.708 137.355)" fill="white"/>
<ellipse cx="142.665" cy="143.871" rx="2.54075" ry="4.17726" transform="rotate(-41.2598 142.665 143.871)" fill="white"/>
<path d="M148.295 139.577C150.51 138.013 158.967 142.055 158.851 145.311C158.72 148.96 156.244 148.048 153.899 149.221C151.34 150.5 151.553 154.173 147.382 151.827C145.854 150.967 146.079 141.141 148.295 139.577Z" fill="white"/>
</svg>
