<svg width="25" height="34" viewBox="0 0 25 34" fill="none" xmlns="http://www.w3.org/2000/svg">
<path d="M11.35 12.8125H5C2.79086 12.8125 1 14.6034 1 16.8125V28.8125C1 31.0216 2.79086 32.8125 5 32.8125H20C22.2091 32.8125 24 31.0216 24 28.8125V16.8125C24 14.6034 22.2091 12.8125 20 12.8125H14.225" stroke="#F96B0A" stroke-width="2"/>
<path d="M13.6446 0.292892C13.2541 -0.0976315 12.6209 -0.0976315 12.2304 0.292892L5.86643 6.65685C5.47591 7.04738 5.47591 7.68054 5.86643 8.07107C6.25696 8.46159 6.89012 8.46159 7.28065 8.07107L12.9375 2.41421L18.5944 8.07107C18.9849 8.46159 19.618 8.46159 20.0086 8.07107C20.3991 7.68054 20.3991 7.04738 20.0086 6.65685L13.6446 0.292892ZM13.9375 22.4375L13.9375 1H11.9375L11.9375 22.4375H13.9375Z" fill="#F96B0A"/>
</svg>
