<svg width="175" height="70" viewBox="0 0 175 70" fill="none" xmlns="http://www.w3.org/2000/svg">
<path d="M54.3494 44.0605C55.0911 44.0584 55.6932 44.6647 55.6932 45.4105C55.6932 46.1563 55.0911 46.7647 54.3494 46.7647C53.6078 46.7626 53.0057 46.1563 53.0057 45.4105C53.0057 44.6647 53.6078 44.0605 54.3494 44.0605ZM51.7557 39.1542C50.2244 39.0834 48.7536 39.473 47.5474 40.1751C44.9869 41.6605 44.0578 43.2438 43.3703 45.6251C42.8328 47.4855 43.5661 49.3876 44.9224 50.5167C45.6599 51.1105 46.8557 51.3938 47.7682 51.2105C48.2224 51.1209 48.5994 50.9292 48.8557 50.6438C49.114 50.3626 49.2807 49.9792 49.2807 49.3855V43.3959C49.2807 42.4584 50.0869 42.5438 50.1224 43.1605L50.4661 49.3855C50.4661 50.2251 50.1932 50.9417 49.7328 51.4501C49.2724 51.9584 48.6515 52.2501 48.0015 52.3834C46.6994 52.6417 45.2369 52.2959 44.1828 51.4522C43.3099 50.7522 42.5744 49.7376 42.2369 48.5417L39.9369 50.0542C39.0724 50.523 38.9911 50.998 39.1974 51.8876C40.1828 56.1313 45.6515 61.3938 51.5453 61.3938C52.7786 61.3938 53.1578 60.9709 53.1578 60.1167V57.8605C53.1578 56.4272 54.0349 55.748 55.9265 55.4667L60.5703 54.5709C63.5828 54.1251 64.2369 52.4709 64.7682 50.998C65.3869 49.2792 64.7619 48.1542 63.4849 47.8105C59.9724 46.8647 60.0182 46.2147 58.9953 44.1126C57.3078 40.6397 54.3078 39.2772 51.7557 39.1542Z" fill="black"/>
<path d="M55.7294 69.057L61.3606 68.4861L63.7648 67.7278L69.3939 65.1966L73.8231 60.9591L74.646 59.8195L77.1127 55.4549L77.5564 54.2528L77.746 52.9861L78.1252 51.9736L78.3794 50.582L78.696 46.1528L78.3794 41.7882L77.8731 39.4466L77.3669 38.1195L77.0502 36.6632L75.9106 34.5757L75.4689 33.4361L74.646 32.3611L73.8877 31.6028L73.0648 30.4632L70.3439 27.9966L67.1169 25.9716L58.8294 23.3778L55.8564 23.3132L51.4273 23.5674L50.1606 23.8195L48.896 24.1986L47.7564 24.7049L45.3523 25.3382L42.1273 27.3632L41.2398 28.1216L39.2169 29.5132L37.5085 31.4111L35.3564 34.5757L34.7877 35.6507L33.5856 39.1299L33.0794 41.8507L32.8252 49.1903L33.521 53.1757L34.471 55.3278L34.8502 56.657L35.4835 57.7945L38.4564 61.8445L40.2294 63.5528L41.0502 64.5007L45.3523 66.7799L46.5544 67.2841L51.9335 68.8674L55.7294 69.057ZM53.9585 57.9216L52.6919 57.4778L51.5523 57.3528L49.4023 56.2132L47.4419 54.5049L46.8085 53.6195L45.9856 52.7341L44.7835 49.1903L44.4669 46.0278L44.5314 44.1299L44.9731 41.7882L45.3523 40.6486L46.1127 39.7632L46.6814 38.6882L47.5044 37.6757L48.4523 36.8528L50.2877 35.5882L51.4273 35.0174L52.7544 34.7028L55.6648 34.4486L58.7023 34.6382L62.0564 36.0945L64.0169 37.5486L65.4731 39.7007L65.9794 40.8382L66.3585 42.1049L66.8002 43.2424L67.0544 45.9632L66.6752 49.1278L66.1044 51.7216L65.4085 52.6695L64.8398 53.6195L64.0794 54.757L62.1189 56.2757L60.9794 56.782L59.9689 57.3528L58.8294 57.4778L57.6273 57.7945L53.9585 57.9216Z" fill="white"/>
<path d="M106.816 23.7771C107.412 23.7771 107.893 24.2604 107.893 24.8542C107.893 25.45 107.412 25.9313 106.816 25.9313C106.221 25.9313 105.739 25.45 105.739 24.8542C105.739 24.2604 106.221 23.7771 106.816 23.7771ZM101.506 14.4604C100.91 14.4188 100.296 14.8042 100.012 15.7042L98.8935 19.2709C93.1456 24.4917 96.8956 28.4146 93.6768 29.6L92.0247 30.2063C91.1372 30.5334 91.0872 31.1188 91.3143 31.9646C92.6102 36.8125 97.0602 39.2 102.737 39.2C103.923 39.2 104.289 38.7959 104.289 37.9792V35.9896C104.289 34.6146 104.556 33.5875 106.368 33.2521L110.683 32.5646C112.164 32.2354 113.102 30.6084 113.583 28.7292C114.066 26.8479 113.525 26.2146 112.237 25.5709C111.329 25.1167 110.371 24.05 109.864 23.4417C109.743 23.2084 109.627 22.9625 109.518 22.6896C108.825 20.9604 108.004 20.1292 106.779 19.6854C106.779 19.6854 106.581 17.9125 106.481 17.0271C106.296 15.3667 104.579 15.1729 103.906 16.8542L103.437 18.0313L102.885 15.8084C102.677 14.9813 102.102 14.5063 101.506 14.4604Z" fill="black"/>
<path d="M1.11927 54.6075L1.56302 56.2512L2.7651 56.8845L4.02969 57.0116L6.68594 56.822L9.15469 56.947L11.5589 56.822L12.7609 57.0116L14.1526 56.8845L26.6797 56.947L27.8818 56.3158L28.5776 54.3533L28.5151 49.2283L27.9443 47.3304L26.8068 46.572L25.4776 46.6991L24.2755 46.9512L22.9464 46.7616L20.3526 46.8241L19.088 46.572L17.9484 46.7616L15.4818 46.6345L14.1526 46.7616L12.888 46.2554L12.3818 44.9908L12.4443 23.5429L12.3172 22.0241L12.4443 19.4929L12.2547 15.8866L12.3172 14.6845L11.6859 13.2929L10.4193 12.5345H7.9526L6.68594 12.7866L4.15677 12.5345L2.95469 12.7241L1.62552 13.2304L1.05677 14.622V23.4783L0.929688 24.6804L1.05677 25.947L0.867188 28.2866L0.929688 29.6783L1.05677 30.8804L1.11927 54.6075Z" fill="white"/>
<path d="M106.473 46.3968L112.105 45.826L114.509 45.0676L120.138 42.5364L124.567 38.2989L125.39 37.1593L127.857 32.7947L128.301 31.5927L128.49 30.326L128.869 29.3135L129.123 27.9218L129.44 23.4927L129.123 19.1281L128.617 16.7864L128.111 15.4593L127.794 14.0031L126.655 11.9156L126.213 10.776L125.39 9.70099L124.632 8.94266L123.809 7.80307L121.088 5.33641L117.861 3.31141L109.573 0.717659L106.601 0.653076L102.171 0.907243L100.905 1.15933L99.6402 1.53849L98.5006 2.04474L96.0964 2.67808L92.8714 4.70307L91.9839 5.46141L89.961 6.85307L88.2527 8.75099L86.1006 11.9156L85.5318 12.9906L84.3298 16.4697L83.8235 19.1906L83.5693 26.5302L84.2652 30.5156L85.2152 32.6677L85.5943 33.9968L86.2277 35.1343L89.2006 39.1843L90.9735 40.8926L91.7943 41.8406L96.0964 44.1197L97.2985 44.6239L102.678 46.2072L106.473 46.3968ZM104.703 35.2614L103.436 34.8176L102.296 34.6926L100.146 33.5531L98.186 31.8447L97.5527 30.9593L96.7298 30.0739L95.5277 26.5302L95.211 23.3677L95.2756 21.4697L95.7173 19.1281L96.0964 17.9885L96.8568 17.1031L97.4256 16.0281L98.2485 15.0156L99.1964 14.1927L101.032 12.9281L102.171 12.3572L103.498 12.0427L106.409 11.7885L109.446 11.9781L112.801 13.4343L114.761 14.8885L116.217 17.0406L116.723 18.1781L117.103 19.4447L117.544 20.5822L117.798 23.3031L117.419 26.4677L116.848 29.0614L116.153 30.0093L115.584 30.9593L114.823 32.0968L112.863 33.6156L111.723 34.1218L110.713 34.6926L109.573 34.8176L108.371 35.1343L104.703 35.2614Z" fill="white"/>
<path d="M138.42 57.0669L142.343 56.8774L144.116 57.0044L146.139 56.8149L147.406 56.3086L148.102 54.9169L147.975 49.8544L148.164 48.5253L147.975 41.8836L148.67 40.8065L150.252 40.1107L151.96 40.2378L153.416 41.3128L154.047 42.3253L154.491 43.6544L157.085 47.894L157.529 48.969L158.097 49.8544L159.3 52.1961L160.058 53.144L160.691 54.3461L161.325 55.169L162.527 56.3711L163.981 57.0044L170.372 56.9399L171.51 56.8149L172.777 56.8774L174.104 56.5607L174.42 55.169L170.497 48.019L169.675 47.0065L167.714 43.7815L167.018 42.8961L166.322 41.694L165.816 40.6169L163.729 37.2649L163.475 35.8086L164.297 34.4815L166.26 32.8357L168.283 30.2419L169.233 28.5961L169.675 27.4586L170.752 23.7878L171.193 19.7399L171.068 18.4732L171.258 14.5503L170.687 13.2857L169.295 12.7169L167.397 12.5274L165.31 12.7794L163.412 12.5274L161.514 12.5899L160.185 13.3482L159.679 14.5503V15.9419L159.489 17.144L159.552 18.4107L159.047 22.5232L158.666 23.4711L158.287 24.8003L156.833 26.8253L154.618 28.4065L153.479 28.9128L152.087 29.1024L150.822 29.4815H149.429L148.354 28.7232L148.037 27.394L148.102 26.1919L148.037 21.6378L147.912 20.4982L148.037 18.9794L147.975 17.019L148.102 14.4253L147.279 13.4128L145.443 12.8419L142.281 12.5274L141.079 12.5899L139.812 12.4628L138.42 12.5274L137.156 13.3482L136.587 14.5503L136.46 15.6274L136.587 23.3461L136.397 24.6107L136.587 25.8753L136.46 33.6586L136.65 34.7336L136.397 37.3274L136.587 38.719L136.522 41.1878L136.65 42.3253L136.46 44.919L136.587 47.5128L136.522 48.5253L136.65 49.8544L136.522 51.119L136.65 54.3461L137.283 56.3086L138.42 57.0669Z" fill="white"/>
<path d="M36.2357 26.0317L36.569 26.1651L36.9586 26.0547L37.8815 25.3338L38.4753 24.7401L38.6461 24.3984L38.4732 23.8859L38.0878 23.5109L37.9065 23.2463L36.7461 21.9088L36.644 21.5567L36.8003 21.2255L37.0586 20.9609L37.369 20.7838L37.5815 20.5172L37.8586 20.3255L38.1149 20.0838L38.3899 19.8922L38.892 19.4234L39.0503 19.0672L38.842 18.5651L37.8649 17.4422L37.519 17.2963L37.1649 17.4213L36.519 17.9276L35.8878 18.5526L35.3378 18.913L35.069 19.163L34.7274 19.2776L34.3586 19.1297L34.0545 18.7734L33.8753 18.5109L33.3607 17.9588L33.2732 17.5963L33.3732 17.2234L33.7815 16.8776L34.1711 16.588L34.3899 16.3797L34.6565 16.1755L34.9024 15.9234L35.892 15.1255L36.0378 14.7797L35.9482 14.4172L35.369 13.7901L34.9836 13.2838L34.5045 13.0317L34.169 13.0755L33.417 13.7401L33.1024 13.9401L32.6274 14.388L32.3774 14.5567L32.017 14.9088L31.7524 15.113L31.3774 15.4734L30.8815 15.8963L30.6315 16.0672L29.9815 16.6192L29.7357 16.8713L29.369 17.163L29.2065 17.5422L29.3253 17.8359L29.7315 18.3901L30.0961 18.7401L31.2586 20.2088L31.469 20.4047L31.7086 20.6609L31.8795 20.913L32.1524 21.1838L32.3232 21.4338L32.517 21.688L32.7482 21.9067L32.9711 22.2213L36.2357 26.0317Z" fill="white"/>
<path d="M46.9542 20.012L48.3146 19.389L48.8501 18.9932L50.0417 17.8786L50.7876 16.4411L50.8959 16.0849L51.1417 14.7828L51.148 14.4432L51.0876 14.1099L51.0959 13.8245L51.0417 13.4557L50.7417 12.3203L50.2896 11.2557L49.9626 10.714L49.723 10.4245L49.5188 10.087L49.0563 9.66196L48.848 9.41613L48.5501 9.21613L48.2959 9.09113L47.9917 8.87655L47.1001 8.49321L46.1209 8.26196L43.8251 8.3203L43.0771 8.55988L41.9896 9.00155L41.6959 9.17238L41.4126 9.37446L41.1709 9.59946L40.623 9.96405L39.9876 10.7453L39.8313 11.0099L39.4438 11.5328L39.1792 12.1536L38.9126 13.1286L38.8605 13.4453L38.8584 14.4182L38.9626 15.1432L39.5271 16.9995L40.0417 17.937L40.4626 18.3953L40.6709 18.6953L40.9271 18.9245L42.0167 19.6849L42.6063 19.9599L42.8938 20.1265L44.1646 20.3286L44.5084 20.3536L45.9876 20.289L46.9542 20.012ZM45.5584 17.3786L45.2042 17.3765L44.9084 17.4411L44.273 17.3411L43.6376 17.0807L43.4042 16.912L43.123 16.762L42.5188 15.9786L42.1688 15.214L42.023 14.7328L41.9334 14.1099L41.9313 13.7932L42.0459 13.5057L42.0959 13.189L42.2146 12.8661L42.3813 12.5786L42.7334 12.1057L42.9688 11.8661L43.2751 11.6724L43.9813 11.3599L44.7563 11.1495L45.7188 11.2265L46.3355 11.4224L46.8834 11.837L47.1063 12.0786L47.3105 12.362L47.5167 12.6099L47.8126 13.2682L47.9896 14.0911L48.0688 14.789L47.9751 15.087L47.9146 15.3724L47.8209 15.7224L47.4605 16.2703L47.2188 16.4932L47.0146 16.7224L46.7396 16.8515L46.4667 17.0328L45.5584 17.3786Z" fill="white"/>
<path d="M56.6915 18.826L57.1956 18.8198L57.5102 18.8635L58.8394 18.6448L59.4665 18.3802L60.0477 18.0615L60.5561 17.6365L60.9894 17.0865L61.1186 16.7615L61.3102 16.4927L61.5206 15.8073L61.6748 15.0135L62.0686 10.5156L62.0623 10.1969L62.129 9.8323L62.1186 9.56355L62.2394 8.18022L62.3186 7.85105L62.1331 7.4823L61.7769 7.33438L60.7227 7.27605L60.029 7.16355L59.6644 7.30105L59.4477 7.65105L58.9081 14.2177L58.6998 15.2406L58.579 15.4823L58.3665 15.799L58.0665 15.974L57.4644 16.1406L56.4644 16.0531L56.0873 15.9365L55.8186 15.7448L55.5706 15.5219L55.3936 15.2365L55.3206 14.9115L55.3061 13.9365L55.8248 8.57605L55.8144 8.32397L55.8936 7.79272L55.9019 7.3073L55.7352 6.92397L55.3977 6.74272L55.0811 6.71563L54.7436 6.73647L54.0331 6.6073L53.679 6.62605L53.3186 6.72813L53.0727 7.02605L53.0769 7.36147L53.0436 7.76147L52.9852 8.02605L52.8311 10.3615L52.7519 10.6906L52.7581 11.0115L52.4727 13.6885L52.4561 15.0302L52.5644 15.7281L52.7811 16.3177L53.1123 16.951L53.2915 17.201L53.5227 17.4406L54.0248 17.8365L54.3436 18.0156L54.5811 18.1885L55.1894 18.526L55.8269 18.7156L56.1602 18.7448L56.6915 18.826Z" fill="white"/>
<path d="M61.8385 18.4742L61.751 19.0117L62.0822 19.4263L62.4031 19.5346L62.8572 19.8221L63.1114 19.9159L63.5572 20.1429L64.1093 20.2388L64.4656 19.8763L64.7239 19.37L64.8906 19.1179L65.0072 18.7825L65.5239 17.845L65.8114 17.6159L66.1781 17.5971L66.9801 18.1575L67.1489 18.5638L67.1739 18.9534L67.1551 19.2825L67.2385 19.8888L67.2468 20.57L67.2968 20.8763L67.2635 21.2346L67.2968 21.5721L67.4885 22.0075L67.9239 22.4013L69.1072 22.9888L69.376 23.1638L69.8739 23.4013L70.226 23.4117L70.4822 23.1304L70.4864 22.7179L70.4156 22.4179L70.4406 22.0742L70.3239 21.0575L70.3281 20.72L70.2489 19.7013L70.1843 19.3867L70.3531 19.0221L70.6531 18.7638L70.976 18.6471L71.276 18.5763L72.3906 17.8304L73.026 17.0679L73.4781 16.1138L73.5864 15.7929L73.7531 14.8075L73.7635 14.4929L73.7218 14.1721L73.3301 12.845L72.9551 12.295L72.4885 11.8117L71.7385 11.1825L71.2697 10.9242L70.8239 10.7325L69.9301 10.2742L69.6635 10.0617L69.3656 9.90961L69.0593 9.84711L68.7614 9.69503L68.4947 9.48253L68.176 9.29919L67.2593 8.92419L66.9156 8.93461L66.5218 9.26169L64.7906 12.6763L64.6676 12.9888L64.3176 13.5617L64.1656 13.8971L64.0135 14.195L63.8968 14.4929L63.7218 14.7596L63.0906 15.9575L62.9676 16.27L61.8385 18.4742ZM67.3989 15.2159L67.1843 14.8992L67.1885 14.5992L67.6447 13.7075L67.7447 13.4388L68.0947 12.8284L68.3739 12.6159L68.7468 12.6554L69.0385 12.8242L69.6635 13.07L70.0343 13.3721L70.4051 13.5992L70.651 13.82L70.7864 14.4721L70.7531 14.7554L70.6156 15.1721L70.3406 15.5971L70.0551 15.8263L69.776 15.9659L69.5447 16.0159L69.2156 15.9971L68.7301 15.8804L68.4406 15.7492L67.7406 15.3534L67.3989 15.2159Z" fill="white"/>
<path d="M84.3414 54.2506L85.0247 54.7048L85.2581 54.8944L85.5893 55.0944L85.9539 55.1923L86.281 54.9944L86.4643 54.7152L86.6935 54.4256L87.0289 53.9048L87.2414 53.6673L87.4539 53.3465L87.7518 53.1902L88.1727 53.2673L88.4893 53.4569L88.7352 53.7173L90.2081 54.6173L91.8685 55.0361L92.1893 55.0194L92.5352 54.9402L92.8393 54.8923L93.1622 54.8173L93.7602 54.5881L94.3747 54.2277L94.631 53.959L94.8685 53.8006L95.6997 52.709L95.8122 52.4402L95.9872 52.1131L96.1872 51.4944L96.2643 50.8465L96.2622 50.1652L96.0352 49.1944L95.8039 48.5736L95.381 48.0194L95.2185 47.7569L94.9477 47.5611L94.7456 47.2694L94.3497 46.9611L93.906 46.6611L93.5789 46.4861L92.7622 45.8736L92.5206 45.6382L91.6414 45.084L91.3539 44.8548L91.1393 44.6361L90.8143 44.4861L90.4227 44.4277L90.1435 44.5569L88.9706 46.2048L88.5247 46.709L88.3643 46.9861L85.8102 50.484L85.6518 50.7611L83.8227 53.2569L83.7852 53.6215L84.1081 54.0611L84.3414 54.2506ZM89.7289 51.0902L89.5747 50.7319L89.6206 50.4131L90.3727 49.2861L90.606 49.0215L91.0081 48.4652L91.331 48.3069L91.7122 48.3777L93.0935 49.4382L93.2747 49.7569L93.3831 50.0631L93.4331 50.3652L93.3727 50.734L93.2352 51.009L92.9893 51.4069L92.6956 51.7527L92.4247 51.9277L92.1456 52.0569L91.8122 52.1465L91.4789 52.1506L91.2122 52.0631L90.7539 51.8131L90.0727 51.2986L89.7289 51.0902Z" fill="white"/>
<path d="M103.203 62.8524L103.832 62.9566L104.134 63.0629L104.64 63.1712L105.115 63.2004L105.259 62.8233L105.238 62.4212L105.14 61.7608L104.909 60.8087L104.83 60.1524L104.649 59.4879L104.393 57.8587L104.29 57.5754L104.203 57.2274L104.195 56.8462L104.107 56.5649L104.074 56.2816L103.88 55.5983L103.851 55.2295L103.332 52.7087L103.313 52.3587L103.207 52.0233L103.18 51.7066L103.011 51.0629L102.807 50.7024L102.311 50.4087L101.747 50.4608L101.388 50.6649L101.174 50.9045L100.98 51.2024L100.778 51.3941L99.7613 52.7274L99.5238 52.9274L99.3633 53.2337L99.1092 53.4983L98.9383 53.767L96.43 56.8358L96.2446 57.1691L96.0238 57.3733L95.83 57.6712L95.4092 58.1191L95.0071 58.7087L94.7717 58.892L94.6196 59.1649L94.1363 59.7337L93.9592 60.0358L93.9404 60.4608L94.2404 60.6379L94.8821 60.7608L95.1988 60.8733L96.1175 61.0649L96.5196 61.042L96.8988 60.8254L97.3217 60.3608L97.7071 60.1274L98.0925 60.0337L98.3883 60.1566L99.0863 60.2587L99.3675 60.3795L100.963 60.7545L101.247 60.8587L101.618 60.8962L101.93 61.1629L102.176 61.4983L102.245 61.8441L102.272 62.1587L102.536 62.4837L102.87 62.7379L103.203 62.8524ZM100.507 57.9045L100.199 57.7608L99.8175 57.7004L99.5842 57.5233L99.6446 57.2108L100.838 55.6441L101.053 55.542L101.249 55.7274L101.574 57.7004L101.436 57.9774L101.161 58.0483L100.507 57.9045Z" fill="white"/>
<path d="M112.351 62.5353L112.678 62.7686L113.086 62.8978L113.701 62.7374L114.03 62.5228L114.211 62.1207L114.292 61.8103L114.307 61.429L114.403 61.0978L114.419 60.8019L114.486 60.4249L114.507 60.1457L114.732 58.8228L114.749 58.4582L114.899 57.7707L114.963 57.0853L115.136 57.0978L115.363 57.3353L115.542 57.6561L115.947 58.1457L117.459 60.4374L117.828 60.9186L117.999 61.204L118.388 61.4749L118.807 61.5832L119.113 61.4957L119.378 61.3811L119.74 61.1603L119.915 60.8103L119.94 60.479L120.019 60.1519L120.338 57.0894L120.419 56.779L120.636 55.2686L120.659 54.7832L120.738 54.454V54.1624L121.136 51.1519V50.7749L121.23 50.4436L121.309 49.3769L121.119 49.0082L120.776 49.004L120.438 49.0311L119.876 49.1957L119.215 49.3144L118.882 49.4269L118.561 49.4499L118.257 49.6915L118.059 50.0978L118.051 50.4269L117.967 50.7374L117.738 53.8144L117.749 54.154L117.697 54.8874L117.742 55.5978L117.715 55.9311L117.549 55.9519L117.007 55.0999L116.851 54.7936L115.722 53.1144L115.415 52.5332L115.213 52.254L114.865 51.6478L114.672 51.4019L114.472 51.1394L114.167 50.8665L113.78 50.7499L113.422 50.8332L113.134 51.0728L112.934 51.4624L112.772 53.1999L112.663 53.8436L112.515 55.8686L112.411 56.1519L112.424 56.5082L112.324 57.1853L112.199 57.2311L112.042 56.8561L110.174 53.5478L109.978 53.2999L109.634 52.7103L109.494 52.3999L109.288 52.104L108.934 51.9124L108.59 51.8374L107.284 52.1249L106.976 52.1269L106.694 52.2436L106.355 52.3394L106.036 52.5186L106.057 52.9082L106.242 53.329L107.357 55.0269L107.569 55.2686L108.661 56.9374L108.842 57.2728L109.582 58.3894L109.79 58.6165L111.969 62.0061L112.188 62.2811L112.351 62.5353Z" fill="white"/>
<path d="M129.899 55.7599L130.954 54.962L131.193 54.7266L131.404 54.4537L131.633 54.2057L131.812 53.8932L132.026 53.6787L132.181 53.362L132.643 52.1182L132.71 51.4224L132.693 51.1349L132.608 50.7328L132.499 50.4349L132.399 50.1516L131.958 49.4349L131.597 49.037L130.797 48.4349L130.487 48.3391L129.835 48.2182L129.431 48.1974L129.139 48.2599L128.789 48.3037L127.518 48.8016L127.226 48.9703L126.954 49.1662L126.637 49.3328L126.258 49.6349L125.451 50.0432L124.779 50.1953L124.437 50.1682L124.072 49.8162L123.856 49.412L123.876 49.1162L123.958 48.8162L124.074 48.5328L124.268 48.2912L124.676 47.9453L125.137 47.6641L125.424 47.5412L125.785 47.512L126.151 47.5162L126.558 47.6224L126.981 47.562L127.554 47.0203L127.926 46.7662L128.189 46.5578L128.445 46.3953L128.547 46.0141L128.474 45.7078L128.224 45.5016L127.999 45.2745L127.091 44.887L126.491 44.7224L125.149 44.8099L124.218 45.1453L123.624 45.4474L122.597 46.2224L122.372 46.5307L122.12 46.7516L121.916 46.9787L121.545 47.5328L121.31 48.1474L121.024 49.0807L121.058 50.0599L121.395 50.9662L121.866 51.6391L122.204 52.0328L122.712 52.4849L123.285 52.7745L124.249 52.9912L125.524 52.7662L126.12 52.5474L128.36 51.1453L129.008 50.9932L129.304 51.0141L129.643 51.2787L129.799 51.6891L129.785 52.0203L129.497 52.5724L129.112 52.9203L128.908 53.1474L128.189 53.6141L127.872 53.6745L127.537 53.7078L126.729 53.5807L126.385 53.6849L126.17 53.8974L125.889 54.0557L124.924 54.912L124.772 55.2037L124.887 55.562L125.135 55.7932L125.395 56.012L125.662 56.1849L126.295 56.4703L126.614 56.4953L126.941 56.5557L127.629 56.4787L127.968 56.5287L128.31 56.4474L128.633 56.3182L129.289 56.0953L129.899 55.7599Z" fill="white"/>
</svg>
