<svg viewBox="0 0 425 331" fill="none" xmlns="http://www.w3.org/2000/svg">
<ellipse rx="4.64189" ry="9.37171" transform="matrix(-0.11314 0.993579 -0.963526 -0.267613 325.632 163.678)" fill="white"/>
<ellipse rx="4.60594" ry="9.41952" transform="matrix(-0.164544 0.98637 -0.953879 -0.30019 335.771 156.313)" fill="white"/>
<ellipse rx="5.1113" ry="8.68639" transform="matrix(0.319325 0.947645 -0.997545 0.0700207 334.482 145.216)" fill="white"/>
<ellipse rx="5.1113" ry="8.68639" transform="matrix(0.319325 0.947645 -0.997545 0.0700207 322.483 136.143)" fill="white"/>
<path d="M326.015 149.682C327.156 154.864 311.657 163.157 305.302 159.242C298.181 154.854 302.182 152.115 301.932 147.182C301.66 141.8 294.188 137.911 302.531 134.227C305.588 132.877 324.875 144.499 326.015 149.682Z" fill="white"/>
<ellipse rx="4.64189" ry="9.37171" transform="matrix(-0.11314 0.993579 -0.963526 -0.267613 390.902 211.678)" fill="#F96B0A"/>
<ellipse rx="4.60594" ry="9.41952" transform="matrix(-0.164544 0.98637 -0.953879 -0.30019 401.041 204.312)" fill="#F96B0A"/>
<ellipse rx="5.1113" ry="8.68639" transform="matrix(0.319325 0.947645 -0.997545 0.0700207 399.752 193.216)" fill="#F96B0A"/>
<ellipse rx="5.1113" ry="8.68639" transform="matrix(0.319325 0.947645 -0.997545 0.0700207 387.753 184.143)" fill="#F96B0A"/>
<path d="M391.285 197.682C392.426 202.864 376.927 211.157 370.572 207.242C363.451 202.854 367.452 200.115 367.202 195.182C366.93 189.8 359.458 185.911 367.801 182.227C370.858 180.877 390.145 192.499 391.285 197.682Z" fill="#F96B0A"/>
<ellipse rx="4.13733" ry="8.35303" transform="matrix(-0.11314 0.993579 -0.963526 -0.267613 293.109 207.192)" fill="white"/>
<ellipse rx="4.10529" ry="8.39565" transform="matrix(-0.164544 0.98637 -0.953879 -0.30019 302.146 200.627)" fill="white"/>
<ellipse rx="4.55572" ry="7.74221" transform="matrix(0.319325 0.947645 -0.997545 0.0700207 300.996 190.737)" fill="white"/>
<ellipse rx="4.55572" ry="7.74221" transform="matrix(0.319325 0.947645 -0.997545 0.0700207 290.302 182.65)" fill="white"/>
<path d="M293.45 194.717C294.467 199.336 280.653 206.727 274.989 203.238C268.642 199.327 272.208 196.886 271.985 192.489C271.742 187.692 265.083 184.226 272.519 180.942C275.243 179.738 292.434 190.098 293.45 194.717Z" fill="white"/>
<ellipse rx="2.9264" ry="5.90824" transform="matrix(-0.11314 0.993579 -0.963526 -0.267613 86.4122 167.511)" fill="white"/>
<ellipse rx="2.90374" ry="5.93839" transform="matrix(-0.164544 0.98637 -0.953879 -0.30019 92.8045 162.868)" fill="white"/>
<ellipse rx="3.22234" ry="5.4762" transform="matrix(0.319325 0.947645 -0.997545 0.0700207 91.9915 155.872)" fill="white"/>
<ellipse rx="3.22234" ry="5.4762" transform="matrix(0.319325 0.947645 -0.997545 0.0700207 84.4271 150.153)" fill="white"/>
<path d="M86.6543 158.687C87.3733 161.954 77.6021 167.183 73.5959 164.714C69.1068 161.948 71.6289 160.221 71.4715 157.111C71.2998 153.719 66.5894 151.267 71.8491 148.944C73.7761 148.093 85.9353 155.42 86.6543 158.687Z" fill="white"/>
<ellipse rx="2.9264" ry="5.90824" transform="matrix(-0.11314 0.993579 -0.963526 -0.267613 162.24 153.167)" fill="white"/>
<ellipse rx="2.90374" ry="5.93839" transform="matrix(-0.164544 0.98637 -0.953879 -0.30019 168.633 148.523)" fill="white"/>
<ellipse rx="3.22234" ry="5.4762" transform="matrix(0.319325 0.947645 -0.997545 0.0700207 167.82 141.528)" fill="white"/>
<ellipse rx="3.22234" ry="5.4762" transform="matrix(0.319325 0.947645 -0.997545 0.0700207 160.255 135.808)" fill="white"/>
<path d="M162.482 144.342C163.201 147.61 153.43 152.838 149.424 150.369C144.935 147.603 147.457 145.877 147.3 142.767C147.128 139.374 142.418 136.922 147.677 134.599C149.604 133.748 161.763 141.075 162.482 144.342Z" fill="white"/>
<ellipse rx="2.9264" ry="5.90824" transform="matrix(-0.11314 0.993579 -0.963526 -0.267613 235.24 177.167)" fill="white"/>
<ellipse rx="2.90374" ry="5.93839" transform="matrix(-0.164544 0.98637 -0.953879 -0.30019 241.633 172.523)" fill="white"/>
<ellipse rx="3.22234" ry="5.4762" transform="matrix(0.319325 0.947645 -0.997545 0.0700207 240.82 165.528)" fill="white"/>
<ellipse rx="3.22234" ry="5.4762" transform="matrix(0.319325 0.947645 -0.997545 0.0700207 233.255 159.808)" fill="white"/>
<path d="M235.482 168.342C236.201 171.61 226.43 176.838 222.424 174.369C217.935 171.603 220.457 169.877 220.3 166.767C220.128 163.374 215.418 160.922 220.677 158.599C222.604 157.748 234.763 165.075 235.482 168.342Z" fill="white"/>
<ellipse rx="2.62368" ry="5.29706" transform="matrix(-0.11314 0.993579 -0.963526 -0.267613 66.8996 205.176)" fill="white"/>
<ellipse rx="2.60336" ry="5.32409" transform="matrix(-0.164544 0.98637 -0.953879 -0.30019 72.6303 201.012)" fill="white"/>
<ellipse rx="2.889" ry="4.90971" transform="matrix(0.319325 0.947645 -0.997545 0.0700207 71.9008 194.74)" fill="white"/>
<ellipse rx="2.889" ry="4.90971" transform="matrix(0.319325 0.947645 -0.997545 0.0700207 65.1196 189.612)" fill="white"/>
<path d="M67.1165 197.264C67.7611 200.194 59.0007 204.881 55.4089 202.668C51.3842 200.188 53.6454 198.64 53.5043 195.851C53.3504 192.81 49.1272 190.611 53.8428 188.529C55.5705 187.766 66.4719 194.335 67.1165 197.264Z" fill="white"/>
<ellipse rx="2.62368" ry="5.29706" transform="matrix(-0.11314 0.993579 -0.963526 -0.267613 142.728 190.831)" fill="white"/>
<ellipse rx="2.60336" ry="5.32409" transform="matrix(-0.164544 0.98637 -0.953879 -0.30019 148.458 186.668)" fill="white"/>
<ellipse rx="2.889" ry="4.90971" transform="matrix(0.319325 0.947645 -0.997545 0.0700207 147.729 180.396)" fill="white"/>
<ellipse rx="2.889" ry="4.90971" transform="matrix(0.319325 0.947645 -0.997545 0.0700207 140.948 175.268)" fill="white"/>
<path d="M142.945 182.92C143.589 185.849 134.829 190.536 131.237 188.323C127.212 185.843 129.474 184.295 129.332 181.507C129.178 178.465 124.955 176.267 129.671 174.184C131.399 173.421 142.3 179.99 142.945 182.92Z" fill="white"/>
<ellipse rx="2.62368" ry="5.29706" transform="matrix(-0.11314 0.993579 -0.963526 -0.267613 215.728 214.831)" fill="white"/>
<ellipse rx="2.60336" ry="5.32409" transform="matrix(-0.164544 0.98637 -0.953879 -0.30019 221.458 210.668)" fill="white"/>
<ellipse rx="2.889" ry="4.90971" transform="matrix(0.319325 0.947645 -0.997545 0.0700207 220.729 204.396)" fill="white"/>
<ellipse rx="2.889" ry="4.90971" transform="matrix(0.319325 0.947645 -0.997545 0.0700207 213.948 199.268)" fill="white"/>
<path d="M215.945 206.92C216.589 209.849 207.829 214.536 204.237 212.323C200.212 209.843 202.474 208.295 202.332 205.507C202.178 202.465 197.955 200.267 202.671 198.184C204.399 197.421 215.3 203.99 215.945 206.92Z" fill="white"/>
<ellipse rx="2.11913" ry="4.2784" transform="matrix(-0.11314 0.993579 -0.963526 -0.267613 15.9338 185.826)" fill="white"/>
<ellipse rx="2.10272" ry="4.30022" transform="matrix(-0.164544 0.98637 -0.953879 -0.30019 20.5629 182.463)" fill="white"/>
<ellipse rx="2.33342" ry="3.96554" transform="matrix(0.319325 0.947645 -0.997545 0.0700207 19.9729 177.398)" fill="white"/>
<ellipse rx="2.33342" ry="3.96554" transform="matrix(0.319325 0.947645 -0.997545 0.0700207 14.4959 173.256)" fill="white"/>
<path d="M16.1087 179.436C16.6294 181.802 9.55366 185.588 6.65261 183.8C3.40189 181.797 5.22819 180.547 5.11423 178.295C4.9899 175.838 1.57893 174.063 5.38765 172.38C6.7831 171.764 15.5881 177.07 16.1087 179.436Z" fill="white"/>
</svg>
