<svg viewBox="0 0 840 405"   preserveAspectRatio="none" fill="none" xmlns="http://www.w3.org/2000/svg">
<path d="M-9.91821e-05 46.5C3.79401 -12.2837 991.5 -35.5 806 108C688.738 198.713 840 401 840 401H-9.91821e-05C-9.91821e-05 401 -9.53326 194.201 -9.91821e-05 46.5Z" fill="#F96B0A"/>
<ellipse rx="4.64189" ry="9.37171" transform="matrix(-0.11314 0.993579 -0.963526 -0.267613 721.632 237.678)" fill="white"/>
<ellipse rx="4.60594" ry="9.41952" transform="matrix(-0.164544 0.98637 -0.953879 -0.30019 731.771 230.313)" fill="white"/>
<ellipse rx="5.1113" ry="8.68639" transform="matrix(0.319325 0.947645 -0.997545 0.0700207 730.482 219.216)" fill="white"/>
<ellipse rx="5.1113" ry="8.68639" transform="matrix(0.319325 0.947645 -0.997545 0.0700207 718.483 210.143)" fill="white"/>
<path d="M722.015 223.682C723.156 228.864 707.657 237.157 701.302 233.242C694.181 228.854 698.182 226.115 697.932 221.182C697.66 215.8 690.188 211.911 698.531 208.227C701.588 206.877 720.875 218.499 722.015 223.682Z" fill="white"/>
<ellipse rx="4.64189" ry="9.37171" transform="matrix(-0.11314 0.993579 -0.963526 -0.267613 786.902 285.678)" fill="#F96B0A"/>
<ellipse rx="4.60594" ry="9.41952" transform="matrix(-0.164544 0.98637 -0.953879 -0.30019 797.041 278.312)" fill="#F96B0A"/>
<ellipse rx="5.1113" ry="8.68639" transform="matrix(0.319325 0.947645 -0.997545 0.0700207 795.752 267.216)" fill="#F96B0A"/>
<ellipse rx="5.1113" ry="8.68639" transform="matrix(0.319325 0.947645 -0.997545 0.0700207 783.753 258.143)" fill="#F96B0A"/>
<path d="M787.285 271.682C788.426 276.864 772.927 285.157 766.572 281.242C759.451 276.854 763.452 274.115 763.202 269.182C762.93 263.8 755.458 259.911 763.801 256.227C766.858 254.877 786.145 266.499 787.285 271.682Z" fill="#F96B0A"/>
<ellipse rx="4.13733" ry="8.35303" transform="matrix(-0.11314 0.993579 -0.963526 -0.267613 689.109 281.192)" fill="white"/>
<ellipse rx="4.10529" ry="8.39565" transform="matrix(-0.164544 0.98637 -0.953879 -0.30019 698.146 274.627)" fill="white"/>
<ellipse rx="4.55572" ry="7.74221" transform="matrix(0.319325 0.947645 -0.997545 0.0700207 696.996 264.737)" fill="white"/>
<ellipse rx="4.55572" ry="7.74221" transform="matrix(0.319325 0.947645 -0.997545 0.0700207 686.302 256.65)" fill="white"/>
<path d="M689.45 268.717C690.467 273.336 676.653 280.727 670.989 277.238C664.642 273.327 668.208 270.886 667.985 266.489C667.742 261.692 661.083 258.226 668.519 254.942C671.243 253.738 688.434 264.098 689.45 268.717Z" fill="white"/>
<ellipse rx="2.9264" ry="5.90824" transform="matrix(-0.11314 0.993579 -0.963526 -0.267613 482.412 241.511)" fill="white"/>
<ellipse rx="2.90374" ry="5.93839" transform="matrix(-0.164544 0.98637 -0.953879 -0.30019 488.804 236.868)" fill="white"/>
<ellipse rx="3.22234" ry="5.4762" transform="matrix(0.319325 0.947645 -0.997545 0.0700207 487.992 229.872)" fill="white"/>
<ellipse rx="3.22234" ry="5.4762" transform="matrix(0.319325 0.947645 -0.997545 0.0700207 480.427 224.153)" fill="white"/>
<path d="M482.654 232.687C483.373 235.954 473.602 241.183 469.596 238.714C465.107 235.948 467.629 234.221 467.471 231.111C467.3 227.719 462.589 225.267 467.849 222.944C469.776 222.093 481.935 229.42 482.654 232.687Z" fill="white"/>
<ellipse rx="2.9264" ry="5.90824" transform="matrix(-0.11314 0.993579 -0.963526 -0.267613 558.24 227.167)" fill="white"/>
<ellipse rx="2.90374" ry="5.93839" transform="matrix(-0.164544 0.98637 -0.953879 -0.30019 564.633 222.523)" fill="white"/>
<ellipse rx="3.22234" ry="5.4762" transform="matrix(0.319325 0.947645 -0.997545 0.0700207 563.82 215.528)" fill="white"/>
<ellipse rx="3.22234" ry="5.4762" transform="matrix(0.319325 0.947645 -0.997545 0.0700207 556.255 209.808)" fill="white"/>
<path d="M558.482 218.342C559.201 221.61 549.43 226.838 545.424 224.369C540.935 221.603 543.457 219.877 543.3 216.767C543.128 213.374 538.418 210.922 543.677 208.599C545.604 207.748 557.763 215.075 558.482 218.342Z" fill="white"/>
<ellipse rx="2.9264" ry="5.90824" transform="matrix(-0.11314 0.993579 -0.963526 -0.267613 631.24 251.167)" fill="white"/>
<ellipse rx="2.90374" ry="5.93839" transform="matrix(-0.164544 0.98637 -0.953879 -0.30019 637.633 246.523)" fill="white"/>
<ellipse rx="3.22234" ry="5.4762" transform="matrix(0.319325 0.947645 -0.997545 0.0700207 636.82 239.528)" fill="white"/>
<ellipse rx="3.22234" ry="5.4762" transform="matrix(0.319325 0.947645 -0.997545 0.0700207 629.255 233.808)" fill="white"/>
<path d="M631.482 242.342C632.201 245.61 622.43 250.838 618.424 248.369C613.935 245.603 616.457 243.877 616.3 240.767C616.128 237.374 611.418 234.922 616.677 232.599C618.604 231.748 630.763 239.075 631.482 242.342Z" fill="white"/>
<ellipse rx="2.62368" ry="5.29706" transform="matrix(-0.11314 0.993579 -0.963526 -0.267613 462.9 279.176)" fill="white"/>
<ellipse rx="2.60336" ry="5.32409" transform="matrix(-0.164544 0.98637 -0.953879 -0.30019 468.63 275.012)" fill="white"/>
<ellipse rx="2.889" ry="4.90971" transform="matrix(0.319325 0.947645 -0.997545 0.0700207 467.901 268.74)" fill="white"/>
<ellipse rx="2.889" ry="4.90971" transform="matrix(0.319325 0.947645 -0.997545 0.0700207 461.12 263.612)" fill="white"/>
<path d="M463.117 271.264C463.761 274.194 455.001 278.881 451.409 276.668C447.384 274.188 449.645 272.64 449.504 269.851C449.35 266.81 445.127 264.611 449.843 262.529C451.571 261.766 462.472 268.335 463.117 271.264Z" fill="white"/>
<ellipse rx="2.62368" ry="5.29706" transform="matrix(-0.11314 0.993579 -0.963526 -0.267613 538.728 264.831)" fill="white"/>
<ellipse rx="2.60336" ry="5.32409" transform="matrix(-0.164544 0.98637 -0.953879 -0.30019 544.458 260.668)" fill="white"/>
<ellipse rx="2.889" ry="4.90971" transform="matrix(0.319325 0.947645 -0.997545 0.0700207 543.729 254.396)" fill="white"/>
<ellipse rx="2.889" ry="4.90971" transform="matrix(0.319325 0.947645 -0.997545 0.0700207 536.948 249.268)" fill="white"/>
<path d="M538.945 256.92C539.589 259.849 530.829 264.536 527.237 262.323C523.212 259.843 525.474 258.295 525.332 255.507C525.178 252.465 520.955 250.267 525.671 248.184C527.399 247.421 538.3 253.99 538.945 256.92Z" fill="white"/>
<ellipse rx="2.62368" ry="5.29706" transform="matrix(-0.11314 0.993579 -0.963526 -0.267613 611.728 288.831)" fill="white"/>
<ellipse rx="2.60336" ry="5.32409" transform="matrix(-0.164544 0.98637 -0.953879 -0.30019 617.458 284.668)" fill="white"/>
<ellipse rx="2.889" ry="4.90971" transform="matrix(0.319325 0.947645 -0.997545 0.0700207 616.729 278.396)" fill="white"/>
<ellipse rx="2.889" ry="4.90971" transform="matrix(0.319325 0.947645 -0.997545 0.0700207 609.948 273.268)" fill="white"/>
<path d="M611.945 280.92C612.589 283.849 603.829 288.536 600.237 286.323C596.212 283.843 598.474 282.295 598.332 279.507C598.178 276.465 593.955 274.267 598.671 272.184C600.399 271.421 611.3 277.99 611.945 280.92Z" fill="white"/>
<ellipse rx="2.11913" ry="4.2784" transform="matrix(-0.11314 0.993579 -0.963526 -0.267613 411.934 259.826)" fill="white"/>
<ellipse rx="2.10272" ry="4.30022" transform="matrix(-0.164544 0.98637 -0.953879 -0.30019 416.563 256.463)" fill="white"/>
<ellipse rx="2.33342" ry="3.96554" transform="matrix(0.319325 0.947645 -0.997545 0.0700207 415.973 251.398)" fill="white"/>
<ellipse rx="2.33342" ry="3.96554" transform="matrix(0.319325 0.947645 -0.997545 0.0700207 410.496 247.256)" fill="white"/>
<path d="M412.109 253.436C412.629 255.802 405.554 259.588 402.653 257.8C399.402 255.797 401.228 254.547 401.114 252.295C400.99 249.838 397.579 248.063 401.388 246.38C402.783 245.764 411.588 251.07 412.109 253.436Z" fill="white"/>
</svg>
