<svg width="52" height="50" viewBox="0 0 52 50" fill="none" xmlns="http://www.w3.org/2000/svg">
<path d="M34.1216 43.8919V40.6389C34.1216 40.3666 34.1422 40.0964 34.183 39.8272C34.2244 39.558 34.2853 39.2935 34.3665 39.0341C34.4481 38.7742 34.5483 38.5221 34.6682 38.2777C34.7876 38.0328 34.925 37.7988 35.08 37.575C35.235 37.3513 35.4065 37.141 35.5936 36.9432C35.7806 36.7453 35.9816 36.5629 36.1965 36.3955C36.4115 36.2286 36.6378 36.0782 36.8754 35.9455C37.1131 35.8127 37.359 35.6985 37.6143 35.6029C37.869 35.5073 38.1154 35.3931 38.3531 35.2598C38.5908 35.1271 38.8171 34.9767 39.032 34.8098C39.247 34.6424 39.4479 34.46 39.635 34.2621C39.822 34.0643 39.993 33.854 40.1485 33.6302C40.3036 33.4065 40.441 33.172 40.5603 32.9276C40.6802 32.6832 40.7804 32.4311 40.8616 32.1712C40.9432 31.9113 41.0042 31.6473 41.0455 31.3781C41.0863 31.1089 41.107 30.8381 41.107 30.5664V26.4934L41.1028 26.4903C41.3457 26.5368 41.5906 26.5616 41.8376 26.5653C42.085 26.5689 42.3305 26.5508 42.5743 26.5115C42.8182 26.4717 43.0569 26.4113 43.2904 26.3302C43.5235 26.2485 43.7482 26.1478 43.9637 26.0269C45.259 25.3082 46.4003 24.5218 46.2975 22.9501C46.2308 21.9302 44.2742 22.3843 43.5818 21.7463C42.9799 21.1908 42.9158 20.3218 42.3511 19.7328C41.4593 18.8022 40.1026 18.2758 38.8321 18.1843C37.2443 18.0701 36.0053 18.8798 35.3926 20.2846C35.2691 20.5677 35.1105 20.8948 34.955 21.2415C34.5406 21.6527 34.1076 22.0428 33.6555 22.4117C33.2034 22.7806 32.7343 23.1268 32.2481 23.4497C31.7624 23.7726 31.2618 24.0713 30.7467 24.3451C30.2315 24.6195 29.704 24.8675 29.1646 25.0902C28.6252 25.3123 28.076 25.5081 27.5174 25.6766C26.9594 25.8455 26.3937 25.9866 25.8217 26.0997C25.2493 26.2134 24.6726 26.2987 24.0924 26.3555C23.5117 26.4123 22.9299 26.4407 22.3466 26.4407H15.5528C15.1033 26.4413 14.6626 26.5043 14.2307 26.6293C13.7987 26.7544 13.3926 26.9373 13.0124 27.177L13.0181 27.1687C11.2381 26.883 9.49641 26.4449 7.79242 25.8559C6.08895 25.2663 4.44903 24.5342 2.87318 23.6595L0.0252758 22.078C0.0252758 22.078 -0.442313 26.3348 2.64481 28.1861C5.35579 29.811 8.74051 30.091 10.9167 30.0693L10.9214 30.0631C10.7705 30.6651 10.7385 31.2737 10.8253 31.888L11.187 34.4202C11.2634 34.9524 11.2774 35.4867 11.2288 36.0219C11.1808 36.5577 11.0712 37.0801 10.9012 37.5905C10.6641 38.3015 10.5453 39.0315 10.5453 39.7807V44.7646C10.5453 44.8793 10.5566 44.9924 10.5788 45.105C10.6016 45.2172 10.6346 45.3267 10.6786 45.4321C10.7225 45.538 10.7762 45.6388 10.8398 45.7338C10.9033 45.8294 10.9756 45.9173 11.0568 45.9984C11.1379 46.0795 11.2262 46.1518 11.3213 46.2154C11.4169 46.2794 11.5176 46.3332 11.6236 46.3766C11.7295 46.4205 11.8385 46.4536 11.9511 46.4763C12.0638 46.4985 12.1769 46.5099 12.2916 46.5099H0.0252758V50H50.6696V46.5099H36.7411C36.7411 46.4241 36.737 46.3383 36.7282 46.2531C36.7199 46.1678 36.7075 46.0831 36.6905 45.9989C36.6739 45.9147 36.6533 45.832 36.6285 45.7498C36.6031 45.6677 36.5742 45.5871 36.5417 45.508C36.5086 45.4285 36.4719 45.3515 36.4316 45.2755C36.3913 45.2001 36.3474 45.1267 36.2993 45.0554C36.2518 44.9841 36.2006 44.9154 36.1464 44.8488C36.0921 44.7826 36.0343 44.7191 35.9738 44.6586C35.9129 44.5982 35.8498 44.5403 35.7832 44.4861C35.717 44.4318 35.6483 44.3807 35.577 44.3331C35.5057 44.2856 35.4318 44.2417 35.3564 44.2009C35.2805 44.1606 35.203 44.1239 35.1239 44.0913C35.0449 44.0583 34.9643 44.0293 34.8821 44.0045C34.7999 43.9797 34.7168 43.9591 34.6325 43.942C34.5483 43.9255 34.4636 43.9131 34.3783 43.9048C34.2931 43.896 34.2073 43.8919 34.1216 43.8919ZM16.658 46.5099C16.658 46.4241 16.6539 46.3383 16.6451 46.2531C16.6368 46.1678 16.6244 46.0831 16.6074 45.9989C16.5908 45.9147 16.5702 45.832 16.5449 45.7498C16.5201 45.6677 16.4911 45.5871 16.4586 45.508C16.4255 45.4285 16.3888 45.3515 16.3485 45.2755C16.3082 45.2001 16.2643 45.1267 16.2163 45.0554C16.1687 44.9841 16.1176 44.9154 16.0633 44.8488C16.0091 44.7826 15.9512 44.7191 15.8908 44.6586C15.8298 44.5982 15.7662 44.5403 15.7001 44.4861C15.634 44.4318 15.5652 44.3807 15.4934 44.3331C15.4221 44.2856 15.3488 44.2417 15.2733 44.2009C15.1974 44.1606 15.1199 44.1239 15.0408 44.0913C14.9618 44.0583 14.8807 44.0293 14.7985 44.0045C14.7169 43.9797 14.6337 43.9591 14.5495 43.942C14.4653 43.9255 14.3805 43.9131 14.2953 43.9048C14.2095 43.896 14.1242 43.8919 14.0385 43.8919V41.2744L16.9344 39.8272C17.1969 39.696 17.4434 39.5394 17.6728 39.3571C17.9027 39.1752 18.1114 38.9711 18.299 38.7453C18.4865 38.52 18.6493 38.2777 18.7862 38.0184C18.9231 37.759 19.0321 37.4888 19.1132 37.2067L19.1401 37.1049C19.1401 37.1049 26.263 38.9055 30.6288 38.9055V44.7646C30.6288 44.8793 30.6397 44.9924 30.6624 45.105C30.6847 45.2172 30.7177 45.3267 30.7616 45.4321C30.8056 45.538 30.8593 45.6388 30.9228 45.7338C30.9869 45.8294 31.0592 45.9173 31.1404 45.9984C31.2215 46.0795 31.3093 46.1518 31.4049 46.2154C31.5005 46.2794 31.6007 46.3332 31.7066 46.3766C31.8125 46.4205 31.9221 46.4536 32.0342 46.4763C32.1468 46.4985 32.2605 46.5099 32.3752 46.5099H16.658Z" fill="#F96B09"/>
<path d="M48.0499 7.24478C48.1073 7.24478 48.1641 7.2391 48.2204 7.22773C48.2768 7.21688 48.331 7.20035 48.3842 7.17813C48.4369 7.15643 48.4876 7.12956 48.5351 7.09753C48.5826 7.06601 48.6271 7.02933 48.6674 6.98903C48.7082 6.94873 48.7443 6.90429 48.7759 6.85676C48.8079 6.80923 48.8348 6.75911 48.857 6.70589C48.8787 6.65319 48.8952 6.59842 48.9066 6.54211C48.9174 6.48631 48.9231 6.42947 48.9231 6.37212V5.49946C48.9231 5.44211 48.9174 5.38528 48.9066 5.32948C48.8952 5.27316 48.8787 5.21839 48.857 5.16569C48.8348 5.11247 48.8079 5.06236 48.7759 5.01482C48.7443 4.96729 48.7082 4.92285 48.6674 4.88255C48.6271 4.84225 48.5826 4.80609 48.5351 4.77405C48.4876 4.74202 48.4369 4.71515 48.3842 4.69345C48.331 4.67123 48.2768 4.6547 48.2204 4.64385C48.1641 4.63248 48.1073 4.6268 48.0499 4.6268C47.9926 4.6268 47.9358 4.63248 47.8794 4.64385C47.8236 4.6547 47.7689 4.67123 47.7156 4.69345C47.6629 4.71515 47.6128 4.74202 47.5648 4.77405C47.5172 4.80609 47.4733 4.84225 47.4325 4.88255C47.3922 4.92285 47.356 4.96729 47.324 5.01482C47.292 5.06236 47.2651 5.11247 47.2434 5.16569C47.2212 5.21839 47.2047 5.27316 47.1938 5.32948C47.1824 5.38528 47.1768 5.44211 47.1768 5.49946V6.37212C47.1768 6.42947 47.1824 6.48631 47.1938 6.54211C47.2047 6.59842 47.2212 6.65319 47.2434 6.70589C47.2651 6.75911 47.292 6.80923 47.324 6.85676C47.356 6.90429 47.3922 6.94873 47.4325 6.98903C47.4733 7.02933 47.5172 7.06601 47.5648 7.09753C47.6128 7.12956 47.6629 7.15643 47.7156 7.17813C47.7689 7.20035 47.8236 7.21688 47.8794 7.22773C47.9358 7.2391 47.9926 7.24478 48.0499 7.24478Z" fill="#F96B09"/>
<path d="M48.0499 8.98959C47.9926 8.98959 47.9358 8.99528 47.8794 9.00664C47.8236 9.01749 47.7689 9.03403 47.7156 9.05624C47.6629 9.07794 47.6128 9.10481 47.5648 9.13685C47.5172 9.16888 47.4733 9.20505 47.4325 9.24535C47.3922 9.28565 47.356 9.33008 47.324 9.37761C47.292 9.42515 47.2651 9.47527 47.2434 9.52848C47.2212 9.58118 47.2047 9.63595 47.1938 9.69227C47.1824 9.74807 47.1768 9.8049 47.1768 9.86225V10.7349C47.1768 10.7923 47.1824 10.8491 47.1938 10.9049C47.2047 10.9612 47.2212 11.016 47.2434 11.0687C47.2651 11.1219 47.292 11.172 47.324 11.2196C47.356 11.2671 47.3922 11.3115 47.4325 11.3518C47.4733 11.3921 47.5172 11.4283 47.5648 11.4603C47.6128 11.4924 47.6629 11.5192 47.7156 11.5409C47.7689 11.5631 47.8236 11.5797 47.8794 11.5905C47.9358 11.6019 47.9926 11.6076 48.0499 11.6076C48.1073 11.6076 48.1641 11.6019 48.2204 11.5905C48.2768 11.5797 48.331 11.5631 48.3842 11.5409C48.4369 11.5192 48.4876 11.4924 48.5351 11.4603C48.5826 11.4283 48.6271 11.3921 48.6674 11.3518C48.7082 11.3115 48.7443 11.2671 48.7759 11.2196C48.8079 11.172 48.8348 11.1219 48.857 11.0687C48.8787 11.016 48.8952 10.9612 48.9066 10.9049C48.9174 10.8491 48.9231 10.7923 48.9231 10.7349V9.86225C48.9231 9.8049 48.9174 9.74807 48.9066 9.69227C48.8952 9.63595 48.8787 9.58118 48.857 9.52848C48.8348 9.47527 48.8079 9.42515 48.7759 9.37761C48.7443 9.33008 48.7082 9.28565 48.6674 9.24535C48.6271 9.20505 48.5826 9.16888 48.5351 9.13685C48.4876 9.10481 48.4369 9.07794 48.3842 9.05624C48.331 9.03403 48.2768 9.01749 48.2204 9.00664C48.1641 8.99528 48.1073 8.98959 48.0499 8.98959Z" fill="#F96B09"/>
<path d="M45.4308 8.98959H46.304C46.3613 8.98959 46.4182 8.9839 46.4745 8.97305C46.5308 8.96169 46.585 8.94515 46.6383 8.92345C46.691 8.90124 46.7416 8.87437 46.7891 8.84285C46.8367 8.81082 46.8811 8.77465 46.9214 8.73435C46.9622 8.69353 46.9984 8.64962 47.0299 8.60208C47.0619 8.55455 47.0888 8.50391 47.111 8.45121C47.1327 8.398 47.1492 8.34374 47.1606 8.28743C47.1715 8.23111 47.1771 8.17428 47.1771 8.11744C47.1771 8.06009 47.1715 8.00326 47.1606 7.94694C47.1492 7.89062 47.1327 7.83637 47.111 7.78315C47.0888 7.73045 47.0619 7.67982 47.0299 7.63229C46.9984 7.58475 46.9622 7.54084 46.9214 7.50002C46.8811 7.45972 46.8367 7.42355 46.7891 7.39152C46.7416 7.36 46.691 7.33313 46.6383 7.31092C46.585 7.28922 46.5308 7.27268 46.4745 7.26132C46.4182 7.25046 46.3613 7.24478 46.304 7.24478H45.4308C45.3734 7.24478 45.3166 7.25046 45.2603 7.26132C45.2045 7.27268 45.1497 7.28922 45.0965 7.31092C45.0438 7.33313 44.9937 7.36 44.9456 7.39152C44.8981 7.42355 44.8542 7.45972 44.8134 7.50002C44.7731 7.54084 44.7369 7.58475 44.7049 7.63229C44.6728 7.67982 44.646 7.73045 44.6243 7.78315C44.6021 7.83637 44.5855 7.89062 44.5747 7.94694C44.5633 8.00326 44.5576 8.06009 44.5576 8.11744C44.5576 8.17428 44.5633 8.23111 44.5747 8.28743C44.5855 8.34374 44.6021 8.398 44.6243 8.45121C44.646 8.50391 44.6728 8.55455 44.7049 8.60208C44.7369 8.64962 44.7731 8.69353 44.8134 8.73435C44.8542 8.77465 44.8981 8.81082 44.9456 8.84285C44.9937 8.87437 45.0438 8.90124 45.0965 8.92345C45.1497 8.94515 45.2045 8.96169 45.2603 8.97305C45.3166 8.9839 45.3734 8.98959 45.4308 8.98959Z" fill="#F96B09"/>
<path d="M50.6697 7.24478H49.7965C49.7392 7.24478 49.6823 7.25046 49.626 7.26132C49.5702 7.27268 49.5154 7.28922 49.4622 7.31092C49.4095 7.33313 49.3594 7.36 49.3114 7.39152C49.2638 7.42355 49.2199 7.45972 49.1791 7.50002C49.1388 7.54084 49.1026 7.58475 49.0706 7.63229C49.0386 7.67982 49.0117 7.73045 48.99 7.78315C48.9678 7.83637 48.9512 7.89062 48.9404 7.94694C48.929 8.00326 48.9233 8.06009 48.9233 8.11744C48.9233 8.17428 48.929 8.23111 48.9404 8.28743C48.9512 8.34374 48.9678 8.398 48.99 8.45121C49.0117 8.50391 49.0386 8.55455 49.0706 8.60208C49.1026 8.64962 49.1388 8.69353 49.1791 8.73435C49.2199 8.77465 49.2638 8.81082 49.3114 8.84285C49.3594 8.87437 49.4095 8.90124 49.4622 8.92345C49.5154 8.94515 49.5702 8.96169 49.626 8.97305C49.6823 8.9839 49.7392 8.98959 49.7965 8.98959H50.6697C50.727 8.98959 50.7839 8.9839 50.8402 8.97305C50.8965 8.96169 50.9508 8.94515 51.004 8.92345C51.0567 8.90124 51.1073 8.87437 51.1549 8.84285C51.2024 8.81082 51.2468 8.77465 51.2871 8.73435C51.3279 8.69353 51.3641 8.64962 51.3956 8.60208C51.4277 8.55455 51.4545 8.50391 51.4767 8.45121C51.4984 8.398 51.515 8.34374 51.5263 8.28743C51.5372 8.23111 51.5429 8.17428 51.5429 8.11744C51.5429 8.06009 51.5372 8.00326 51.5263 7.94694C51.515 7.89062 51.4984 7.83637 51.4767 7.78315C51.4545 7.73045 51.4277 7.67982 51.3956 7.63229C51.3641 7.58475 51.3279 7.54084 51.2871 7.50002C51.2468 7.45972 51.2024 7.42355 51.1549 7.39152C51.1073 7.36 51.0567 7.33313 51.004 7.31092C50.9508 7.28922 50.8965 7.27268 50.8402 7.26132C50.7839 7.25046 50.727 7.24478 50.6697 7.24478Z" fill="#F96B09"/>
<path d="M29.713 12.4802C29.7704 12.4797 29.8272 12.4745 29.8835 12.4632C29.9398 12.4518 29.9941 12.4353 30.0473 12.4136C30.1 12.3919 30.1506 12.3645 30.1982 12.333C30.2457 12.3009 30.2901 12.2648 30.3304 12.2245C30.3713 12.1837 30.4074 12.1397 30.4389 12.0922C30.471 12.0447 30.4978 11.994 30.5195 11.9413C30.5418 11.8886 30.5583 11.8339 30.5697 11.7776C30.5805 11.7212 30.5862 11.6649 30.5862 11.6076V10.7349C30.5862 10.6776 30.5805 10.6207 30.5697 10.5644C30.5583 10.5086 30.5418 10.4538 30.5195 10.4011C30.4978 10.3479 30.471 10.2978 30.4389 10.2503C30.4074 10.2022 30.3713 10.1583 30.3304 10.118C30.2901 10.0772 30.2457 10.041 30.1982 10.0095C30.1506 9.97746 30.1 9.95059 30.0473 9.92889C29.9941 9.90668 29.9398 9.89014 29.8835 9.87929C29.8272 9.86793 29.7704 9.86224 29.713 9.86224C29.6557 9.86224 29.5988 9.86793 29.5425 9.87929C29.4867 9.89014 29.432 9.90668 29.3787 9.92889C29.326 9.95059 29.2754 9.97746 29.2279 10.0095C29.1803 10.041 29.1364 10.0772 29.0956 10.118C29.0553 10.1583 29.0191 10.2022 28.9871 10.2503C28.9551 10.2978 28.9282 10.3479 28.9065 10.4011C28.8843 10.4538 28.8677 10.5086 28.8569 10.5644C28.8455 10.6207 28.8398 10.6776 28.8398 10.7349V11.6076C28.8398 11.6649 28.8455 11.7212 28.8569 11.7776C28.8677 11.8339 28.8843 11.8886 28.9065 11.9413C28.9282 11.994 28.9551 12.0447 28.9871 12.0922C29.0191 12.1397 29.0553 12.1837 29.0956 12.2245C29.1364 12.2648 29.1803 12.3009 29.2279 12.333C29.2754 12.3645 29.326 12.3919 29.3787 12.4136C29.432 12.4353 29.4867 12.4518 29.5425 12.4632C29.5988 12.4745 29.6557 12.4797 29.713 12.4802Z" fill="#F96B09"/>
<path d="M29.713 14.225C29.6557 14.225 29.5988 14.2307 29.5425 14.2421C29.4867 14.2529 29.432 14.2695 29.3787 14.2917C29.326 14.3134 29.2754 14.3403 29.2279 14.3723C29.1803 14.4038 29.1364 14.44 29.0956 14.4808C29.0553 14.5211 29.0191 14.565 28.9871 14.6131C28.9551 14.6606 28.9282 14.7107 28.9065 14.7639C28.8843 14.8166 28.8677 14.8714 28.8569 14.9272C28.8455 14.9835 28.8398 15.0403 28.8398 15.0977V15.9704C28.8398 16.0277 28.8455 16.084 28.8569 16.1403C28.8677 16.1967 28.8843 16.2514 28.9065 16.3041C28.9282 16.3568 28.9551 16.4075 28.9871 16.455C29.0191 16.5025 29.0553 16.5464 29.0956 16.5873C29.1364 16.6276 29.1803 16.6637 29.2279 16.6958C29.2754 16.7273 29.326 16.7542 29.3787 16.7764C29.432 16.7981 29.4867 16.8146 29.5425 16.826C29.5988 16.8373 29.6557 16.8425 29.713 16.8425C29.7704 16.8425 29.8272 16.8373 29.8835 16.826C29.9398 16.8146 29.9941 16.7981 30.0473 16.7764C30.1 16.7542 30.1506 16.7273 30.1982 16.6958C30.2457 16.6637 30.2901 16.6276 30.3304 16.5873C30.3713 16.5464 30.4074 16.5025 30.4389 16.455C30.471 16.4075 30.4978 16.3568 30.5195 16.3041C30.5418 16.2514 30.5583 16.1967 30.5697 16.1403C30.5805 16.084 30.5862 16.0277 30.5862 15.9704V15.0977C30.5862 15.0403 30.5805 14.9835 30.5697 14.9272C30.5583 14.8714 30.5418 14.8166 30.5195 14.7639C30.4978 14.7107 30.471 14.6606 30.4389 14.6131C30.4074 14.565 30.3713 14.5211 30.3304 14.4808C30.2901 14.44 30.2457 14.4038 30.1982 14.3723C30.1506 14.3403 30.1 14.3134 30.0473 14.2917C29.9941 14.2695 29.9398 14.2529 29.8835 14.2421C29.8272 14.2307 29.7704 14.225 29.713 14.225Z" fill="#F96B09"/>
<path d="M27.0939 14.225H27.9671C28.0244 14.225 28.0812 14.2193 28.1376 14.2085C28.1939 14.1971 28.2481 14.1806 28.3013 14.1589C28.354 14.1367 28.4047 14.1098 28.4522 14.0778C28.4997 14.0463 28.5442 14.0101 28.5845 13.9693C28.6253 13.929 28.6615 13.8851 28.693 13.8375C28.725 13.7895 28.7519 13.7394 28.7736 13.6867C28.7958 13.6334 28.8123 13.5792 28.8237 13.5229C28.8346 13.4666 28.8402 13.4097 28.8402 13.3524C28.8402 13.295 28.8346 13.2387 28.8237 13.1824C28.8123 13.1261 28.7958 13.0713 28.7736 13.0186C28.7519 12.9659 28.725 12.9153 28.693 12.8677C28.6615 12.8202 28.6253 12.7763 28.5845 12.7355C28.5442 12.6952 28.4997 12.659 28.4522 12.627C28.4047 12.5954 28.354 12.5681 28.3013 12.5464C28.2481 12.5247 28.1939 12.5081 28.1376 12.4968C28.0812 12.4854 28.0244 12.4802 27.9671 12.4802H27.0939C27.0365 12.4802 26.9797 12.4854 26.9234 12.4968C26.8676 12.5081 26.8128 12.5247 26.7596 12.5464C26.7069 12.5681 26.6563 12.5954 26.6087 12.627C26.5612 12.659 26.5173 12.6952 26.4765 12.7355C26.4362 12.7763 26.4 12.8202 26.368 12.8677C26.3359 12.9153 26.3091 12.9659 26.2874 13.0186C26.2651 13.0713 26.2486 13.1261 26.2378 13.1824C26.2264 13.2387 26.2207 13.295 26.2207 13.3524C26.2207 13.4097 26.2264 13.4666 26.2378 13.5229C26.2486 13.5792 26.2651 13.6334 26.2874 13.6867C26.3091 13.7394 26.3359 13.7895 26.368 13.8375C26.4 13.8851 26.4362 13.929 26.4765 13.9693C26.5173 14.0101 26.5612 14.0463 26.6087 14.0778C26.6563 14.1098 26.7069 14.1367 26.7596 14.1589C26.8128 14.1806 26.8676 14.1971 26.9234 14.2085C26.9797 14.2193 27.0365 14.225 27.0939 14.225Z" fill="#F96B09"/>
<path d="M31.4596 14.225H32.3328C32.3901 14.225 32.447 14.2193 32.5033 14.2085C32.5596 14.1971 32.6139 14.1806 32.6671 14.1589C32.7198 14.1367 32.7704 14.1098 32.8179 14.0778C32.8655 14.0463 32.9099 14.0101 32.9502 13.9693C32.991 13.929 33.0272 13.8851 33.0587 13.8375C33.0907 13.7895 33.1176 13.7394 33.1393 13.6867C33.1615 13.6334 33.1781 13.5792 33.1894 13.5229C33.2003 13.4666 33.206 13.4097 33.206 13.3524C33.206 13.295 33.2003 13.2387 33.1894 13.1824C33.1781 13.1261 33.1615 13.0713 33.1393 13.0186C33.1176 12.9659 33.0907 12.9153 33.0587 12.8677C33.0272 12.8202 32.991 12.7763 32.9502 12.7355C32.9099 12.6952 32.8655 12.659 32.8179 12.627C32.7704 12.5954 32.7198 12.5681 32.6671 12.5464C32.6139 12.5247 32.5596 12.5081 32.5033 12.4968C32.447 12.4854 32.3901 12.4802 32.3328 12.4802H31.4596C31.4023 12.4802 31.3454 12.4854 31.2891 12.4968C31.2333 12.5081 31.1785 12.5247 31.1253 12.5464C31.0726 12.5681 31.022 12.5954 30.9744 12.627C30.9269 12.659 30.883 12.6952 30.8422 12.7355C30.8019 12.7763 30.7657 12.8202 30.7337 12.8677C30.7016 12.9153 30.6748 12.9659 30.6531 13.0186C30.6309 13.0713 30.6143 13.1261 30.6035 13.1824C30.5921 13.2387 30.5864 13.295 30.5864 13.3524C30.5864 13.4097 30.5921 13.4666 30.6035 13.5229C30.6143 13.5792 30.6309 13.6334 30.6531 13.6867C30.6748 13.7394 30.7016 13.7895 30.7337 13.8375C30.7657 13.8851 30.8019 13.929 30.8422 13.9693C30.883 14.0101 30.9269 14.0463 30.9744 14.0778C31.022 14.1098 31.0726 14.1367 31.1253 14.1589C31.1785 14.1806 31.2333 14.1971 31.2891 14.2085C31.3454 14.2193 31.4023 14.225 31.4596 14.225Z" fill="#F96B09"/>
<path d="M9.63014 15.3421C9.46533 15.3421 9.09642 15.5405 8.82775 15.6846C8.52653 15.8577 8.21188 16.0008 7.88379 16.115V19.5752L9.1455 18.7346C9.21732 18.6865 9.29431 18.6498 9.37697 18.625C9.45964 18.5997 9.54386 18.5873 9.63014 18.5873C9.71643 18.5873 9.80065 18.5997 9.88331 18.625C9.96546 18.6498 10.043 18.6865 10.1143 18.7346L11.3765 19.5752V16.1078C11.0489 15.9962 10.7338 15.8551 10.4325 15.6846C10.1639 15.5405 9.79496 15.3421 9.63014 15.3421Z" fill="#F96B09"/>
<path d="M2.58695 7.88443C2.97084 8.24817 3.40433 8.66099 3.58258 9.20866C3.766 9.77339 3.65698 10.3758 3.56088 10.907C3.51335 11.1705 3.43378 11.6102 3.48183 11.7378C3.56295 11.7889 4.01194 11.8494 4.28061 11.885C4.81381 11.9568 5.41729 12.038 5.89469 12.3847C6.36745 12.7288 6.62837 13.2744 6.85829 13.7549C6.97609 14.0018 7.17397 14.4152 7.29178 14.4891C7.38271 14.4798 7.77022 14.2721 8.00117 14.1481C8.48116 13.8902 9.02573 13.5973 9.63075 13.5973C10.2353 13.5973 10.7798 13.8902 11.2603 14.1481C11.4892 14.271 11.8716 14.4761 12.009 14.4761H12.0121C12.087 14.4152 12.2849 14.0018 12.4037 13.7549C12.6326 13.2744 12.8941 12.7288 13.3642 12.3852C13.8427 12.0374 14.4461 11.9568 14.9794 11.8861C15.248 11.8494 15.6975 11.7889 15.805 11.7021C15.8267 11.6102 15.7476 11.1705 15.7001 10.907C15.604 10.3758 15.4945 9.77339 15.6784 9.20866C15.8567 8.66099 16.2907 8.24868 16.674 7.88443C16.8637 7.70463 17.2155 7.37086 17.2455 7.23342C17.2155 7.1182 16.8637 6.78443 16.674 6.60463C16.2907 6.24089 15.8567 5.82859 15.6784 5.2804C15.495 4.71567 15.604 4.11323 15.7001 3.58209C15.7476 3.31911 15.8272 2.87942 15.7792 2.75128C15.6986 2.70013 15.2491 2.63968 14.9804 2.60403C14.4477 2.53221 13.8437 2.45161 13.3663 2.10493C12.8941 1.7603 12.6326 1.21521 12.4027 0.734709C12.2849 0.487223 12.087 0.0738843 11.9692 0C11.8783 0.00930018 11.4913 0.217519 11.2598 0.341004C10.7798 0.598824 10.2353 0.892294 9.63075 0.892294C9.02573 0.892294 8.48064 0.598824 8.00065 0.340488C7.77177 0.218036 7.38943 0.0124002 7.25199 0.0124002H7.24838C7.17346 0.0738843 6.97557 0.487223 6.85725 0.734192C6.62785 1.2147 6.36693 1.76031 5.89676 2.10338C5.41832 2.4511 4.81485 2.53221 4.28112 2.603C4.01297 2.63968 3.56346 2.70013 3.456 2.78693C3.43378 2.8789 3.51283 3.31859 3.56088 3.58209C3.65698 4.11272 3.76652 4.71516 3.58258 5.2804C3.40433 5.82807 2.97032 6.23986 2.58644 6.60411C2.4025 6.77875 2.06408 7.10115 2.01758 7.24427C2.06408 7.38791 2.4025 7.70979 2.58695 7.88443ZM9.63024 2.882C9.77336 2.882 9.91596 2.88872 10.058 2.90267C10.2006 2.91714 10.3417 2.9378 10.4817 2.9657C10.6223 2.9936 10.7607 3.02822 10.8976 3.06955C11.0346 3.11141 11.1689 3.15946 11.3012 3.21422C11.4329 3.26847 11.5621 3.32944 11.6881 3.39713C11.8142 3.46429 11.9367 3.53766 12.056 3.61723C12.1749 3.69628 12.2896 3.78153 12.4001 3.87195C12.5107 3.96288 12.6161 4.05847 12.7174 4.15973C12.8186 4.26049 12.9142 4.3664 13.0051 4.47697C13.0956 4.58754 13.1808 4.70224 13.2604 4.82108C13.34 4.93939 13.4133 5.06185 13.4805 5.18791C13.5482 5.31398 13.6091 5.44315 13.6639 5.5749C13.7187 5.70717 13.7667 5.84151 13.8081 5.97842C13.8494 6.11483 13.8845 6.25329 13.9124 6.39331C13.9403 6.53385 13.961 6.6749 13.9749 6.81698C13.9889 6.95907 13.9961 7.10167 13.9961 7.24479C13.9961 7.38739 13.9889 7.52999 13.9749 7.67208C13.961 7.81468 13.9403 7.95573 13.9124 8.09575C13.8845 8.23577 13.8494 8.37424 13.8081 8.51116C13.7667 8.64807 13.7187 8.78241 13.6639 8.91416C13.6091 9.04643 13.5482 9.17508 13.4805 9.30115C13.4133 9.42722 13.34 9.54967 13.2604 9.6685C13.1808 9.78734 13.0956 9.90204 13.0051 10.0126C12.9142 10.1227 12.8186 10.2286 12.7174 10.3298C12.6161 10.4306 12.5107 10.5267 12.4001 10.6171C12.2896 10.7075 12.1749 10.7928 12.056 10.8724C11.9367 10.9514 11.8142 11.0248 11.6881 11.0925C11.5621 11.1596 11.4329 11.2206 11.3012 11.2754C11.1689 11.3301 11.0346 11.3782 10.8976 11.4195C10.7607 11.4608 10.6223 11.496 10.4817 11.5234C10.3417 11.5513 10.2006 11.5724 10.058 11.5864C9.91596 11.6003 9.77336 11.6076 9.63024 11.6076C9.48712 11.6076 9.34452 11.6003 9.20243 11.5864C9.05983 11.5724 8.91878 11.5513 8.77824 11.5234C8.63823 11.496 8.49976 11.4608 8.36284 11.4195C8.22592 11.3782 8.09159 11.3301 7.95932 11.2754C7.82757 11.2206 7.6984 11.1596 7.57233 11.0925C7.44626 11.0248 7.32329 10.9514 7.20446 10.8724C7.08562 10.7928 6.97092 10.7075 6.86035 10.6171C6.74979 10.5267 6.64438 10.4306 6.54312 10.3298C6.44185 10.2286 6.34626 10.1227 6.25533 10.0126C6.1644 9.90204 6.07966 9.78734 6.00009 9.6685C5.92053 9.54967 5.84716 9.42722 5.77999 9.30115C5.71231 9.17508 5.65134 9.04643 5.59657 8.91416C5.5418 8.78241 5.49375 8.64807 5.45242 8.51116C5.41057 8.37424 5.37595 8.23577 5.34805 8.09575C5.32015 7.95573 5.29949 7.81468 5.28554 7.67208C5.27107 7.52999 5.26435 7.38739 5.26435 7.24479C5.26435 7.10167 5.27107 6.95907 5.28554 6.81698C5.29949 6.6749 5.32015 6.53385 5.34805 6.39331C5.37595 6.25329 5.41057 6.11483 5.45242 5.97842C5.49375 5.84151 5.5418 5.70717 5.59657 5.5749C5.65134 5.44315 5.71231 5.31398 5.77999 5.18791C5.84716 5.06185 5.92053 4.93939 6.00009 4.82108C6.07966 4.70224 6.1644 4.58754 6.25533 4.47697C6.34626 4.3664 6.44185 4.26049 6.54312 4.15973C6.64438 4.05847 6.74979 3.96288 6.86035 3.87195C6.97092 3.78153 7.08562 3.69628 7.20446 3.61723C7.32329 3.53766 7.44626 3.46429 7.57233 3.39713C7.6984 3.32944 7.82757 3.26847 7.95932 3.21422C8.09159 3.15946 8.22592 3.11141 8.36284 3.06955C8.49976 3.02822 8.63823 2.9936 8.77824 2.9657C8.91878 2.9378 9.05983 2.91714 9.20243 2.90267C9.34452 2.88872 9.48712 2.882 9.63024 2.882Z" fill="#F96B09"/>
</svg>
