<svg width="12" height="13" viewBox="0 0 12 13" fill="none" xmlns="http://www.w3.org/2000/svg">
<path d="M4.52687 4.46967C4.42568 4.24083 4.33848 4.03138 4.26649 3.83057M6.1653 3.00646C5.95262 2.6863 5.75335 2.44007 5.53663 2.23281M10.038 4.46967C10.1391 4.24083 10.2263 4.03138 10.2983 3.83057M8.39952 3.00646C8.6122 2.6863 8.81147 2.44007 9.02819 2.23281M5.53663 2.23281C5.17502 1.88697 4.76485 1.64961 4.16277 1.35825C3.93991 2.44195 3.99568 3.07518 4.26649 3.83057M5.53663 2.23281C6.81072 1.68803 7.57611 1.69347 9.02819 2.23281M9.02819 2.23281C9.3898 1.88697 9.79998 1.64961 10.4021 1.35825C10.6249 2.44195 10.5691 3.07518 10.2983 3.83057M4.26649 3.83057C3.78871 5.49849 4.26035 6.6287 5.12266 7.26712M10.2983 3.83057C11.6512 7.45645 7.22541 8.82392 5.12266 7.26712M5.12266 7.26712C4.68006 7.99118 4.54708 8.39507 4.52687 9.11158C4.39007 9.13457 4.26892 9.1647 4.16277 9.20299M3.60162 10.4402C3.67608 10.8863 3.86989 11.464 4.16277 12.2062H10.4021C10.6949 11.464 10.8887 10.8863 10.9632 10.4402C11.0765 9.76131 10.9133 9.38742 10.4021 9.20299C10.2959 9.1647 10.1748 9.13457 10.038 9.11158C10.0177 8.39507 9.88476 7.99118 9.44216 7.26712M3.60162 10.4402C2.06095 10.1039 3.1654 8.44877 1.56445 7.26712C3.10454 7.14126 3.75877 7.42189 4.16277 9.20299M3.60162 10.4402C3.48829 9.76131 3.65149 9.38742 4.16277 9.20299M5.38746 10.4402V12.2062M6.67834 10.4402V12.2062M7.82028 10.4402V12.2062M9.12772 10.4402V12.2062" stroke="#F96B0A"/>
</svg>
