<svg width="16" height="14" viewBox="0 0 16 14" fill="none" xmlns="http://www.w3.org/2000/svg">
<path d="M10.712 4.45597L10.3268 3.70027M10.3268 3.70027L9.40216 1.8866C8.84209 2.53545 8.70518 3.12336 9.40216 5.3628C8.66494 5.23495 8.43785 5.58493 8.19305 6.57192M10.3268 3.70027C11.3919 3.67849 11.8051 3.76263 12.2738 4.05293H14.692C15.0607 4.27561 15.1648 4.44365 15.1958 4.80862C14.676 6.97734 13.72 7.63872 12.2738 7.57996M8.19305 6.57192C9.84143 7.09092 11.1942 7.5361 12.2738 7.57996M8.19305 6.57192C4.74151 6.19401 3.20499 6.57203 2.43681 7.57996M12.2738 7.57996C12.3247 9.11685 12.1576 9.81428 11.3166 10.6023V12.7686M1.29102 12.3656C1.66881 10.2248 1.66886 8.5876 2.43681 7.57996M2.70165 5.16128C1.84606 5.8319 1.94779 6.41963 2.43681 7.57996M3.70925 10.3C3.53231 11.1105 3.38395 11.5193 2.70165 11.8618C3.04404 12.6481 3.26225 12.938 3.70925 13.1213M5.22064 10.3V11.0053M6.53051 10.3V11.0053M8.19305 10.3L9.20064 13.1213H9.85558" stroke="white"/>
</svg>
