<svg width="245" height="351" viewBox="0 0 245 351" fill="none" xmlns="http://www.w3.org/2000/svg">
<ellipse rx="31.9408" ry="52.514" transform="matrix(-0.81852 -0.574478 -0.574478 0.81852 11.8762 96.9822)" fill="#F96B0A"/>
<ellipse rx="31.9408" ry="52.514" transform="matrix(-0.842171 -0.53921 -0.53921 0.842171 97.9435 93.3344)" fill="#F96B0A"/>
<ellipse rx="31.9408" ry="52.514" transform="matrix(-0.533877 -0.845562 -0.845562 0.533877 148.677 146.53)" fill="#F96B0A"/>
<ellipse rx="31.9408" ry="52.514" transform="matrix(-0.533877 -0.845562 -0.845562 0.533877 138.018 228.799)" fill="#F96B0A"/>
<path d="M85.4517 156.957C64.3205 130.208 -52.0379 148.783 -62.245 188.456C-73.6825 232.91 -40.5805 230.739 -16.4825 253.24C9.80694 277.787 -5.85712 321.302 52.7815 307.888C74.2659 302.974 106.583 183.707 85.4517 156.957Z" fill="#F96B0A"/>
</svg>
