<svg width="51" height="50" viewBox="0 0 51 50" fill="none" xmlns="http://www.w3.org/2000/svg">
<path d="M50.198 47.0105C50.198 47.1087 50.1928 47.2063 50.183 47.304C50.1732 47.4016 50.1587 47.4988 50.1391 47.5949C50.1199 47.691 50.0962 47.7855 50.0672 47.8796C50.0388 47.9731 50.0052 48.0656 49.9675 48.156C49.9298 48.2464 49.888 48.3348 49.8415 48.4216C49.795 48.5078 49.7448 48.5915 49.6901 48.6732C49.6353 48.7548 49.5769 48.8333 49.5144 48.9088C49.4524 48.9847 49.3863 49.0571 49.317 49.1263C49.2473 49.1955 49.175 49.2612 49.099 49.3232C49.0231 49.3852 48.9445 49.4435 48.8629 49.4978C48.7812 49.552 48.697 49.6022 48.6102 49.6487C48.5239 49.6946 48.4351 49.7365 48.3447 49.7737C48.2542 49.8109 48.1618 49.844 48.0677 49.8724C47.9742 49.9008 47.8791 49.9246 47.783 49.9432C47.6864 49.9623 47.5898 49.9767 47.4921 49.986C47.3945 49.9953 47.2968 50 47.1987 50H2.99938C2.90121 50 2.80356 49.9953 2.70591 49.986C2.60826 49.9767 2.51164 49.9623 2.41502 49.9437C2.31892 49.9246 2.22385 49.9008 2.13033 49.8724C2.0363 49.844 1.94382 49.8114 1.8534 49.7742C1.76246 49.7365 1.67411 49.6946 1.58731 49.6487C1.50103 49.6027 1.41681 49.5526 1.33517 49.4983C1.25354 49.4435 1.17501 49.3857 1.09905 49.3237C1.0231 49.2612 0.950253 49.1955 0.881019 49.1263C0.811268 49.0571 0.745651 48.9847 0.683133 48.9093C0.620616 48.8333 0.562232 48.7548 0.507465 48.6732C0.453214 48.5921 0.40258 48.5078 0.356079 48.4216C0.309579 48.3353 0.267728 48.2469 0.230011 48.156C0.192294 48.0656 0.159227 47.9736 0.13081 47.8796C0.101876 47.7861 0.0781094 47.691 0.0584758 47.5949C0.0393589 47.4988 0.024892 47.4016 0.0150753 47.304C0.00525846 47.2063 9.17665e-05 47.1087 9.17665e-05 47.0105C-0.00145815 46.8132 0.0166253 46.6173 0.0543424 46.4236C0.0920596 46.2298 0.148894 46.0412 0.224328 45.8589C0.300279 45.6765 0.39328 45.5034 0.503331 45.3396C0.613899 45.1758 0.739451 45.0244 0.879986 44.886C1.01949 44.7465 1.17087 44.6225 1.33414 44.5134C1.49793 44.4044 1.6705 44.3119 1.85236 44.237C2.03423 44.1621 2.22179 44.1053 2.41502 44.0676C2.60774 44.0293 2.80253 44.0102 2.99938 44.0107H47.1987C47.2968 44.0107 47.395 44.0159 47.4927 44.0252C47.5903 44.035 47.6875 44.0495 47.7841 44.0686C47.8802 44.0877 47.9752 44.1115 48.0693 44.1404C48.1633 44.1688 48.2558 44.2019 48.3467 44.2396C48.4371 44.2773 48.526 44.3192 48.6128 44.3652C48.6991 44.4117 48.7833 44.4623 48.8649 44.5165C48.9466 44.5713 49.0256 44.6297 49.1016 44.6922C49.1775 44.7542 49.2504 44.8203 49.3196 44.8896C49.3889 44.9593 49.455 45.0322 49.5175 45.1081C49.5795 45.1841 49.6379 45.2626 49.6927 45.3443C49.7474 45.4259 49.7975 45.5101 49.844 45.5969C49.89 45.6837 49.9324 45.7721 49.9696 45.863C50.0073 45.9534 50.0404 46.0459 50.0688 46.1399C50.0972 46.234 50.1215 46.329 50.1406 46.4257C50.1597 46.5218 50.1742 46.6189 50.1835 46.7165C50.1933 46.8142 50.198 46.9124 50.198 47.0105Z" fill="#F96B09"/>
<path d="M12.8573 13.5802C10.3101 13.5802 8.23828 12.0447 8.23828 10.1578C8.23828 10.0653 8.23828 9.99555 8.24551 9.91754C8.26773 8.4507 8.54777 7.0345 9.08717 5.66997L11.1906 0.327054C11.2102 0.279003 11.236 0.23457 11.2691 0.193752C11.3016 0.153452 11.3394 0.118318 11.3828 0.0893844C11.4262 0.0599341 11.4727 0.0377172 11.5223 0.0227336C11.5719 0.00775013 11.623 0 11.6752 0H18.4131C18.4519 0 18.4896 0.00413328 18.5273 0.0129168C18.5645 0.0211836 18.6007 0.0335837 18.6358 0.0501173C18.6704 0.0666508 18.703 0.0862844 18.7335 0.110051C18.7634 0.133818 18.7908 0.160169 18.8156 0.190136C18.8399 0.219586 18.8606 0.25162 18.8781 0.286237C18.8952 0.320337 18.9086 0.356504 18.9179 0.393705C18.9277 0.430905 18.9329 0.468622 18.9339 0.507373C18.935 0.545607 18.9313 0.58384 18.9241 0.621558L17.6691 6.99058C17.5399 7.64883 17.4759 8.31327 17.4759 8.98391V10.1557C17.4759 12.0772 15.4474 13.5802 12.8573 13.5802ZM12.0301 1.03903L10.0559 6.05231C9.55993 7.3104 9.30314 8.61552 9.28506 9.96765C9.27938 10.0503 9.27989 10.0942 9.27989 10.1423C9.27989 11.4484 10.9177 12.5381 12.8573 12.5381C14.8295 12.5381 16.4343 11.4701 16.4343 10.1573V8.98133C16.4343 8.243 16.5056 7.51139 16.6476 6.7865L17.7802 1.03903H12.0301Z" fill="#F96B09"/>
<path d="M29.2435 13.5802C26.6969 13.5802 24.625 12.0447 24.625 10.1578V0.520806C24.625 0.451572 24.6379 0.385438 24.6648 0.321371C24.6911 0.25782 24.7289 0.201502 24.7774 0.152419C24.8265 0.103851 24.8828 0.0661342 24.9464 0.0397838C25.0104 0.0134336 25.0766 0 25.1458 0H31.8837C31.9442 0 32.0026 0.0103334 32.0594 0.0304837C32.1162 0.0511506 32.1679 0.0800844 32.2144 0.118318C32.2609 0.156552 32.2997 0.201502 32.3307 0.253686C32.3617 0.305354 32.3828 0.360638 32.3947 0.420055L33.4203 5.63328L33.6843 7.30317C33.7133 7.50261 33.7365 7.69998 33.751 7.89166C33.766 8.08335 33.7887 8.2678 33.7996 8.46465L33.8626 9.89532V10.1557C33.8543 10.4042 33.8161 10.6481 33.7484 10.8873C33.6802 11.1266 33.5846 11.3539 33.4611 11.5693C33.3382 11.7853 33.1904 11.9832 33.0189 12.163C32.8468 12.3428 32.6562 12.4988 32.4464 12.6321C31.9736 12.9509 31.4642 13.1912 30.9181 13.3529C30.3714 13.5146 29.8134 13.59 29.2435 13.5802ZM25.6666 1.03903V10.1557C25.6666 11.4464 27.3045 12.5366 29.2435 12.5366C29.7054 12.5469 30.1575 12.488 30.6008 12.3593C31.0441 12.2307 31.458 12.039 31.8424 11.7832C31.9835 11.6975 32.1126 11.5957 32.2289 11.4784C32.3456 11.3611 32.4469 11.232 32.5322 11.0899C32.6174 10.9483 32.6841 10.7985 32.7331 10.6404C32.7822 10.4823 32.8117 10.3211 32.821 10.1557L32.8008 9.13168L32.76 8.52407C32.7497 8.34013 32.7347 8.16757 32.7156 7.98931C32.6959 7.81106 32.6789 7.62454 32.6546 7.45352L32.3942 5.8105L31.457 1.03696L25.6666 1.03903Z" fill="#F96B09"/>
<path d="M25.6665 0.520806V10.1609C25.6665 12.0777 23.6407 13.5828 21.0526 13.5828C18.5065 13.5828 16.4336 12.0462 16.4336 10.1609V8.98391C16.4341 8.2461 16.5049 7.51552 16.6475 6.79115L17.9025 0.422122C17.9139 0.362704 17.935 0.306904 17.9655 0.255236C17.9965 0.203052 18.0353 0.158102 18.0818 0.119351C18.1283 0.0811176 18.1799 0.0516673 18.2368 0.0310004C18.2936 0.0103335 18.352 0 18.4125 0H25.1457C25.2144 0 25.2811 0.0134336 25.3447 0.0397838C25.4087 0.0661342 25.465 0.103851 25.5136 0.152418C25.5627 0.201502 25.6004 0.25782 25.6268 0.321371C25.6531 0.385438 25.6665 0.451572 25.6665 0.520806Z" fill="#F96B09"/>
<path d="M42.054 9.41895V10.1583C42.054 12.0752 40.0287 13.5802 37.4407 13.5802C34.8945 13.5802 32.8216 12.0436 32.8216 10.1583L32.8009 9.13219L32.7591 8.5282C32.7488 8.34065 32.7333 8.16912 32.7178 7.9919C32.7023 7.80434 32.6811 7.62713 32.6552 7.45559L32.3948 5.81464L31.3744 0.617424C31.3672 0.579707 31.3641 0.54199 31.3656 0.503756C31.3667 0.465522 31.3723 0.427805 31.3816 0.390605C31.3915 0.353921 31.4049 0.31827 31.4219 0.28417C31.4395 0.25007 31.4602 0.218553 31.4845 0.189102C31.5087 0.159652 31.5361 0.133302 31.5666 0.109535C31.5966 0.0862844 31.6291 0.066134 31.6637 0.0501173C31.6978 0.0335837 31.734 0.0211836 31.7712 0.0129168C31.8084 0.00465006 31.8461 0 31.8844 0H38.6228C38.675 0 38.7256 0.00775013 38.7757 0.0227336C38.8253 0.0382339 38.8718 0.0604506 38.9152 0.0899011C38.9586 0.118835 38.9964 0.153968 39.0289 0.194786C39.0615 0.235086 39.0878 0.27952 39.1069 0.328087L41.4712 6.34371C41.8613 7.33159 42.0561 8.35667 42.054 9.41895Z" fill="#F96B09"/>
<path d="M12.1065 0.226829C12.1541 0.298647 12.1825 0.377181 12.1913 0.462432C12.2006 0.5482 12.1897 0.630867 12.1587 0.710952L10.0548 6.05438C9.56089 7.31145 9.3041 8.61501 9.28447 9.9656C9.2793 10.0488 9.2793 10.0958 9.2793 10.1428C9.2793 12.0752 7.25343 13.5802 4.66542 13.5802C4.58533 13.5818 4.50576 13.5787 4.4262 13.5699C1.98388 13.4965 0.0468769 11.9966 0.0468769 10.1583C0.0463603 9.37969 0.148661 8.61501 0.353781 7.86377C0.558383 7.11253 0.859087 6.4021 1.25486 5.73146L3.92606 1.20076C4.03559 1.01786 4.16683 0.85252 4.31924 0.703718C4.47166 0.554916 4.64062 0.428331 4.82558 0.32293C5.01107 0.218046 5.20637 0.137961 5.41201 0.083194C5.61816 0.0284266 5.82741 0.0010431 6.04028 9.68841e-06H11.6746C11.7609 -0.000506951 11.8425 0.0196433 11.919 0.0594271C11.9955 0.0997276 12.058 0.155528 12.1065 0.226829Z" fill="#F96B09"/>
<path d="M45.6307 13.5802C43.0841 13.5802 41.0122 12.0447 41.0122 10.1578V9.41843C41.0148 8.4879 40.8448 7.59044 40.5022 6.72553L38.1374 0.708875C38.1224 0.669608 38.1121 0.628791 38.1069 0.58694C38.1013 0.54509 38.1013 0.503239 38.1059 0.460872C38.1111 0.419022 38.1209 0.378205 38.1354 0.338937C38.1503 0.299154 38.1695 0.261953 38.1932 0.226819C38.217 0.192202 38.2449 0.160685 38.2764 0.132268C38.3079 0.104368 38.342 0.080601 38.3797 0.0604507C38.4169 0.0408172 38.4562 0.0258336 38.497 0.0155002C38.5378 0.00516673 38.5797 0 38.6221 0H44.2579C44.4708 0.000516772 44.6801 0.0279004 44.8862 0.082151C45.0924 0.136918 45.2877 0.217003 45.4726 0.322404C45.6581 0.427805 45.8265 0.554907 45.979 0.704225C46.1309 0.853544 46.2616 1.0194 46.3706 1.20281L49.0439 5.73352C49.4381 6.40468 49.7378 7.11562 49.9424 7.86634C50.147 8.61759 50.2498 9.38226 50.2508 10.1604C50.2426 10.4089 50.2043 10.6528 50.1366 10.892C50.0684 11.1307 49.9728 11.3585 49.8494 11.574C49.7264 11.79 49.5786 11.9873 49.4071 12.1671C49.235 12.3469 49.0444 12.5035 48.8346 12.6363C48.381 12.9437 47.8927 13.1772 47.3688 13.3374C46.8454 13.4976 46.3096 13.5771 45.762 13.5766C45.7186 13.5802 45.6746 13.5813 45.6307 13.5802ZM39.3862 1.03903L41.4694 6.34268C41.8606 7.33055 42.0548 8.35563 42.0517 9.41843V10.1557C42.0517 11.4464 43.6901 12.5366 45.6292 12.5366C45.6591 12.5319 45.6886 12.5303 45.7186 12.5309C46.165 12.5355 46.6021 12.474 47.0299 12.3464C47.4577 12.2193 47.8571 12.0312 48.2286 11.7827C48.3696 11.697 48.4988 11.5957 48.6156 11.4784C48.7323 11.3611 48.8331 11.2314 48.9188 11.0899C49.0041 10.9483 49.0713 10.7985 49.1203 10.6404C49.1689 10.4823 49.1984 10.3211 49.2082 10.1557C49.2077 9.47061 49.1167 8.79739 48.9364 8.13605C48.7561 7.47471 48.4921 6.84902 48.1449 6.25794L45.4721 1.73085C45.4096 1.62545 45.3347 1.52935 45.2474 1.44358C45.16 1.3573 45.0629 1.28393 44.9565 1.22348C44.85 1.16251 44.7379 1.11601 44.6191 1.0845C44.5008 1.05298 44.3804 1.03696 44.2579 1.03696L39.3862 1.03903Z" fill="#F96B09"/>
<path d="M45.7251 45.0498H4.47295C4.40424 45.0498 4.33759 45.0368 4.27404 45.01C4.20997 44.9836 4.15365 44.9459 4.10508 44.8973C4.056 44.8483 4.01828 44.7919 3.99193 44.7284C3.96558 44.6643 3.95215 44.5982 3.95215 44.5289V13.0538C3.95267 12.9804 3.96713 12.9106 3.99658 12.8435C4.02655 12.7768 4.06788 12.7184 4.12213 12.6694C4.17587 12.6192 4.23735 12.5826 4.30659 12.5593C4.37582 12.5361 4.44712 12.5278 4.51997 12.535C4.56699 12.5386 4.61349 12.5386 4.66567 12.5386C6.63575 12.5386 8.23795 11.4707 8.23795 10.1578C8.23795 10.0886 8.25138 10.0224 8.27773 9.95837C8.30408 9.89482 8.3418 9.8385 8.39037 9.78942C8.43945 9.74085 8.49577 9.70313 8.55932 9.67678C8.62339 9.65043 8.68952 9.637 8.75876 9.637C8.82747 9.637 8.89412 9.65043 8.95819 9.67678C9.02174 9.70313 9.07806 9.74085 9.12714 9.78942C9.17571 9.8385 9.21343 9.89482 9.23978 9.95837C9.26613 10.0224 9.27956 10.0886 9.27956 10.1578C9.27956 11.4485 10.9174 12.5386 12.857 12.5386C14.8291 12.5386 16.4339 11.4707 16.4339 10.1578C16.4339 10.0886 16.4474 10.0224 16.4737 9.95837C16.5001 9.89482 16.5378 9.8385 16.5869 9.78942C16.6354 9.74085 16.6918 9.70313 16.7558 9.67678C16.8194 9.65043 16.886 9.637 16.9547 9.637C17.024 9.637 17.0906 9.65043 17.1542 9.67678C17.2177 9.70313 17.274 9.74085 17.3231 9.78942C17.3717 9.8385 17.4094 9.89482 17.4358 9.95837C17.4626 10.0224 17.4755 10.0886 17.4755 10.1578C17.4755 11.4485 19.1139 12.5386 21.053 12.5386C23.0231 12.5386 24.6253 11.4707 24.6253 10.1578C24.6253 10.0886 24.6382 10.0224 24.665 9.95837C24.6914 9.89482 24.7291 9.8385 24.7777 9.78942C24.8268 9.74085 24.8831 9.70313 24.9466 9.67678C25.0107 9.65043 25.0768 9.637 25.1461 9.637C25.2148 9.637 25.2814 9.65043 25.345 9.67678C25.4091 9.70313 25.4654 9.74085 25.5139 9.78942C25.563 9.8385 25.6007 9.89482 25.6271 9.95837C25.6534 10.0224 25.6669 10.0886 25.6669 10.1578C25.6669 11.4485 27.3047 12.5386 29.2438 12.5386C29.7057 12.549 30.1578 12.4901 30.6011 12.3614C31.0444 12.2333 31.4583 12.0411 31.8427 11.7853C31.9837 11.6996 32.1129 11.5978 32.2297 11.48C32.3464 11.3627 32.4472 11.233 32.5324 11.0914C32.6177 10.9493 32.6848 10.799 32.7339 10.6409C32.7825 10.4828 32.8119 10.3211 32.8212 10.1557C32.8212 10.0865 32.8347 10.0204 32.861 9.9563C32.8874 9.89275 32.9251 9.83644 32.9742 9.78735C33.0227 9.73878 33.0791 9.70107 33.1431 9.67472C33.2067 9.64837 33.2733 9.63493 33.3421 9.63493C33.4113 9.63493 33.4774 9.64837 33.5415 9.67472C33.605 9.70107 33.6614 9.73878 33.7104 9.78735C33.759 9.83644 33.7967 9.89275 33.8231 9.9563C33.8494 10.0204 33.8629 10.0865 33.8629 10.1557C33.8629 11.4464 35.5012 12.5366 37.4403 12.5366C39.4104 12.5366 41.0126 11.4686 41.0126 10.1557C41.0126 10.0865 41.0255 10.0204 41.0518 9.9563C41.0787 9.89275 41.1159 9.83644 41.165 9.78735C41.2136 9.73878 41.2699 9.70107 41.3339 9.67472C41.3975 9.64837 41.4641 9.63493 41.5334 9.63493C41.6021 9.63493 41.6688 9.64837 41.7323 9.67472C41.7964 9.70107 41.8527 9.73878 41.9013 9.78735C41.9503 9.83644 41.9881 9.89275 42.0144 9.9563C42.0408 10.0204 42.0537 10.0865 42.0537 10.1557C42.0537 11.4464 43.692 12.5366 45.6311 12.5366C45.6688 12.5299 45.7071 12.5273 45.7448 12.5288C45.783 12.5304 45.8207 12.5366 45.8574 12.5464C45.8946 12.5562 45.9298 12.5696 45.9639 12.5872C45.998 12.6053 46.0295 12.626 46.0584 12.6508C46.0879 12.675 46.1142 12.7024 46.1375 12.7329C46.1607 12.7634 46.1803 12.7959 46.1964 12.8306C46.2129 12.8652 46.2248 12.9008 46.233 12.938C46.2418 12.9757 46.246 13.0135 46.246 13.0517V44.5289C46.246 44.5982 46.2325 44.6643 46.2062 44.7284C46.1798 44.7919 46.1421 44.8483 46.093 44.8973C46.0445 44.9459 45.9881 44.9836 45.9241 45.01C45.8605 45.0368 45.7939 45.0498 45.7251 45.0498ZM4.99376 44.0081H45.2043V13.5653C44.8515 13.5549 44.5042 13.5069 44.1617 13.4216C43.8197 13.3364 43.4905 13.215 43.1743 13.0584C42.8581 12.9019 42.5626 12.7128 42.2877 12.4921C42.0123 12.2715 41.7643 12.0235 41.5427 11.7492C40.7827 12.8455 39.2487 13.5802 37.4403 13.5802C37.0512 13.5968 36.6658 13.5684 36.2835 13.495C35.9011 13.4211 35.5322 13.3049 35.1768 13.1452C34.8218 12.9861 34.4896 12.7877 34.1806 12.551C33.8716 12.3139 33.5942 12.0447 33.3477 11.7435C33.0987 12.0922 32.7985 12.3893 32.4467 12.6342C31.9739 12.9525 31.4645 13.1922 30.9178 13.3539C30.3717 13.5151 29.8137 13.5906 29.2438 13.5802C28.8558 13.5963 28.4703 13.5684 28.0885 13.495C27.7067 13.4216 27.3388 13.3059 26.9839 13.1468C26.6289 12.9876 26.2972 12.7903 25.9882 12.5541C25.6793 12.318 25.4018 12.0499 25.1554 11.7492C24.3953 12.8455 22.8608 13.5802 21.053 13.5802C20.6644 13.5963 20.2795 13.5678 19.8977 13.495C19.5159 13.4216 19.1475 13.3054 18.7925 13.1468C18.4381 12.9876 18.1059 12.7903 17.7969 12.5536C17.4885 12.3175 17.2105 12.0493 16.964 11.7486C16.203 12.845 14.6674 13.5802 12.857 13.5802C12.4685 13.5963 12.083 13.5684 11.7012 13.495C11.3199 13.4216 10.9515 13.3059 10.5966 13.1468C10.2416 12.9876 9.9099 12.7903 9.60093 12.5541C9.29196 12.318 9.01451 12.0499 8.76806 11.7492C8.54227 12.0328 8.28755 12.288 8.0039 12.5144C7.72024 12.7407 7.41541 12.9329 7.08887 13.091C6.76182 13.2485 6.42184 13.3679 6.06844 13.449C5.71452 13.5301 5.35647 13.5715 4.99376 13.572V44.0081Z" fill="#F96B09"/>
<path d="M17.377 22.5223C17.377 20.8819 18.6475 18.455 20.4072 18.455C22.1675 18.455 23.438 20.8819 23.438 22.5223C23.438 22.6215 23.4334 22.7207 23.4236 22.8194C23.4138 22.9186 23.3993 23.0168 23.3802 23.1139C23.3611 23.2115 23.3368 23.3076 23.3078 23.4027C23.2794 23.4978 23.2458 23.5913 23.2081 23.6827C23.1699 23.7747 23.1275 23.8646 23.081 23.9519C23.034 24.0398 22.9834 24.1245 22.9281 24.2072C22.8728 24.2898 22.8139 24.3694 22.7509 24.4464C22.6878 24.5234 22.6212 24.5967 22.5509 24.667C22.4812 24.7373 22.4073 24.8039 22.3308 24.867C22.2538 24.93 22.1743 24.9889 22.0916 25.0442C22.0094 25.0995 21.9242 25.1506 21.8369 25.1971C21.749 25.2441 21.6597 25.2865 21.5677 25.3247C21.4757 25.3624 21.3827 25.396 21.2876 25.425C21.1926 25.4539 21.0965 25.4777 20.9988 25.4973C20.9017 25.5164 20.8035 25.5314 20.7048 25.5407C20.6056 25.5505 20.507 25.5557 20.4072 25.5557C20.308 25.5557 20.2088 25.5505 20.1102 25.5407C20.0115 25.5314 19.9133 25.5164 19.8162 25.4973C19.7185 25.4777 19.6224 25.4539 19.5273 25.425C19.4323 25.396 19.3388 25.3624 19.2473 25.3247C19.1553 25.2865 19.066 25.2441 18.9781 25.1971C18.8908 25.1506 18.8056 25.0995 18.7229 25.0442C18.6407 24.9889 18.5607 24.93 18.4842 24.867C18.4072 24.8039 18.3338 24.7373 18.2636 24.667C18.1933 24.5967 18.1272 24.5234 18.0641 24.4464C18.0011 24.3694 17.9422 24.2898 17.8869 24.2072C17.8316 24.1245 17.7805 24.0398 17.734 23.9519C17.687 23.8646 17.6446 23.7747 17.6069 23.6827C17.5692 23.5913 17.5356 23.4978 17.5066 23.4027C17.4782 23.3076 17.4539 23.2115 17.4348 23.1139C17.4152 23.0168 17.4007 22.9186 17.3914 22.8194C17.3816 22.7207 17.377 22.6215 17.377 22.5223Z" fill="#F96B09"/>
<path d="M32.8736 22.5223C32.8736 22.6215 32.8689 22.7207 32.8591 22.8194C32.8493 22.9181 32.8348 23.0162 32.8152 23.1139C32.7961 23.211 32.7718 23.3071 32.7434 23.4022C32.7145 23.4973 32.6809 23.5908 32.6432 23.6822C32.6049 23.7742 32.5626 23.8636 32.5161 23.9514C32.469 24.0387 32.4179 24.124 32.3631 24.2061C32.3078 24.2888 32.2489 24.3684 32.1859 24.4454C32.1229 24.5218 32.0562 24.5957 31.9859 24.6655C31.9157 24.7357 31.8423 24.8024 31.7658 24.8654C31.6889 24.9284 31.6093 24.9873 31.5266 25.0426C31.4445 25.0979 31.3592 25.1485 31.2719 25.1956C31.1841 25.2426 31.0947 25.2849 31.0027 25.3227C30.9113 25.3609 30.8177 25.394 30.7227 25.4229C30.6276 25.4518 30.5315 25.4756 30.4344 25.4952C30.3367 25.5143 30.2391 25.5293 30.1399 25.5386C30.0412 25.5484 29.9425 25.5536 29.8433 25.5536C29.7436 25.5536 29.6449 25.5484 29.5462 25.5386C29.447 25.5293 29.3494 25.5143 29.2517 25.4952C29.1546 25.4756 29.0585 25.4518 28.9634 25.4229C28.8683 25.394 28.7748 25.3609 28.6834 25.3227C28.5914 25.2849 28.502 25.2426 28.4142 25.1956C28.3269 25.1485 28.2416 25.0979 28.1595 25.0426C28.0768 24.9873 27.9972 24.9284 27.9202 24.8654C27.8438 24.8024 27.7704 24.7357 27.7001 24.6655C27.6299 24.5957 27.5632 24.5218 27.5002 24.4454C27.4372 24.3684 27.3783 24.2888 27.323 24.2061C27.2682 24.124 27.2171 24.0387 27.17 23.9514C27.1235 23.8636 27.0812 23.7742 27.0429 23.6822C27.0052 23.5908 26.9716 23.4973 26.9427 23.4022C26.9143 23.3071 26.89 23.211 26.8709 23.1139C26.8513 23.0162 26.8368 22.9181 26.827 22.8194C26.8172 22.7207 26.8125 22.6215 26.8125 22.5223C26.8125 20.8819 28.083 18.455 29.8433 18.455C31.6031 18.455 32.8736 20.8844 32.8736 22.5223Z" fill="#F96B09"/>
<path d="M39.2686 29.5377C39.2686 31.1523 37.7166 32.5685 35.9459 32.5685C35.019 32.5685 33.207 31.1936 33.207 29.5377C33.207 27.8973 34.4827 25.4699 36.2378 25.4699C37.9925 25.4699 39.2686 27.8973 39.2686 29.5377Z" fill="#F96B09"/>
<path d="M32.4617 36.7691C32.4741 36.9375 32.4684 37.1059 32.4451 37.2733C32.4219 37.4407 32.3811 37.604 32.3232 37.7626C32.2653 37.9218 32.1915 38.0726 32.1016 38.2157C32.0117 38.3594 31.9078 38.4916 31.79 38.6125C31.1808 39.1855 30.2746 39.3312 29.1395 39.3312C28.6032 39.3312 28.0147 39.3002 27.3843 39.2635C26.661 39.2222 25.9108 39.1804 25.1244 39.1804C24.3385 39.1804 23.5883 39.2222 22.8593 39.2635C20.9016 39.3731 19.3496 39.4563 18.4593 38.6125C18.3415 38.4916 18.2377 38.3594 18.1478 38.2157C18.0579 38.0726 17.984 37.9218 17.9261 37.7626C17.8682 37.604 17.8274 37.4407 17.8042 37.2733C17.7809 37.1059 17.7752 36.9375 17.7876 36.7691C17.7876 33.6075 21.1099 27.4152 25.1244 27.4152C29.1395 27.4152 32.4617 33.6049 32.4617 36.7691Z" fill="#F96B09"/>
<path d="M17.0389 29.5377C17.0389 29.6369 17.0337 29.7356 17.0239 29.8343C17.0146 29.9329 16.9996 30.0311 16.9805 30.1282C16.9614 30.2259 16.9371 30.322 16.9081 30.4166C16.8797 30.5116 16.8461 30.6051 16.8079 30.6966C16.7702 30.788 16.7278 30.8779 16.6813 30.9653C16.6343 31.0526 16.5837 31.1378 16.5284 31.22C16.4731 31.3026 16.4142 31.3822 16.3512 31.4587C16.2887 31.5357 16.222 31.609 16.1517 31.6793C16.0815 31.7491 16.0081 31.8157 15.9316 31.8787C15.8552 31.9418 15.7756 32.0007 15.6929 32.056C15.6103 32.1107 15.5255 32.1619 15.4382 32.2084C15.3504 32.2554 15.261 32.2978 15.1695 32.3355C15.0776 32.3737 14.9846 32.4068 14.8895 32.4357C14.795 32.4646 14.6988 32.4884 14.6012 32.508C14.5041 32.5272 14.4059 32.5416 14.3072 32.5514C14.2085 32.5613 14.1098 32.5659 14.0106 32.5659C13.9114 32.5659 13.8128 32.5613 13.7141 32.5514C13.6154 32.5416 13.5172 32.5272 13.4201 32.508C13.3224 32.4884 13.2263 32.4646 13.1318 32.4357C13.0367 32.4068 12.9437 32.3737 12.8517 32.3355C12.7603 32.2978 12.6709 32.2554 12.5831 32.2084C12.4958 32.1619 12.411 32.1107 12.3284 32.056C12.2457 32.0007 12.1661 31.9418 12.0897 31.8787C12.0132 31.8157 11.9398 31.7491 11.8695 31.6793C11.7993 31.609 11.7326 31.5357 11.6701 31.4587C11.6071 31.3822 11.5482 31.3026 11.4929 31.22C11.4376 31.1378 11.387 31.0526 11.34 30.9653C11.2935 30.8779 11.2511 30.788 11.2129 30.6966C11.1751 30.6051 11.1416 30.5116 11.1131 30.4166C11.0842 30.322 11.0599 30.2259 11.0408 30.1282C11.0217 30.0311 11.0067 29.9329 10.9974 29.8343C10.9876 29.7356 10.9824 29.6369 10.9824 29.5377C10.9824 27.8973 12.2529 25.4699 14.0132 25.4699C15.7735 25.4699 17.0389 27.8973 17.0389 29.5377Z" fill="#F96B09"/>
</svg>
