<svg width="50" height="50" viewBox="0 0 50 50" fill="none" xmlns="http://www.w3.org/2000/svg">
<path d="M29.2067 5.88934C29.5234 5.51164 30.0866 5.46203 30.4643 5.77929C30.8425 6.09602 30.8916 6.65871 30.5749 7.03694C30.2576 7.41516 29.6944 7.46425 29.3167 7.14699C28.939 6.83026 28.8894 6.26705 29.2067 5.88934ZM31.2585 7.61047C31.5757 7.23328 32.1389 7.18316 32.5166 7.50041C32.8944 7.81715 32.944 8.38035 32.6267 8.75858C32.31 9.13629 31.7468 9.18589 31.3691 8.86864C30.9908 8.55138 30.9417 7.9887 31.2585 7.61047ZM33.3108 9.33212C33.6275 8.95441 34.1908 8.9048 34.5685 9.22206C34.9467 9.5388 34.9958 10.102 34.679 10.4797C34.3623 10.8579 33.7991 10.907 33.4209 10.5903C33.0437 10.273 32.9941 9.71034 33.3108 9.33212ZM30.2215 10.2369C31.1841 11.0445 32.2846 11.5524 33.3201 11.6666C33.8425 11.7244 34.803 11.7213 35.3626 11.0532C36.2963 9.9413 35.5182 7.68798 33.6642 6.13219C32.7011 5.32511 31.6011 4.81719 30.5656 4.703C30.4483 4.68957 30.3088 4.68027 30.1564 4.68027C29.6319 4.68027 28.9566 4.79756 28.5226 5.31581C27.5894 6.42775 28.3675 8.68159 30.2215 10.2369Z" fill="#F96B09"/>
<path d="M25.5021 20.0893C26.1185 20.0893 26.6181 20.5889 26.6181 21.2053C26.6181 21.8218 26.1185 22.3214 25.5021 22.3214C24.8856 22.3214 24.386 21.8218 24.386 21.2053C24.386 20.5889 24.8856 20.0893 25.5021 20.0893ZM28.3455 23.2158C29.1732 23.2158 29.6455 24.1609 29.1489 24.8228L28.6023 25.5513C28.8374 25.7714 29.1407 25.8928 29.4641 25.8928C29.957 25.8928 30.357 26.2928 30.357 26.7857C30.357 27.2786 29.957 27.6786 29.4641 27.6786C28.8141 27.6786 28.1946 27.4765 27.6784 27.1014C27.1622 27.4765 26.5427 27.6786 25.8927 27.6786C25.3992 27.6786 24.9998 27.2786 24.9998 26.7857C24.9998 26.2928 25.3992 25.8928 25.8927 25.8928C26.2156 25.8928 26.5194 25.7714 26.754 25.5513L26.2073 24.8228C25.7108 24.1609 26.1831 23.2158 27.0113 23.2158H28.3455ZM29.5199 20.0893C30.1363 20.0893 30.636 20.5889 30.636 21.2053C30.636 21.8218 30.1363 22.3214 29.5199 22.3214C28.9035 22.3214 28.4038 21.8218 28.4038 21.2053C28.4038 20.5889 28.9035 20.0893 29.5199 20.0893ZM23.4306 27.6522L23.0467 27.7478V28.5714C23.0467 28.6675 23.0312 28.7626 23.0012 28.8541L22.4995 30.3571H24.8324C25.8984 30.3571 26.8563 30.8273 27.511 31.5698C28.1662 30.8273 29.1236 30.3571 30.1896 30.3571H32.5219L32.0213 28.8541C31.9908 28.7626 31.9753 28.6675 31.9753 28.5714V27.6641L31.9257 27.6522C31.4477 27.5323 31.1568 27.0477 31.2762 26.5692C31.3635 26.221 31.6446 25.9724 31.9753 25.9094V24.984C31.6441 24.9204 31.3635 24.6724 31.2762 24.3236C31.1568 23.8452 31.4477 23.361 31.9257 23.2406L31.9753 23.2287V17.5161L27.9104 19.5488C27.6588 19.6744 27.3632 19.6744 27.1121 19.5488L23.0467 17.5161V23.145L23.4306 23.2406C23.9086 23.361 24.1995 23.8452 24.0801 24.3236C23.9783 24.7292 23.6145 25.0005 23.2146 25.0005C23.1593 25.0005 23.103 24.9933 23.0467 24.9824V25.9099C23.5091 25.821 23.9644 26.1073 24.0801 26.5692C24.1995 27.0477 23.9086 27.5323 23.4306 27.6522Z" fill="#F96B09"/>
<path d="M33.761 33.0357C33.761 32.5433 33.3605 32.1429 32.8681 32.1429H30.1895C29.2047 32.1429 28.4038 32.9443 28.4038 33.9286H32.8681C33.3605 33.9286 33.761 33.5281 33.761 33.0357Z" fill="#F96B09"/>
<path d="M22.1541 33.9286H26.6184C26.6184 32.9443 25.8175 32.1429 24.8327 32.1429H22.1541C21.6622 32.1429 21.2612 32.5433 21.2612 33.0357C21.2612 33.5281 21.6622 33.9286 22.1541 33.9286Z" fill="#F96B09"/>
<path d="M13.3926 32.1429C12.4078 32.1429 11.6069 32.9443 11.6069 33.9286H16.0712C16.5631 33.9286 16.9641 33.5281 16.9641 33.0357C16.9641 32.5433 16.5631 32.1429 16.0712 32.1429H13.3926Z" fill="#F96B09"/>
<path d="M8.92836 24.1071C9.26525 24.1071 9.5825 23.9759 9.82122 23.7377L9.92559 23.6328C9.85894 23.5083 9.82122 23.3657 9.82122 23.2143C9.82122 22.7214 10.2206 22.3214 10.7141 22.3214C11.207 22.3214 11.6069 22.7214 11.6069 23.2143C11.6069 23.3657 11.5687 23.5083 11.502 23.6328L11.6069 23.7377C11.8451 23.9759 12.1624 24.1071 12.4998 24.1071C12.9927 24.1071 13.3926 24.5071 13.3926 25C13.3926 25.4929 12.9927 25.8929 12.4998 25.8929C11.8498 25.8929 11.2303 25.6908 10.7141 25.3157C10.1979 25.6908 9.57837 25.8929 8.92836 25.8929C8.43491 25.8929 8.03551 25.4929 8.03551 25C8.03551 24.5071 8.43491 24.1071 8.92836 24.1071ZM8.92836 20.5357C9.42129 20.5357 9.82122 20.9356 9.82122 21.4286C9.82122 21.9215 9.42129 22.3214 8.92836 22.3214C8.43491 22.3214 8.03551 21.9215 8.03551 21.4286C8.03551 20.9356 8.43491 20.5357 8.92836 20.5357ZM12.4998 20.5357C12.9927 20.5357 13.3926 20.9356 13.3926 21.4286C13.3926 21.9215 12.9927 22.3214 12.4998 22.3214C12.0063 22.3214 11.6069 21.9215 11.6069 21.4286C11.6069 20.9356 12.0063 20.5357 12.4998 20.5357ZM12.8987 28.4774C12.2151 28.8189 11.4643 28.9905 10.7141 28.9905C9.96331 28.9905 9.21306 28.8189 8.52895 28.4774C8.08769 28.2568 7.90891 27.7204 8.12954 27.2792C8.35018 26.8384 8.88651 26.6591 9.32725 26.8798C10.1953 27.3143 11.2323 27.3143 12.1004 26.8798C12.5416 26.6596 13.0775 26.8384 13.2981 27.2792C13.5187 27.7204 13.3399 28.2568 12.8987 28.4774ZM6.24979 26.8177V28.5714C6.24979 28.6851 6.22757 28.7977 6.18572 28.9031L5.60392 30.3571H8.03551C9.10146 30.3571 10.0589 30.8273 10.7141 31.5698C11.3687 30.8273 12.3267 30.3571 13.3926 30.3571H15.8237L15.2419 28.9031C15.2001 28.7977 15.1784 28.6851 15.1784 28.5714V26.8177C15.1784 26.7216 15.1939 26.6261 15.2238 26.5351C15.786 24.8491 16.0712 23.0929 16.0712 21.3154V21.1149C16.0712 20.2081 15.9958 19.2956 15.8465 18.4007L15.5313 16.5106L14.1041 18.3961C13.8194 18.7727 13.2903 18.8621 12.8971 18.6002C11.5708 17.7161 9.85687 17.7161 8.5305 18.6002C8.1373 18.8621 7.60871 18.7727 7.32349 18.3961L5.89637 16.5106L5.58118 18.4007C5.43237 19.2956 5.35693 20.2081 5.35693 21.1149V21.3154C5.35693 23.0929 5.64164 24.8491 6.2038 26.5351C6.23377 26.6261 6.24979 26.7216 6.24979 26.8177Z" fill="#F96B09"/>
<path d="M38.0744 3.60346L39.8855 2.39594C40.4843 1.99653 41.1813 1.78571 41.9011 1.78571C43.9049 1.78571 45.5356 3.4159 45.5356 5.42018V32.1429H47.3213V5.80357C47.3213 2.60365 44.7176 0 41.5177 0C40.2704 0 39.0334 0.41181 38.0357 1.16051L36.7036 2.1598C36.7641 2.20579 36.8245 2.25178 36.8839 2.30035C37.3521 2.68581 37.7484 3.12603 38.0744 3.60346Z" fill="#F96B09"/>
<path d="M30.3571 41.0714H32.1428C32.6357 41.0714 33.0357 41.4713 33.0357 41.9643C33.0357 42.4572 32.6357 42.8571 32.1428 42.8571H30.3571C29.8637 42.8571 29.4642 42.4572 29.4642 41.9643C29.4642 41.4713 29.8637 41.0714 30.3571 41.0714ZM35.7142 41.0714H39.2857C39.7786 41.0714 40.1785 41.4713 40.1785 41.9643C40.1785 42.4572 39.7786 42.8571 39.2857 42.8571H35.7142C35.2208 42.8571 34.8214 42.4572 34.8214 41.9643C34.8214 41.4713 35.2208 41.0714 35.7142 41.0714ZM3.44221 43.6756C3.69281 45.4308 4.56862 47.0372 5.90791 48.1988C7.24719 49.3603 8.96108 50 10.7339 50H39.2655C41.0383 50 42.7522 49.3603 44.0915 48.1988C45.4308 47.0372 46.3066 45.4308 46.5572 43.6761L47.1845 39.2857H2.81494L3.44221 43.6756Z" fill="#F96B09"/>
<path d="M5.35721 33.9286H9.8215C9.8215 32.9443 9.0201 32.1429 8.03578 32.1429H5.35721C4.8648 32.1429 4.46436 32.5433 4.46436 33.0357C4.46436 33.5281 4.8648 33.9286 5.35721 33.9286Z" fill="#F96B09"/>
<path d="M37.252 8.18141C37.6411 6.5693 37.1146 4.80167 35.75 3.67992C34.4396 2.60208 32.6937 2.39799 31.2227 2.99788C32.4602 3.23039 33.7183 3.84681 34.8117 4.76447C36.0119 5.77152 36.8428 6.9806 37.252 8.18141Z" fill="#F96B09"/>
<path d="M48.2143 33.9286H35.3934C35.025 34.9682 34.0324 35.7143 32.8683 35.7143H22.154C20.9904 35.7143 19.9978 34.9682 19.6289 33.9286H18.5965C18.2276 34.9682 17.235 35.7143 16.0714 35.7143H5.35714C4.19302 35.7143 3.20044 34.9682 2.83203 33.9286H1.78571C0.800885 33.9286 0 34.73 0 35.7143C0 36.6986 0.800885 37.5 1.78571 37.5H48.2143C49.1986 37.5 50 36.6986 50 35.7143C50 34.73 49.1986 33.9286 48.2143 33.9286Z" fill="#F96B09"/>
<path d="M22.375 8.07704C22.4479 8.07704 22.5223 8.06774 22.5957 8.04914L24.3266 7.60995C24.8046 7.48852 25.0934 7.00231 24.972 6.52488C24.8505 6.04693 24.3648 5.75758 23.8869 5.879L22.1565 6.3182C21.6785 6.44014 21.3892 6.92584 21.5106 7.40378C21.6129 7.80836 21.9767 8.07704 22.375 8.07704Z" fill="#F96B09"/>
<path d="M17.1832 9.39619C17.2555 9.39619 17.3294 9.38689 17.4033 9.36829L19.1342 8.92858C19.6122 8.80716 19.901 8.32146 19.7796 7.84351C19.6587 7.36505 19.1725 7.07621 18.6945 7.19764L16.9641 7.63735C16.4861 7.75877 16.1968 8.24447 16.3182 8.72242C16.421 9.12648 16.7843 9.39619 17.1832 9.39619Z" fill="#F96B09"/>
<path d="M11.9913 10.7148C12.0641 10.7148 12.1375 10.7055 12.2114 10.6869L13.9423 10.2472C14.4198 10.1258 14.7096 9.64008 14.5877 9.16214C14.4663 8.68419 13.9801 8.39484 13.5026 8.51678L11.7717 8.95597C11.2942 9.07792 11.0049 9.56361 11.1263 10.041C11.2291 10.4451 11.5924 10.7148 11.9913 10.7148Z" fill="#F96B09"/>
<path d="M23.0034 10.1134C22.5668 10.3423 22.3988 10.8822 22.6277 11.3188C22.7874 11.6232 23.0974 11.7973 23.4193 11.7973C23.5588 11.7973 23.7004 11.7642 23.8332 11.695L25.4143 10.8652C25.8509 10.6363 26.0193 10.0963 25.7904 9.66021C25.561 9.22308 25.0216 9.05516 24.585 9.28405L23.0034 10.1134Z" fill="#F96B09"/>
<path d="M17.8838 13.8078C18.0435 14.1116 18.3535 14.2862 18.6749 14.2862C18.8149 14.2862 18.9565 14.2532 19.0893 14.1839L20.6704 13.3541C21.107 13.1252 21.2749 12.5853 21.046 12.1486C20.8171 11.712 20.2777 11.5441 19.8406 11.773L18.2595 12.6018C17.8228 12.8312 17.6544 13.3712 17.8838 13.8078Z" fill="#F96B09"/>
<path d="M25.9945 15.2778C26.1598 15.4116 26.3582 15.4757 26.5551 15.4757C26.816 15.4757 27.0739 15.3625 27.2506 15.1445L28.3729 13.7556C28.6829 13.3722 28.6229 12.8095 28.239 12.4995C27.8556 12.19 27.2935 12.2499 26.9835 12.6328L25.8617 14.0222C25.5517 14.4056 25.6111 14.9678 25.9945 15.2778Z" fill="#F96B09"/>
</svg>
