<svg width="49" height="50" viewBox="0 0 49 50" fill="none" xmlns="http://www.w3.org/2000/svg">
<path d="M48.369 14.5183V8.8725L24.1845 0L0 8.8725V14.5183L24.1845 5.64628L48.369 14.5183Z" fill="#F96B09"/>
<path d="M21.1121 25.0243L19.2471 26.2806H14.3093L12.4448 25.0243C12.391 24.9881 12.3357 24.9855 12.2789 25.0155C12.2215 25.046 12.1931 25.0935 12.1931 25.1581V31.2695L11.5678 33.8689L11.2236 34.7882C12.5781 36.7287 14.1088 38.5193 15.8152 40.1591C17.5216 41.7993 19.3706 43.2571 21.3633 44.5336V36.9711L19.9525 34.12L20.7312 32.547C21.1173 31.6871 21.3281 30.7858 21.3633 29.8437V25.1581C21.3633 25.0935 21.3348 25.046 21.278 25.016C21.2206 24.9855 21.1653 24.9881 21.1121 25.0243ZM15.8715 28.9678C15.8715 29.0143 15.8669 29.0603 15.8581 29.1058C15.8488 29.1513 15.8353 29.1952 15.8178 29.2381C15.8002 29.281 15.778 29.3218 15.7526 29.36C15.7268 29.3988 15.6973 29.4345 15.6648 29.467C15.6322 29.4996 15.5966 29.529 15.5578 29.5549C15.5196 29.5807 15.4788 29.6024 15.4359 29.62C15.393 29.6375 15.349 29.651 15.3036 29.6603C15.2581 29.6691 15.2121 29.6737 15.1661 29.6737C15.1196 29.6737 15.0736 29.6691 15.0281 29.6603C14.9832 29.651 14.9387 29.6375 14.8958 29.62C14.8535 29.6024 14.8126 29.5807 14.7739 29.5549C14.7356 29.529 14.7 29.4996 14.6674 29.467C14.6343 29.4345 14.6054 29.3988 14.5796 29.36C14.5537 29.3218 14.532 29.281 14.5145 29.2381C14.4964 29.1952 14.4834 29.1513 14.4741 29.1058C14.4654 29.0603 14.4607 29.0143 14.4607 28.9678V28.7663C14.4607 28.7198 14.4654 28.6743 14.4741 28.6288C14.4834 28.5833 14.4964 28.5389 14.5145 28.4965C14.532 28.4536 14.5537 28.4128 14.5796 28.374C14.6054 28.3358 14.6343 28.3001 14.6674 28.2671C14.7 28.2345 14.7356 28.205 14.7739 28.1797C14.8126 28.1539 14.8535 28.1322 14.8958 28.1141C14.9387 28.0965 14.9832 28.0831 15.0281 28.0743C15.0736 28.065 15.1196 28.0603 15.1661 28.0603C15.2121 28.0603 15.2581 28.065 15.3036 28.0743C15.349 28.0831 15.393 28.0965 15.4359 28.1141C15.4788 28.1322 15.5196 28.1539 15.5578 28.1797C15.5966 28.205 15.6322 28.2345 15.6648 28.2671C15.6973 28.3001 15.7268 28.3358 15.7526 28.374C15.778 28.4128 15.8002 28.4536 15.8178 28.4965C15.8353 28.5389 15.8488 28.5833 15.8581 28.6288C15.8669 28.6743 15.8715 28.7198 15.8715 28.7663V28.9678ZM19.3985 28.9678C19.3985 29.0143 19.3938 29.0603 19.3845 29.1058C19.3757 29.1513 19.3623 29.1952 19.3447 29.2381C19.3267 29.281 19.305 29.3218 19.2796 29.36C19.2538 29.3988 19.2243 29.4345 19.1918 29.467C19.1587 29.4996 19.1236 29.529 19.0848 29.5549C19.046 29.5807 19.0057 29.6024 18.9628 29.62C18.92 29.6375 18.876 29.651 18.8306 29.6603C18.7851 29.6691 18.7391 29.6737 18.6931 29.6737C18.6466 29.6737 18.6006 29.6691 18.5551 29.6603C18.5096 29.651 18.4657 29.6375 18.4228 29.62C18.3804 29.6024 18.3396 29.5807 18.3009 29.5549C18.2626 29.529 18.227 29.4996 18.1939 29.467C18.1613 29.4345 18.1324 29.3988 18.1066 29.36C18.0807 29.3218 18.059 29.281 18.0414 29.2381C18.0233 29.1952 18.0099 29.1513 18.0011 29.1058C17.9918 29.0603 17.9877 29.0143 17.9877 28.9678V28.7663C17.9877 28.7198 17.9918 28.6743 18.0011 28.6288C18.0099 28.5833 18.0233 28.5389 18.0414 28.4965C18.059 28.4536 18.0807 28.4128 18.1066 28.374C18.1324 28.3358 18.1613 28.3001 18.1939 28.2671C18.227 28.2345 18.2626 28.205 18.3009 28.1797C18.3396 28.1539 18.3804 28.1322 18.4228 28.1141C18.4657 28.0965 18.5096 28.0831 18.5551 28.0743C18.6006 28.065 18.6466 28.0603 18.6931 28.0603C18.7391 28.0603 18.7851 28.065 18.8306 28.0743C18.876 28.0831 18.92 28.0965 18.9628 28.1141C19.0057 28.1322 19.046 28.1539 19.0848 28.1797C19.1236 28.205 19.1587 28.2345 19.1918 28.2671C19.2243 28.3001 19.2538 28.3358 19.2796 28.374C19.305 28.4128 19.3267 28.4536 19.3447 28.4965C19.3623 28.5389 19.3757 28.5833 19.3845 28.6288C19.3938 28.6743 19.3985 28.7198 19.3985 28.7663V28.9678Z" fill="#F96B09"/>
<path d="M45.1443 15.0536L24.1845 7.36456L3.22461 15.0536V50H45.1443V15.0536ZM24.3819 47.5562C24.2408 47.5913 24.1007 47.5892 23.9607 47.5489C21.1443 46.7355 16.7532 43.6039 13.2826 39.9322C10.7308 37.2331 6.44928 31.8581 6.44928 26.1922C6.44205 25.9323 6.44618 25.6723 6.46168 25.4129C6.47719 25.1535 6.50458 24.8946 6.54282 24.6377C6.58106 24.3804 6.63015 24.1251 6.69113 23.8724C6.75159 23.6192 6.82291 23.3696 6.90559 23.1231C6.98776 22.8761 7.0813 22.6337 7.18465 22.3949C7.28852 22.1567 7.40273 21.9231 7.52676 21.6947C7.65078 21.4663 7.78463 21.2436 7.92829 21.027C8.07195 20.81 8.22492 20.6002 8.38718 20.3966C8.54893 20.1935 8.71999 19.9976 8.89879 19.809C9.07811 19.6204 9.26518 19.4405 9.46053 19.2685C9.65535 19.0964 9.85741 18.9336 10.0667 18.7791C10.276 18.6246 10.4915 18.4799 10.7137 18.3445C10.9359 18.2091 11.1633 18.084 11.3958 17.9683C11.6289 17.853 11.8666 17.7481 12.109 17.6535C12.3508 17.559 12.5968 17.4753 12.8464 17.4019C13.0955 17.329 13.3477 17.267 13.603 17.2158C17.0576 16.4029 21.6238 17.2923 24.1845 20.9635C26.7456 17.2923 31.3118 16.4029 34.7664 17.2158C35.0212 17.267 35.2734 17.329 35.523 17.4019C35.7726 17.4753 36.0181 17.559 36.2604 17.6535C36.5028 17.7481 36.74 17.853 36.9731 17.9688C37.2061 18.084 37.4335 18.2096 37.6552 18.345C37.8774 18.4804 38.0929 18.6251 38.3022 18.7791C38.5115 18.9336 38.7136 19.0969 38.9089 19.2685C39.1037 19.4405 39.2908 19.6209 39.4701 19.809C39.6494 19.9976 39.82 20.1935 39.9817 20.3966C40.144 20.6002 40.297 20.81 40.4406 21.027C40.5843 21.2436 40.7181 21.4663 40.8422 21.6947C40.9662 21.9231 41.0804 22.1567 41.1843 22.3955C41.2876 22.6337 41.3806 22.8766 41.4633 23.1231C41.546 23.3696 41.6173 23.6192 41.6778 23.8724C41.7388 24.1251 41.7879 24.3804 41.8261 24.6377C41.8643 24.8946 41.8912 25.1535 41.9072 25.4129C41.9227 25.6723 41.9269 25.9323 41.9196 26.1922C41.9196 35.8052 30.2312 46.0782 24.3819 47.5562Z" fill="#F96B09"/>
<path d="M37.9395 29.6691L37.3183 25.7912C37.293 25.6682 37.2382 25.5597 37.155 25.4656C37.0718 25.3716 36.9705 25.3049 36.8516 25.2641L34.06 24.3241H27.7115L24.9193 25.2641C24.8005 25.3049 24.6997 25.3716 24.6165 25.4656C24.5328 25.5597 24.4785 25.6682 24.4527 25.7912L23.832 29.6691L26.3007 31.0948V33.9454L24.8899 37.509V45.703C28.3486 44.4147 33.273 40.5131 36.6201 35.8259L35.4708 33.9454V31.0948L37.9395 29.6691ZM29.6261 28.7931C29.6261 28.8396 29.6215 28.8851 29.6127 28.9306C29.6034 28.9761 29.5899 29.0205 29.5724 29.0634C29.5548 29.1058 29.5331 29.1466 29.5072 29.1854C29.4814 29.2236 29.452 29.2593 29.4194 29.2923C29.3868 29.3249 29.3512 29.3543 29.3124 29.3802C29.2742 29.4055 29.2334 29.4272 29.1905 29.4453C29.1476 29.4629 29.1036 29.4763 29.0582 29.4851C29.0127 29.4944 28.9667 29.499 28.9207 29.499C28.8742 29.499 28.8282 29.4944 28.7832 29.4851C28.7378 29.4763 28.6933 29.4629 28.6504 29.4453C28.6081 29.4272 28.5672 29.4055 28.529 29.3802C28.4902 29.3543 28.4546 29.3249 28.422 29.2923C28.3889 29.2593 28.36 29.2236 28.3342 29.1854C28.3083 29.1466 28.2866 29.1058 28.2691 29.0634C28.251 29.0205 28.238 28.9761 28.2287 28.9306C28.22 28.8851 28.2153 28.8396 28.2153 28.7931V28.5916C28.2153 28.5451 28.22 28.4991 28.2287 28.4536C28.238 28.4081 28.251 28.3642 28.2691 28.3213C28.2866 28.2784 28.3083 28.2381 28.3342 28.1994C28.36 28.1611 28.3889 28.1255 28.422 28.0924C28.4546 28.0598 28.4902 28.0304 28.529 28.0045C28.5672 27.9787 28.6081 27.957 28.6504 27.9394C28.6933 27.9218 28.7378 27.9084 28.7832 27.8991C28.8282 27.8903 28.8742 27.8857 28.9207 27.8857C28.9667 27.8857 29.0127 27.8903 29.0582 27.8991C29.1036 27.9084 29.1476 27.9218 29.1905 27.9394C29.2334 27.957 29.2742 27.9787 29.3124 28.0045C29.3512 28.0304 29.3868 28.0598 29.4194 28.0924C29.452 28.1255 29.4814 28.1611 29.5072 28.1994C29.5331 28.2381 29.5548 28.2784 29.5724 28.3213C29.5899 28.3642 29.6034 28.4081 29.6127 28.4536C29.6215 28.4991 29.6261 28.5451 29.6261 28.5916V28.7931ZM31.8431 31.5429C31.8431 31.5899 31.8384 31.6364 31.8291 31.6819C31.8203 31.7279 31.8064 31.7723 31.7888 31.8157C31.7707 31.8592 31.749 31.9 31.7227 31.9393C31.6968 31.978 31.6674 32.0137 31.6343 32.0467C31.6012 32.0798 31.565 32.1098 31.5263 32.1356C31.4875 32.1615 31.4467 32.1837 31.4033 32.2013C31.3599 32.2193 31.3154 32.2328 31.2694 32.2421C31.224 32.2514 31.1775 32.2555 31.131 32.2555H30.9428C30.8963 32.2555 30.8498 32.2514 30.8038 32.2421C30.7578 32.2328 30.7134 32.2193 30.6705 32.2013C30.6271 32.1837 30.5863 32.1615 30.547 32.1356C30.5082 32.1098 30.4721 32.0803 30.439 32.0467C30.4059 32.0137 30.3765 31.978 30.3506 31.9393C30.3248 31.9 30.3026 31.8592 30.285 31.8157C30.2669 31.7723 30.2535 31.7279 30.2442 31.6819C30.2354 31.6364 30.2307 31.5899 30.2307 31.5429C30.2307 31.4964 30.2354 31.4499 30.2442 31.4039C30.2535 31.3579 30.2669 31.3134 30.285 31.2705C30.3026 31.2271 30.3248 31.1858 30.3506 31.147C30.3765 31.1083 30.4064 31.0721 30.4395 31.039C30.4721 31.006 30.5082 30.9765 30.547 30.9507C30.5863 30.9243 30.6271 30.9026 30.6705 30.8845C30.7134 30.8669 30.7578 30.8535 30.8038 30.8442C30.8498 30.8349 30.8963 30.8303 30.9428 30.8303H31.1304C31.1775 30.8303 31.224 30.8349 31.2694 30.8442C31.3154 30.8535 31.3599 30.8669 31.4033 30.8845C31.4467 30.9026 31.4875 30.9243 31.5263 30.9507C31.565 30.9765 31.6012 31.006 31.6343 31.039C31.6674 31.0721 31.6968 31.1083 31.7227 31.147C31.749 31.1858 31.7707 31.2271 31.7888 31.2705C31.8064 31.3134 31.8203 31.3579 31.8291 31.4039C31.8384 31.4499 31.8431 31.4964 31.8431 31.5429ZM33.8585 28.7931C33.8585 28.8396 33.8538 28.8851 33.8445 28.9306C33.8357 28.9761 33.8223 29.0205 33.8047 29.0634C33.7867 29.1058 33.765 29.1466 33.7396 29.1854C33.7138 29.2236 33.6843 29.2593 33.6518 29.2923C33.6192 29.3249 33.5836 29.3543 33.5448 29.3802C33.5066 29.4055 33.4657 29.4272 33.4228 29.4453C33.38 29.4629 33.336 29.4763 33.2906 29.4851C33.2451 29.4944 33.1991 29.499 33.1531 29.499C33.1066 29.499 33.0606 29.4944 33.0151 29.4851C32.9702 29.4763 32.9257 29.4629 32.8828 29.4453C32.8404 29.4272 32.7996 29.4055 32.7609 29.3802C32.7226 29.3543 32.687 29.3249 32.6544 29.2923C32.6213 29.2593 32.5924 29.2236 32.5666 29.1854C32.5407 29.1466 32.519 29.1058 32.5014 29.0634C32.4834 29.0205 32.4699 28.9761 32.4611 28.9306C32.4518 28.8851 32.4477 28.8396 32.4477 28.7931V28.5916C32.4477 28.5451 32.4518 28.4991 32.4611 28.4536C32.4699 28.4081 32.4834 28.3642 32.5014 28.3213C32.519 28.2784 32.5407 28.2381 32.5666 28.1994C32.5924 28.1611 32.6213 28.1255 32.6544 28.0924C32.687 28.0598 32.7226 28.0304 32.7609 28.0045C32.7996 27.9787 32.8404 27.957 32.8828 27.9394C32.9257 27.9218 32.9702 27.9084 33.0151 27.8991C33.0606 27.8903 33.1066 27.8857 33.1531 27.8857C33.1991 27.8857 33.2451 27.8903 33.2906 27.8991C33.336 27.9084 33.38 27.9218 33.4228 27.9394C33.4657 27.957 33.5066 27.9787 33.5448 28.0045C33.5836 28.0304 33.6192 28.0598 33.6518 28.0924C33.6843 28.1255 33.7138 28.1611 33.7396 28.1994C33.765 28.2381 33.7867 28.2784 33.8047 28.3213C33.8223 28.3642 33.8357 28.4081 33.8445 28.4536C33.8538 28.4991 33.8585 28.5451 33.8585 28.5916V28.7931Z" fill="#F96B09"/>
</svg>
