<svg width="56" height="50" viewBox="0 0 56 50" fill="none" xmlns="http://www.w3.org/2000/svg">
<path d="M50.0042 25.9951L55.1935 21.6009L29.6277 0L4.0625 21.6009L9.2518 25.5998V46.837H7.71372V47.4539H7.71165V48.0708H51.2844V47.7489H51.287V46.837H50.0042V25.9951Z" fill="#F96B09"/>
<path d="M35.5225 33.8136C35.088 35.6912 33.616 36.9518 32.235 36.6299C30.8535 36.3081 30.0857 34.5251 30.5197 32.6481C30.9542 30.7711 32.4256 29.5104 33.8067 29.8323C35.1882 30.1542 35.9565 31.9366 35.5225 33.8136Z" fill="white"/>
<path d="M28.7754 32.9984C28.9712 34.9152 27.9792 36.5881 26.5584 36.7343C25.1381 36.8805 23.8279 35.4453 23.6321 33.5285C23.4363 31.6111 24.4288 29.9387 25.849 29.7925C27.2693 29.6458 28.5796 31.0816 28.7754 32.9984Z" fill="white"/>
<path d="M23.6284 36.9312C24.3667 38.4734 24.0123 40.184 22.8359 40.7508C21.66 41.3181 20.1085 40.5276 19.3702 38.9854C18.6324 37.4426 18.9873 35.7325 20.1627 35.1657C21.3391 34.5985 22.8907 35.3889 23.6284 36.9312Z" fill="white"/>
<path d="M35.631 36.9844C34.8793 38.5199 35.2193 40.2336 36.39 40.8113C37.5613 41.3884 39.12 40.6118 39.8712 39.0763C40.623 37.5403 40.283 35.8276 39.1128 35.25C37.9415 34.6718 36.3828 35.4489 35.631 36.9844Z" fill="white"/>
<path d="M37.2893 46.3276C37.2258 46.8582 36.9178 47.6792 36.6874 48.0708H22.6219C22.374 47.6647 22.0727 46.8205 22.0107 46.2599C21.7746 44.1328 23.369 42.8898 24.6943 41.5346C25.633 40.5741 26.1109 39.2541 27.1039 38.3422C27.5948 37.8921 28.2049 37.532 28.8575 37.3838C28.8998 37.3734 29.6898 37.2572 29.6898 37.3367C29.6903 37.2572 30.4793 37.3807 30.5211 37.3905C31.1716 37.545 31.7792 37.9102 32.2659 38.3649C33.2511 39.2861 33.7177 40.6098 34.6477 41.5785C35.9605 42.9456 37.544 44.2026 37.2893 46.3276Z" fill="white"/>
<path d="M29.6275 23.0429C25.5382 23.0429 22.2109 19.7167 22.2109 15.6278C22.2109 11.5395 25.5382 8.2133 29.6275 8.2133C33.7169 8.2133 37.0447 11.5395 37.0447 15.6278C37.0447 19.7167 33.7169 23.0429 29.6275 23.0429Z" fill="white"/>
<path d="M36.2657 15.6278C36.2657 19.2935 33.2939 22.2643 29.6277 22.2643C25.9615 22.2643 22.9902 19.2935 22.9902 15.6278C22.9902 11.9627 25.9615 8.99138 29.6277 8.99138C33.2939 8.99138 36.2657 11.9627 36.2657 15.6278Z" fill="#F96B09"/>
<path d="M24.9538 13.9849L27.9049 13.9735V11.1283C27.9049 10.9893 28.0227 10.8761 28.1663 10.8761H31.0885C31.2327 10.8761 31.3505 10.9893 31.3505 11.1283V13.9601L34.2877 13.9487C34.4318 13.9482 34.5501 14.0613 34.5507 14.2003L34.562 17.0176C34.5625 17.1561 34.4458 17.2708 34.3011 17.2713L31.3505 17.2827V20.1279C31.3505 20.2664 31.2327 20.38 31.0885 20.38H28.1663C28.0227 20.38 27.9049 20.2664 27.9049 20.1279V17.2956L24.9677 17.307C24.8236 17.3075 24.7052 17.1949 24.7047 17.0559L24.6934 14.2385C24.6923 14.0996 24.8096 13.9854 24.9538 13.9849Z" fill="white"/>
<path d="M46.9616 50C46.3163 50 45.6157 49.9494 44.8805 49.8486C43.9588 49.722 43.2009 49.1718 42.6884 48.2558C41.9423 46.9233 41.8343 44.9709 42.4311 43.6146C42.5917 43.2509 42.677 42.991 42.7767 42.6903C42.8501 42.4666 42.9338 42.2135 43.0567 41.8942C43.1151 41.7433 43.1689 41.578 43.2257 41.4033C43.3357 41.0665 43.4489 40.7188 43.6178 40.3953C43.6612 40.3116 43.6664 40.1794 43.6726 39.9112C43.6762 39.7697 43.6809 39.593 43.6953 39.3868C43.7093 39.1941 43.7361 39.0489 43.7568 38.9311C43.7723 38.849 43.7842 38.7829 43.7821 38.7498C43.7728 38.7193 43.7398 38.6454 43.7155 38.5907C43.6788 38.509 43.6338 38.4078 43.5889 38.2895C43.375 37.7196 43.3921 37.3863 43.4034 37.1657C43.4055 37.127 43.4081 37.0738 43.406 37.0588C43.3977 37.0298 43.3409 36.942 43.3037 36.8841C43.2593 36.8144 43.2081 36.7354 43.1632 36.647C43.1363 36.5943 43.1079 36.5411 43.0795 36.4879C43.0102 36.3572 42.9379 36.2218 42.8733 36.0761L42.864 36.0565C42.6827 35.653 42.3045 34.8129 42.8392 34.3551C43.0071 34.2115 43.22 34.135 43.4551 34.135C43.8059 34.135 44.2228 34.3112 44.6956 34.6589C44.7255 34.6413 44.7576 34.6233 44.7922 34.6057C44.9079 34.5468 45.0268 34.4925 45.1451 34.4445C45.2639 34.3959 45.3853 34.3525 45.5072 34.3148C45.546 34.3029 45.5832 34.2931 45.6173 34.2848C45.6178 34.2771 45.6188 34.2688 45.6199 34.2606C45.6467 33.9867 45.6777 33.6767 45.7919 33.3647L45.7986 33.3456C45.8736 33.1389 46.1014 32.5096 46.7136 32.5096C46.7818 32.5096 46.8506 32.5184 46.9172 32.536C47.3285 32.6429 47.5563 32.9891 47.6312 33.1027C47.7609 33.3001 47.8648 33.4959 47.9397 33.6871C48.0404 33.9418 48.0967 34.1887 48.1515 34.4269C48.1861 34.5783 48.2187 34.7204 48.261 34.8552C48.3199 35.0443 48.3995 35.2308 48.4832 35.4282C48.7023 35.9443 48.9518 36.5292 48.851 37.2649C48.8242 37.4607 48.7643 37.6343 48.7121 37.7878C48.6532 37.9583 48.6108 38.0916 48.6356 38.1303C49.0742 38.7963 49.2499 39.4013 49.223 40.1546C49.2106 40.4909 49.2587 40.6971 49.3992 40.9136C49.5987 41.2194 49.748 41.5568 49.843 41.9154C49.9066 42.1535 49.9944 42.369 50.09 42.5896C50.1158 42.3592 50.1592 42.1251 50.2285 41.8849C50.37 41.3935 50.6061 40.9544 50.9099 40.616C51.2241 40.2652 51.703 39.8451 52.198 39.8363H52.216C52.6867 39.8363 53.1264 40.1815 53.239 40.6397C53.3057 40.9099 53.2509 41.2122 53.0882 41.469C52.958 41.6746 52.8138 41.8389 52.6877 41.9836C52.5048 42.1912 52.3736 42.3416 52.308 42.5663C52.1447 43.1248 52.2005 43.7071 52.26 44.324C52.3152 44.8965 52.3721 45.488 52.2662 46.1189C52.1075 47.0607 51.826 48.0491 50.8552 48.8871C50.306 49.3614 49.595 49.6843 48.742 49.8466C48.2073 49.9483 47.6085 50 46.9616 50Z" fill="white"/>
<path d="M48.6291 49.2529C49.3137 49.1227 49.9491 48.8711 50.4606 48.4299C51.2656 47.7355 51.5167 46.9295 51.6706 46.0176C51.8758 44.7983 51.3705 43.6198 51.728 42.3964C51.8907 41.8384 52.2917 41.5976 52.5779 41.1461C52.6451 41.0401 52.6828 40.9068 52.6528 40.7844C52.6032 40.5834 52.4002 40.4367 52.21 40.4403C51.9295 40.446 51.5456 40.8128 51.3601 41.0195C51.1008 41.3083 50.9189 41.673 50.8089 42.0528C50.5335 43.0071 50.7319 43.9246 50.6854 44.8867C50.6482 45.6596 50.3981 46.7399 49.744 47.1904C49.9894 47.022 50.022 45.8936 50.052 45.6167C50.1264 44.928 50.0664 44.215 49.8344 43.5568C49.6453 43.022 49.4056 42.6201 49.2594 42.0704C49.1809 41.7753 49.0564 41.4943 48.8926 41.2422C48.6652 40.8924 48.6038 40.5571 48.6187 40.1324C48.6425 39.4711 48.4829 38.9968 48.131 38.462C47.8536 38.0399 48.1925 37.6188 48.2524 37.1828C48.364 36.3685 47.9114 35.7646 47.6841 35.0345C47.5673 34.6594 47.5219 34.2735 47.3777 33.9087C47.3137 33.7455 47.2233 33.5822 47.1266 33.4349C47.0404 33.3042 46.9231 33.1616 46.765 33.1203C46.5346 33.0599 46.4168 33.4148 46.3594 33.5713C46.2525 33.8658 46.2385 34.182 46.2039 34.4905C46.1961 34.5551 46.1874 34.6217 46.1548 34.6775C46.1192 34.738 46.0582 34.7808 45.9936 34.8072C45.8954 34.847 45.787 34.8609 45.6862 34.8919C45.5803 34.9245 45.4754 34.9622 45.3731 35.0035C45.2693 35.0464 45.167 35.0929 45.0667 35.144C44.9701 35.1931 44.8761 35.2665 44.7759 35.3073C44.6818 35.3455 44.5749 35.33 44.4958 35.267C44.2153 35.0423 43.5364 34.5535 43.2331 34.8134C43.0342 34.9844 43.3509 35.6638 43.4248 35.8297C43.5075 36.0136 43.6092 36.1929 43.7012 36.3716C43.7973 36.5597 43.9647 36.7436 44.0014 36.9565C44.0453 37.2122 43.9084 37.4215 44.1548 38.0771C44.253 38.3375 44.3579 38.509 44.3796 38.6568C44.4121 38.8815 44.3253 39.0557 44.2985 39.4308C44.253 40.0538 44.3134 40.369 44.1533 40.6749C43.9254 41.1114 43.7978 41.6524 43.6211 42.1112C43.3426 42.8335 43.2822 43.1817 42.9846 43.858C42.2076 45.6234 42.7759 48.9507 44.9624 49.2498C46.0582 49.3997 47.4196 49.4833 48.6291 49.2529Z" fill="#F96B09"/>
<path d="M2.49508 50C2.13136 50 1.79501 49.9886 1.469 49.9643C1.14919 49.9411 0.807681 49.8998 0.473404 49.7546C0.136027 49.6089 -0.0458364 49.3072 0.00996258 48.9868C0.0497451 48.759 0.194926 48.6262 0.242975 48.5828C0.759632 48.1101 1.55425 47.8109 2.2631 47.58C2.97919 47.347 3.72938 47.192 4.49403 47.1191C4.75649 47.0943 5.02877 47.0819 5.30363 47.0819C6.00267 47.0819 6.7358 47.1589 7.56246 47.3222C7.48599 47.2168 7.40694 47.1108 7.32634 47.0029C6.81227 46.3121 6.28063 45.5981 6.06415 44.6547C5.91432 44.0026 6.01455 43.3811 6.34624 42.9047C6.63454 42.4919 7.07163 42.2279 7.57692 42.1628C7.66372 42.1515 7.75103 42.1463 7.83732 42.1463C7.95098 42.1463 8.06361 42.1556 8.17469 42.1742C8.11373 41.579 8.04863 40.6387 8.08376 39.5268C8.14834 37.4773 8.61127 36.3127 9.12069 35.204C9.18217 35.0671 9.23177 34.9162 9.27052 34.7503C9.03338 35.0381 8.79778 35.2567 8.48779 35.2567C8.39272 35.2567 8.30231 35.236 8.21809 35.1952C7.75258 34.9689 7.85075 34.4316 7.8926 34.2027C7.90035 34.1588 7.91275 34.0952 7.9143 34.0684C7.90758 33.9413 7.76343 33.5259 7.70919 33.3683C7.67302 33.265 7.53766 33.0697 7.41831 32.8981C7.24729 32.6517 7.05406 32.3732 6.9187 32.0642C6.59062 31.3151 7.01841 30.5096 7.60999 30.1015C7.91275 29.8927 8.36844 29.4525 8.51362 29.2288C8.5503 29.172 8.5968 29.0816 8.64588 28.9865C8.82362 28.6424 9.06696 28.1712 9.53247 27.8509C9.77116 27.6871 10.0615 27.6039 10.3958 27.6039C10.7104 27.6039 11.0049 27.6789 11.1868 27.7295C11.1894 27.7279 11.1925 27.7259 11.1951 27.7248C11.3656 27.6339 11.6497 27.482 12.0858 27.358C12.3095 27.2939 12.5528 27.2619 12.8086 27.2619C13.2188 27.2619 13.5552 27.3451 13.6854 27.3818C13.891 27.4148 14.5606 27.5523 15.1031 28.0338C15.428 28.3221 15.6125 28.5742 15.7246 28.7303C16.1043 28.768 16.8633 28.8703 17.2059 29.4882C17.4771 29.9769 17.4585 30.5355 17.4446 30.9431C17.4409 31.0583 17.4368 31.1777 17.4435 31.2422C17.4683 31.5006 17.6698 32.0818 17.8424 32.3944C18.1854 33.0154 18.1978 33.9211 17.5587 34.4507C17.3149 34.6527 17.0359 34.8123 16.7657 34.9673C16.3219 35.2205 15.9028 35.4602 15.7685 35.8126C15.7639 35.826 15.7587 35.8436 15.7525 35.8643C15.7091 36.0131 15.6394 36.2492 15.4968 36.4331C15.769 37.2778 15.9628 38.2683 15.9597 39.6601C15.9566 40.7425 15.8615 41.6787 15.7758 42.3049C15.8631 42.293 15.9535 42.2858 16.0485 42.2858C16.157 42.2858 16.2671 42.2951 16.3761 42.3127C17.2358 42.4532 17.5985 42.9528 17.7504 43.347C18.2092 44.5338 17.3128 46.2341 16.8065 46.8706C16.6484 47.0705 16.4825 47.2602 16.3219 47.4441C16.2754 47.4973 16.2299 47.5495 16.1849 47.6006C16.2883 47.6223 16.3797 47.659 16.4603 47.7117C16.5864 47.7949 16.6696 47.8863 16.7238 47.9483C17.0049 48.1261 17.2834 48.5249 17.147 49.0075C17.0157 49.474 16.5316 49.6078 16.2826 49.6647C16.033 49.8357 15.6528 49.862 15.3464 49.8837C14.9646 49.9101 14.4231 49.9235 13.6926 49.9235C13.1315 49.9235 12.5306 49.9158 12.0171 49.9085C11.7727 49.9049 11.5278 49.9023 11.2855 49.8998C10.0595 49.8858 8.90111 49.8734 8.21241 49.769C7.94788 49.7582 7.68232 49.7525 7.42347 49.7525C7.37439 49.7525 7.32531 49.753 7.27674 49.7535C6.52449 49.7597 5.74692 49.8181 4.99467 49.875C4.17835 49.9364 3.33413 50 2.49508 50Z" fill="white"/>
<path d="M16.2845 42.8701C15.8247 42.7952 15.4568 42.9538 15.2367 43.0928C15.1546 43.1445 15.075 43.0742 15.0936 42.9791C15.2021 42.4315 15.3907 41.1636 15.3943 39.6591C15.399 37.6405 14.9748 36.54 14.5491 35.5238C14.4586 35.3063 14.3987 35.0774 14.3594 34.8454C14.3331 34.6899 14.2339 34.3592 14.3362 34.2208C14.4075 34.1257 14.5806 34.119 14.6875 34.0833C14.6142 34.5695 14.5816 34.9973 14.7092 35.4814C14.7252 35.5434 14.8983 36.1216 14.949 36.1334C15.105 36.1691 15.199 35.7222 15.2383 35.6173C15.5441 34.801 16.579 34.5292 17.1985 34.0162C17.6361 33.653 17.5467 33.0283 17.3478 32.6672C17.1478 32.3066 16.9153 31.6499 16.8807 31.297C16.8461 30.9436 16.9851 30.2554 16.7118 29.762C16.4385 29.2697 15.5798 29.3084 15.4537 29.266C15.3277 29.2232 15.2254 28.8982 14.7278 28.4564C14.2298 28.0142 13.5628 27.9351 13.5628 27.9351C13.5628 27.9351 12.8927 27.7161 12.2401 27.9015C11.5881 28.087 11.3453 28.335 11.2125 28.3195C11.0797 28.304 10.3269 27.9904 9.85213 28.3169C9.37784 28.6424 9.18306 29.234 8.98776 29.5362C8.79195 29.8375 8.27736 30.3272 7.93017 30.5665C7.58349 30.8057 7.21305 31.3275 7.43572 31.838C7.65944 32.3484 8.11874 32.8248 8.24274 33.1833C8.36674 33.5424 8.47989 33.8844 8.47937 34.0709C8.47885 34.2585 8.34504 34.6284 8.46491 34.6868C8.5858 34.7457 8.93971 34.2528 8.98363 34.2042C9.33237 33.8136 9.52509 33.4608 9.64753 32.9653C9.6372 33.0061 9.77618 33.0831 9.80201 33.1089C10.051 33.3595 9.94306 33.8911 9.91878 34.2094C9.88726 34.6315 9.8077 35.0516 9.6341 35.4401C9.17376 36.4414 8.71238 37.5263 8.64832 39.5444C8.60544 40.896 8.71393 42.061 8.80642 42.6836C8.8307 42.8464 8.68345 42.9678 8.53775 42.8898C8.32024 42.7745 8.01593 42.6759 7.6491 42.7229C6.8798 42.8226 6.39414 43.5707 6.61476 44.5281C6.9046 45.7908 7.88263 46.6459 8.50934 47.7277C8.73873 48.1245 8.65452 48.123 8.65452 48.123L8.34452 48.0765C7.10816 47.7675 5.82065 47.5609 4.5471 47.6818C3.82946 47.75 3.12009 47.8951 2.43759 48.1168C1.85376 48.3069 1.07723 48.5849 0.623603 49.0003C0.59777 49.0235 0.572454 49.0504 0.56677 49.084C0.554371 49.1537 0.630319 49.2069 0.698001 49.2364C0.951163 49.3459 1.23274 49.3805 1.5107 49.4012C3.4244 49.5412 5.35721 49.2033 7.27246 49.1888C7.60312 49.1857 7.93533 49.1919 8.26703 49.2059C9.03788 49.3283 10.5465 49.3227 12.0247 49.3438C14.0123 49.3717 15.9471 49.38 15.9781 49.1692C15.9854 49.1175 16.5325 49.1057 16.6033 48.8546C16.6741 48.603 16.4447 48.4309 16.3899 48.4087C16.3346 48.387 16.2809 48.2707 16.1497 48.1839C16.0179 48.0982 15.6547 48.1757 15.6547 48.1757L15.013 48.2315C15.0724 48.2263 15.4367 47.6136 15.4873 47.5516C15.772 47.2018 16.083 46.8737 16.3636 46.5198C17.0486 45.658 18.1429 43.1739 16.2845 42.8701Z" fill="#F96B09"/>
</svg>
