<svg width="50" height="48" viewBox="0 0 50 48" fill="none" xmlns="http://www.w3.org/2000/svg">
<ellipse cx="25" cy="24" rx="25" ry="24" fill="#F96B0A"/>
<ellipse rx="3.62964" ry="5.96751" transform="matrix(-0.94782 -0.318805 -0.318805 0.94782 17.3428 17.9126)" fill="white"/>
<ellipse rx="3.62964" ry="5.96751" transform="matrix(-0.960501 -0.278278 -0.278278 0.960501 26.6041 14.7418)" fill="white"/>
<ellipse rx="3.62964" ry="5.96751" transform="matrix(-0.751727 -0.659474 -0.659474 0.751727 33.8468 18.9039)" fill="white"/>
<ellipse rx="3.62964" ry="5.96751" transform="matrix(-0.751727 -0.659474 -0.659474 0.751727 35.3361 28.2125)" fill="white"/>
<path d="M27.2928 22.0775C24.1281 19.8434 12.0468 25.6169 12.2128 30.269C12.3989 35.4819 15.9361 34.1786 19.2872 35.8542C22.943 37.6821 22.6382 42.9287 28.5959 39.5775C30.7788 38.3497 30.4575 24.3116 27.2928 22.0775Z" fill="white"/>
</svg>
