<svg width="65" height="66" viewBox="0 0 65 66" fill="none" xmlns="http://www.w3.org/2000/svg">
<path d="M59.7578 65.5002H15.7254C12.8341 65.5002 10.4834 63.1495 10.4834 60.2587V48.726C10.4834 48.1489 10.9545 47.6778 11.5316 47.6778C12.1092 47.6778 12.5803 48.1489 12.5803 48.726V60.2587C12.5803 61.9948 13.9888 63.4038 15.7254 63.4038H59.7578C61.4944 63.4038 62.9029 61.9948 62.9029 60.2587V5.74181C62.9029 4.00564 61.4944 2.5967 59.7578 2.5967H15.7254C13.9888 2.5967 12.5803 4.00564 12.5803 5.74181V12.0325C12.5803 12.6096 12.1092 13.0807 11.5316 13.0807C10.9545 13.0807 10.4834 12.6096 10.4834 12.0325V5.74181C10.4834 2.8505 12.8341 0.499817 15.7254 0.499817H59.7578C62.6491 0.499817 64.9998 2.8505 64.9998 5.74181V60.2587C64.9998 63.1495 62.6491 65.5002 59.7578 65.5002Z" fill="#F96B09"/>
<path d="M57.6617 59.21H17.8231C17.2455 59.21 16.7744 58.7389 16.7744 58.1618V48.726C16.7744 48.1489 17.2455 47.6778 17.8231 47.6778C18.4002 47.6778 18.8713 48.1489 18.8713 48.726V57.1131H56.6135V8.88737H17.8231C17.2455 8.88737 16.7744 8.41627 16.7744 7.83871C16.7744 7.26114 17.2455 6.79048 17.8231 6.79048H57.6617C58.2393 6.79048 58.7104 7.26114 58.7104 7.83871V58.1618C58.7104 58.7389 58.2393 59.21 57.6617 59.21Z" fill="#F96B09"/>
<path d="M36.3211 45.5809H4.19377C1.87959 45.5809 0 43.7013 0 41.3876C0 40.7201 0.155582 40.0808 0.45849 39.4832L16.8889 7.3598C17.151 6.84785 17.7898 6.64316 18.3018 6.90522C18.8181 7.16727 19.0184 7.80177 18.7564 8.31806L2.32635 40.4371C2.17468 40.7405 2.09689 41.0556 2.09689 41.3876C2.09689 42.5423 3.03864 43.484 4.19377 43.484H36.3211C37.5088 43.484 38.5775 42.8291 39.1181 41.7722L56.728 7.3598C56.994 6.84351 57.625 6.64316 58.1409 6.90522C58.6567 7.16727 58.8575 7.80177 58.5955 8.31806L40.9855 42.7265C40.0846 44.4875 38.2993 45.5809 36.3211 45.5809Z" fill="#F96B09"/>
<path d="M35.6786 40.3389H7.62557C7.26138 40.3389 6.92154 40.1507 6.73293 39.8391C6.5404 39.5241 6.52824 39.139 6.69207 38.8113L20.6323 11.5531C20.8944 11.0412 21.5293 10.8365 22.0413 11.0985C22.5571 11.3606 22.7618 11.9955 22.4998 12.5114L9.33741 38.242H35.0355L48.6932 11.5531C48.9596 11.0373 49.5902 10.8365 50.1061 11.0985C50.6224 11.3606 50.8227 11.9955 50.5607 12.5114L36.6121 39.7696C36.4322 40.1177 36.0715 40.3389 35.6786 40.3389Z" fill="#F96B09"/>
</svg>
