<svg width="33" height="28" viewBox="0 0 33 28" fill="none" xmlns="http://www.w3.org/2000/svg">
<path d="M29.1449 27.3375H3.85458C1.72907 27.3375 0 25.609 0 23.484V7.40208C0 5.27714 1.72907 3.54807 3.85458 3.54807H11.2668C11.5615 3.54807 11.8004 3.787 11.8004 4.08135C11.8004 4.3757 11.5615 4.61463 11.2668 4.61463H3.85458C2.31778 4.61463 1.06713 5.865 1.06713 7.40208V23.484C1.06713 25.0205 2.31778 26.2709 3.85458 26.2709H29.1449C30.6822 26.2709 31.9329 25.0205 31.9329 23.484V7.40208C31.9329 5.86556 30.6822 4.61463 29.1449 4.61463H21.7742C21.4795 4.61463 21.2406 4.3757 21.2406 4.08135C21.2406 3.787 21.4795 3.54807 21.7742 3.54807H29.1449C31.2706 3.54807 33 5.27657 33 7.40208V23.484C32.9994 25.609 31.2706 27.3375 29.1449 27.3375Z" fill="#F96B09"/>
<path d="M16.4992 21.7402C16.3493 21.7402 16.2062 21.6775 16.105 21.5663L1.25645 5.28478C1.05795 5.06705 1.07351 4.72944 1.29123 4.53094C1.50952 4.33273 1.84685 4.34856 2.04535 4.56572L16.4989 20.4149L30.949 4.55865C31.1469 4.34121 31.4848 4.32509 31.7031 4.52359C31.9209 4.72209 31.9367 5.05913 31.7382 5.27714L16.8942 21.5658C16.7921 21.6775 16.6493 21.7402 16.4992 21.7402Z" fill="#F96B09"/>
<path d="M1.99864 26.7657C1.85754 26.7657 1.71729 26.7103 1.61211 26.6003C1.4088 26.3871 1.417 26.0495 1.63049 25.8462L11.8415 16.1153C12.0538 15.9117 12.392 15.9196 12.5959 16.1328C12.7992 16.3463 12.7913 16.6839 12.5778 16.8872L2.36679 26.6181C2.2633 26.7168 2.13097 26.7657 1.99864 26.7657Z" fill="#F96B09"/>
<path d="M31.4377 26.4142C31.3059 26.4142 31.1747 26.3656 31.0712 26.2692L20.7511 16.5298C20.5373 16.3271 20.5271 15.9895 20.7293 15.7757C20.9315 15.5617 21.2694 15.552 21.4837 15.7537L31.8036 25.493C32.0176 25.6958 32.0278 26.0334 31.8256 26.2474C31.7204 26.3583 31.5796 26.4142 31.4377 26.4142Z" fill="#F96B09"/>
<path d="M18.7419 3.56503H17.7579L17.7621 4.40341C17.4836 3.79067 16.885 3.40357 16.0141 3.40357C14.5308 3.40357 13.6025 4.53094 13.6132 6.28913L13.6175 6.91884C13.6302 8.75649 14.5565 9.80553 16.0729 9.80553C17.0094 9.80553 17.7163 9.32229 18.0822 8.5792C18.3124 9.28808 18.879 9.70741 19.7027 9.70741C21.0571 9.70741 22.1472 8.46666 22.1299 5.88677C22.1065 2.46679 19.9286 0 16.5409 0C12.7808 0 10.4452 2.70968 10.4709 6.59564C10.4986 10.8845 12.9343 13.2091 16.6602 13.2091C18.2745 13.2091 19.6111 12.8687 20.7037 12.2554L20.6952 11.1269C19.4904 11.821 18.1385 12.1598 16.6534 12.1598C13.7504 12.1598 11.6398 10.3694 11.6169 6.59564C11.5918 3.27322 13.3528 1.04904 16.5463 1.04904C19.4019 1.04904 20.9963 3.09678 21.0153 5.90175C21.0283 7.91755 20.4365 8.62784 19.6937 8.62784C19.1463 8.62784 18.7716 8.25601 18.7654 7.32121L18.7419 3.56503ZM17.6341 6.82129C17.6431 8.09653 17.0979 8.77346 16.2101 8.77346C15.3242 8.77346 14.7706 8.11152 14.7624 6.8538L14.7587 6.3536C14.7522 5.11229 15.2778 4.43565 16.1832 4.43565C17.1028 4.43565 17.6225 5.16092 17.6309 6.40224L17.6341 6.82129Z" fill="#F96B09"/>
</svg>
