<svg width="45" height="32" viewBox="0 0 45 32" fill="none" xmlns="http://www.w3.org/2000/svg">
<path d="M39.6081 25.8696C36.1471 26.2054 32.6861 26.5592 29.2196 26.9038C25.139 27.3123 21.0698 27.7179 16.9892 28.1264C13.4672 28.4711 9.94267 28.8219 6.67879 29.1435C4.29223 29.184 2.9918 28.1323 2.74864 26.0346C2.43577 23.3488 2.16959 20.6545 1.94945 17.9658C1.79285 16.0332 2.85012 14.6397 4.81649 14.379C7.70396 13.9964 10.6177 13.7533 13.5223 13.4634C19.5492 12.8607 25.579 12.2638 31.6061 11.6702C33.7985 11.4497 35.9908 11.192 38.1832 11.0441C40.5869 10.8791 41.841 11.9915 42.0812 14.3732C42.3335 16.8388 42.4667 19.3304 42.8807 21.7815C43.2889 24.195 41.5109 25.6899 39.6081 25.8696ZM44.9398 22.9027C44.5894 19.4549 44.1348 16.3376 43.9928 13.2057C43.8596 10.4242 41.1053 8.71788 38.7567 9.03951C35.2176 9.52324 31.6551 9.76672 28.0988 10.1201C24.0211 10.5257 19.9402 10.966 15.8625 11.3658C12.0569 11.7337 8.25124 12.1076 4.44883 12.3916C1.67419 12.603 -0.234471 14.663 0.0232811 17.427C0.31313 20.5501 0.791025 23.6675 0.923953 26.8023C1.03419 29.552 3.52481 31.377 6.16328 31.0933C8.94927 30.7947 11.7297 30.5457 14.5157 30.2705C23.2303 29.4012 31.9508 28.532 40.6651 27.6716C43.1152 27.4368 45.4031 25.3537 44.9398 22.9027Z" fill="#F96B09"/>
<path d="M20.9368 4.6211C20.0131 4.61234 19.3092 3.90847 19.3092 2.99288C19.3151 2.07438 20.0215 1.37893 20.9456 1.37893C21.8692 1.38477 22.5731 2.09189 22.5731 3.00715C22.5644 3.9169 21.8433 4.63568 20.9368 4.6211ZM20.9514 4.4218e-05C19.2369 -0.00870963 17.9307 1.28329 17.9219 2.98413C17.9132 4.67621 19.2223 5.99156 20.928 6.00582C22.6107 6.02333 23.9517 4.69923 23.9575 3.0159C23.9575 1.31539 22.66 0.00847388 20.9514 4.4218e-05Z" fill="#F96B09"/>
<path d="M35.1448 7.98485L30.1405 8.44848C30.1376 8.44848 30.1376 8.44848 30.1376 8.44848C29.5728 8.26011 29.0168 7.92681 28.4663 7.68916C26.972 7.03457 25.4864 6.35372 24.0527 5.71047C24.3568 4.91355 24.6234 4.20676 24.9359 3.39557C28.3042 4.91063 31.7247 6.44644 35.1448 7.98485Z" fill="#F96B09"/>
<path d="M8.2041 10.6097C11.158 8.49483 14.1178 6.38256 17.1097 4.24144C17.573 4.9398 18.0103 5.59439 18.4882 6.3161C16.6781 7.60226 14.8969 8.9523 13.0262 10.1607L8.2041 10.6097Z" fill="#F96B09"/>
<path d="M39.3327 22.3492C37.9688 22.8826 37.0246 22.5723 36.1732 21.4829C35.1101 20.1212 33.8765 18.8957 32.5151 17.3894C32.721 19.4319 32.8977 21.1934 33.0857 23.0706C32.4775 23.1403 31.9127 23.2068 31.2205 23.2882C30.9573 20.6225 30.7021 18.0151 30.4473 15.4279C31.9477 14.8657 32.5067 14.9989 33.5056 16.1029C34.6815 17.4007 35.8633 18.6989 37.2127 20.188C37.0188 18.2006 36.8509 16.491 36.6771 14.6802C37.2853 14.6251 37.853 14.5762 38.5394 14.5152C38.8085 17.1806 39.0691 19.7591 39.3327 22.3492Z" fill="#F96B09"/>
<path d="M9.87306 24.0442C8.57263 24.0296 7.57048 22.8303 7.55622 21.2803C7.54746 19.7532 8.54961 18.6959 9.99173 18.7102C11.3615 18.719 12.2622 19.8459 12.2768 21.5468C12.2914 23.0359 11.3067 24.053 9.87306 24.0442ZM10.209 17.201C7.35326 17.201 5.47378 18.8843 5.48837 21.4365C5.50555 23.911 7.24335 25.5884 9.77158 25.5709C12.4418 25.5479 14.391 23.7631 14.3735 21.3584C14.3592 18.8843 12.6678 17.1922 10.209 17.201Z" fill="#F96B09"/>
<path d="M20.1379 19.5736C19.7933 20.498 18.8375 20.3242 17.931 20.5213C17.8295 19.6579 17.7339 18.8756 17.6327 17.9918C18.4929 17.7629 19.3154 17.5515 19.9032 18.2093C20.1697 18.5076 20.2855 19.1885 20.1379 19.5736ZM22.3215 18.4843C22.1507 17.3544 21.5308 16.5808 20.3957 16.5344C18.8083 16.4621 17.2012 16.6129 15.5098 16.6735C15.7935 19.4637 16.0512 22.048 16.3177 24.7193C16.9982 24.6875 17.601 24.6554 18.2669 24.6236C18.1975 23.6617 18.1249 22.7753 18.0643 21.9524C19.0953 21.6625 20.0828 21.4917 20.9748 21.1007C22.032 20.6371 22.4953 19.5795 22.3215 18.4843Z" fill="#F96B09"/>
<path d="M23.5049 15.9842C25.2573 15.8072 26.9108 15.6393 28.6544 15.4626C28.7154 15.9696 28.7643 16.3811 28.8223 16.8677C27.7333 16.9838 26.7315 17.0937 25.6483 17.2098C25.7147 17.8498 25.7728 18.3915 25.8392 19.0205C26.8038 18.9362 27.7161 18.8552 28.7588 18.7653C28.8165 19.1972 28.8775 19.6346 28.9439 20.1446C27.9505 20.2545 27.0356 20.3559 25.9871 20.472C26.0477 21.0715 26.1028 21.6366 26.1754 22.3463C27.2788 22.2507 28.3415 22.1609 29.5 22.0626C29.5755 22.4912 29.6449 22.8997 29.7376 23.4272C27.9158 23.6124 26.1725 23.7923 24.3073 23.9804C24.0379 21.2949 23.7772 18.6901 23.5049 15.9842Z" fill="#F96B09"/>
</svg>
