<svg width="22" height="24" viewBox="0 0 22 24" fill="none" xmlns="http://www.w3.org/2000/svg">
<g filter="url(#filter0_d_25_3007)">
<ellipse cx="17.2604" cy="6.93882" rx="2.54075" ry="4.17726" transform="rotate(-18.5907 17.2604 6.93882)" fill="#F96B0A"/>
<ellipse cx="10.7767" cy="4.7193" rx="2.54075" ry="4.17726" transform="rotate(-16.1575 10.7767 4.7193)" fill="#F96B0A"/>
<ellipse cx="5.70772" cy="7.63273" rx="2.54075" ry="4.17726" transform="rotate(-41.2598 5.70772 7.63273)" fill="#F96B0A"/>
<ellipse cx="4.66475" cy="14.1487" rx="2.54075" ry="4.17726" transform="rotate(-41.2598 4.66475 14.1487)" fill="#F96B0A"/>
<path d="M10.2947 9.85424C12.5099 8.29038 20.9669 12.3318 20.8506 15.5883C20.7204 19.2373 18.2443 18.3251 15.8986 19.4979C13.3395 20.7775 13.5529 24.4501 9.38245 22.1043C7.85446 21.2448 8.07939 11.4181 10.2947 9.85424Z" fill="#F96B0A"/>
</g>
<defs>
<filter id="filter0_d_25_3007" x="1.3125" y="0.644533" width="20.5391" height="23.2257" filterUnits="userSpaceOnUse" color-interpolation-filters="sRGB">
<feFlood flood-opacity="0" result="BackgroundImageFix"/>
<feColorMatrix in="SourceAlpha" type="matrix" values="0 0 0 0 0 0 0 0 0 0 0 0 0 0 0 0 0 0 127 0" result="hardAlpha"/>
<feOffset dx="1" dy="1"/>
<feComposite in2="hardAlpha" operator="out"/>
<feColorMatrix type="matrix" values="0 0 0 0 0 0 0 0 0 0 0 0 0 0 0 0 0 0 0.25 0"/>
<feBlend mode="normal" in2="BackgroundImageFix" result="effect1_dropShadow_25_3007"/>
<feBlend mode="normal" in="SourceGraphic" in2="effect1_dropShadow_25_3007" result="shape"/>
</filter>
</defs>
</svg>
