<svg width="30" height="30" viewBox="0 0 30 30" fill="none" xmlns="http://www.w3.org/2000/svg">
<path d="M14.6596 16.6278C13.3853 15.5798 12.5344 14.2868 12.087 13.5511L11.7536 12.9219C11.8701 12.7967 12.7597 11.8441 13.1453 11.3273C13.63 10.6781 12.9275 10.0918 12.9275 10.0918C12.9275 10.0918 10.9506 8.11489 10.5001 7.72283C10.0497 7.3301 9.5311 7.54833 9.5311 7.54833C8.58426 8.15995 7.60278 8.69187 7.54395 11.2498C7.54173 13.6448 9.35971 16.1146 11.3258 18.0271C13.2949 20.1868 15.9985 22.3511 18.6122 22.3486C21.1699 22.2905 21.7016 21.309 22.3134 20.3622C22.3134 20.3622 22.5316 19.8438 22.1393 19.3931C21.7468 18.9422 19.7699 16.9653 19.7699 16.9653C19.7699 16.9653 19.184 16.2629 18.5347 16.7479C18.0507 17.1098 17.182 17.9139 16.9727 18.1093C16.9729 18.1095 15.5194 17.3347 14.6596 16.6278Z" fill="#F96B09"/>
<path d="M14.9997 30C6.72893 30 0 23.2711 0 14.9999C0 6.72893 6.72893 0 14.9997 0C23.2709 0 30 6.72893 30 14.9999C30 23.2711 23.2709 30 14.9997 30ZM14.9997 1.47943C7.54457 1.47943 1.47943 7.54479 1.47943 14.9999C1.47943 22.4552 7.54457 28.5206 14.9997 28.5206C22.455 28.5206 28.5206 22.4552 28.5206 14.9999C28.5206 7.54479 22.455 1.47943 14.9997 1.47943Z" fill="#F96B09"/>
</svg>
