<svg width="19" height="19" viewBox="0 0 19 19" fill="none" xmlns="http://www.w3.org/2000/svg">
<rect x="1" y="1" width="17" height="17" rx="1" stroke="#F96B0A" stroke-width="2"/>
<path d="M5.11265 3.80765C5.22173 3.70974 5.43047 3.69735 5.58144 3.85924C6.23965 4.56505 6.83151 5.10834 7.589 5.65469C7.83274 5.83049 7.81352 6.14624 7.64545 6.28462C7.07055 6.75799 6.84526 7.61193 7.27366 8.31397C8.08241 9.63931 9.15674 10.5559 10.6672 11.1904C11.3796 11.4897 12.1551 11.2061 12.5687 10.6274L12.6511 10.5122C12.7747 10.3393 13.0644 10.2965 13.257 10.4957C13.9512 11.214 14.5827 11.7295 15.3744 12.2693C15.5665 12.4003 15.5831 12.6226 15.4913 12.7506C14.8402 13.6578 14.2557 14.3018 13.4123 15.1218C13.3047 15.2264 13.1338 15.2457 13.0009 15.1611C8.72479 12.4395 6.4154 10.4134 3.09528 6.6547C2.99357 6.53956 2.98509 6.37893 3.05869 6.2642C3.70995 5.24889 4.25835 4.57448 5.11265 3.80765Z" stroke="#F96B0A" stroke-width="1.3"/>
</svg>
