<svg width="19" height="21" viewBox="0 0 19 21" fill="none" xmlns="http://www.w3.org/2000/svg">
<circle cx="9.5" cy="9.5" r="8.5" stroke="#F96B0A" stroke-width="2"/>
<path d="M8.5298 15V6.99H10.4048V15H8.5298ZM9.4748 5.67C9.1248 5.67 8.8348 5.56 8.6048 5.34C8.3848 5.12 8.2748 4.855 8.2748 4.545C8.2748 4.225 8.3848 3.96 8.6048 3.75C8.8348 3.53 9.1248 3.42 9.4748 3.42C9.8248 3.42 10.1098 3.525 10.3298 3.735C10.5598 3.935 10.6748 4.19 10.6748 4.5C10.6748 4.83 10.5648 5.11 10.3448 5.34C10.1248 5.56 9.8348 5.67 9.4748 5.67Z" fill="#F96B0A"/>
</svg>
