<svg width="100" height="94" viewBox="0 0 100 94" fill="none" xmlns="http://www.w3.org/2000/svg">
<path d="M34.1752 43.5302C34.546 43.5292 34.8471 43.8323 34.8471 44.2052C34.8471 44.5781 34.546 44.8823 34.1752 44.8823C33.8044 44.8813 33.5033 44.5781 33.5033 44.2052C33.5033 43.8323 33.8044 43.5302 34.1752 43.5302ZM32.8783 41.0771C32.1127 41.0417 31.3773 41.2365 30.7742 41.5875C29.494 42.3302 29.0294 43.1219 28.6856 44.3125C28.4169 45.2427 28.7835 46.1938 29.4617 46.7583C29.8304 47.0552 30.4283 47.1969 30.8846 47.1052C31.1117 47.0604 31.3002 46.9646 31.4283 46.8219C31.5575 46.6813 31.6408 46.4896 31.6408 46.1927V43.1979C31.6408 42.7292 32.044 42.7719 32.0617 43.0802L32.2335 46.1927C32.2335 46.6125 32.0971 46.9708 31.8669 47.225C31.6367 47.4792 31.3263 47.625 31.0012 47.6917C30.3502 47.8208 29.619 47.6479 29.0919 47.226C28.6554 46.876 28.2877 46.3688 28.119 45.7708L26.969 46.5271C26.5367 46.7615 26.496 46.999 26.5992 47.4438C27.0919 49.5656 29.8262 52.1969 32.7731 52.1969C33.3898 52.1969 33.5794 51.9854 33.5794 51.5583V50.4302C33.5794 49.7135 34.0179 49.374 34.9637 49.2333L37.2856 48.7854C38.7919 48.5625 39.119 47.7354 39.3846 46.999C39.694 46.1396 39.3815 45.5771 38.7429 45.4052C36.9867 44.9323 37.0096 44.6073 36.4981 43.5563C35.6544 41.8198 34.1544 41.1385 32.8783 41.0771Z" fill="black"/>
<path d="M34.8647 56.0285L37.6803 55.743L38.8824 55.3639L41.697 54.0983L43.9116 51.9795L44.323 51.4097L45.5563 49.2274L45.7782 48.6264L45.873 47.993L46.0626 47.4868L46.1897 46.791L46.348 44.5764L46.1897 42.3941L45.9366 41.2233L45.6834 40.5597L45.5251 39.8316L44.9553 38.7878L44.7345 38.218L44.323 37.6805L43.9438 37.3014L43.5324 36.7316L42.172 35.4983L40.5584 34.4858L36.4147 33.1889L34.9282 33.1566L32.7136 33.2837L32.0803 33.4097L31.448 33.5993L30.8782 33.8524L29.6761 34.1691L28.0636 35.1816L27.6199 35.5608L26.6084 36.2566L25.7543 37.2055L24.6782 38.7878L24.3938 39.3253L23.7928 41.0649L23.5397 42.4253L23.4126 46.0951L23.7605 48.0878L24.2355 49.1639L24.4251 49.8285L24.7418 50.3972L26.2282 52.4222L27.1147 53.2764L27.5251 53.7503L29.6761 54.8899L30.2772 55.142L32.9668 55.9337L34.8647 56.0285ZM33.9793 50.4608L33.3459 50.2389L32.7761 50.1764L31.7011 49.6066L30.7209 48.7524L30.4043 48.3097L29.9928 47.867L29.3918 46.0951L29.2334 44.5139L29.2657 43.5649L29.4866 42.3941L29.6761 41.8243L30.0563 41.3816L30.3407 40.8441L30.7522 40.3378L31.2261 39.9264L32.1438 39.2941L32.7136 39.0087L33.3772 38.8514L34.8324 38.7243L36.3511 38.8191L38.0282 39.5472L39.0084 40.2743L39.7366 41.3503L39.9897 41.9191L40.1793 42.5524L40.4001 43.1212L40.5272 44.4816L40.3376 46.0639L40.0522 47.3608L39.7043 47.8347L39.4199 48.3097L39.0397 48.8785L38.0595 49.6378L37.4897 49.891L36.9845 50.1764L36.4147 50.2389L35.8136 50.3972L33.9793 50.4608Z" fill="#F96B09"/>
<path d="M60.4084 33.3886C60.7064 33.3886 60.947 33.6302 60.947 33.9271C60.947 34.225 60.7064 34.4656 60.4084 34.4656C60.1105 34.4656 59.8699 34.225 59.8699 33.9271C59.8699 33.6302 60.1105 33.3886 60.4084 33.3886ZM57.7532 28.7302C57.4553 28.7094 57.148 28.9021 57.0064 29.3521L56.447 31.1354C53.573 33.7458 55.448 35.7073 53.8387 36.3L53.0126 36.6031C52.5689 36.7667 52.5439 37.0594 52.6574 37.4823C53.3053 39.9063 55.5303 41.1 58.3689 41.1C58.9616 41.1 59.1449 40.8979 59.1449 40.4896V39.4948C59.1449 38.8073 59.2782 38.2938 60.1845 38.1261L62.3418 37.7823C63.0824 37.6177 63.5512 36.8042 63.7918 35.8646C64.0334 34.924 63.7626 34.6073 63.1189 34.2854C62.6647 34.0583 62.1855 33.525 61.9324 33.2208C61.872 33.1042 61.8137 32.9813 61.7595 32.8448C61.4126 31.9802 61.0022 31.5646 60.3897 31.3427C60.3897 31.3427 60.2907 30.4563 60.2407 30.0136C60.148 29.1833 59.2897 29.0865 58.9532 29.9271L58.7189 30.5156L58.4428 29.4042C58.3387 28.9906 58.0512 28.7531 57.7532 28.7302Z" fill="black"/>
<path d="M7.55964 48.8037L7.78151 49.6256L8.38255 49.9423L9.01484 50.0058L10.343 49.911L11.5773 49.9735L12.7794 49.911L13.3805 50.0058L14.0763 49.9423L20.3398 49.9735L20.9409 49.6579L21.2888 48.6766L21.2576 46.1141L20.9721 45.1652L20.4034 44.786L19.7388 44.8496L19.1378 44.9756L18.4732 44.8808L17.1763 44.9121L16.544 44.786L15.9742 44.8808L14.7409 44.8173L14.0763 44.8808L13.444 44.6277L13.1909 43.9954L13.2221 33.2714L13.1586 32.5121L13.2221 31.2464L13.1273 29.4433L13.1586 28.8423L12.843 28.1464L12.2096 27.7673H10.9763L10.343 27.8933L9.07839 27.7673L8.47734 27.8621L7.81276 28.1152L7.52839 28.811V33.2391L7.46484 33.8402L7.52839 34.4735L7.43359 35.6433L7.46484 36.3391L7.52839 36.9402L7.55964 48.8037Z" fill="#F96B09"/>
<path d="M60.2372 44.6984L63.0529 44.413L64.2549 44.0339L67.0695 42.7682L69.2841 40.6495L69.6956 40.0797L70.9289 37.8974L71.1508 37.2964L71.2456 36.663L71.4352 36.1568L71.5622 35.4609L71.7206 33.2464L71.5622 31.0641L71.3091 29.8932L71.056 29.2297L70.8977 28.5016L70.3279 27.4578L70.107 26.888L69.6956 26.3505L69.3164 25.9714L68.9049 25.4016L67.5445 24.1682L65.931 23.1557L61.7872 21.8589L60.3008 21.8266L58.0862 21.9537L57.4529 22.0797L56.8206 22.2693L56.2508 22.5224L55.0487 22.8391L53.4362 23.8516L52.9924 24.2307L51.981 24.9266L51.1268 25.8755L50.0508 27.4578L49.7664 27.9953L49.1654 29.7349L48.9122 31.0953L48.7852 34.7651L49.1331 36.7578L49.6081 37.8339L49.7977 38.4984L50.1143 39.0672L51.6008 41.0922L52.4872 41.9464L52.8977 42.4203L55.0487 43.5599L55.6497 43.812L58.3393 44.6037L60.2372 44.6984ZM59.3518 39.1307L58.7185 38.9089L58.1487 38.8464L57.0737 38.2766L56.0935 37.4224L55.7768 36.9797L55.3654 36.537L54.7643 34.7651L54.606 33.1839L54.6383 32.2349L54.8591 31.0641L55.0487 30.4943L55.4289 30.0516L55.7133 29.5141L56.1247 29.0078L56.5987 28.5964L57.5164 27.9641L58.0862 27.6787L58.7497 27.5214L60.2049 27.3943L61.7237 27.4891L63.4008 28.2172L64.381 28.9443L65.1091 30.0203L65.3622 30.5891L65.5518 31.2224L65.7727 31.7912L65.8997 33.1516L65.7102 34.7339L65.4247 36.0307L65.0768 36.5047L64.7924 36.9797L64.4122 37.5484L63.432 38.3078L62.8622 38.5609L62.357 38.8464L61.7872 38.9089L61.1862 39.0672L59.3518 39.1307Z" fill="#F96B09"/>
<path d="M76.2107 50.0335L78.1721 49.9387L79.0586 50.0022L80.0701 49.9074L80.7034 49.6543L81.0513 48.9585L80.9878 46.4272L81.0826 45.7626L80.9878 42.4418L81.3357 41.9033L82.1263 41.5553L82.9805 41.6189L83.7086 42.1564L84.0242 42.6626L84.2461 43.3272L85.543 45.447L85.7648 45.9845L86.0492 46.4272L86.6503 47.5981L87.0294 48.072L87.3461 48.6731L87.6628 49.0845L88.2638 49.6856L88.9909 50.0022L92.1867 49.9699L92.7555 49.9074L93.3888 49.9387L94.0523 49.7803L94.2107 49.0845L92.2492 45.5095L91.8378 45.0033L90.8576 43.3908L90.5096 42.9481L90.1617 42.347L89.9086 41.8085L88.8648 40.1324L88.7378 39.4043L89.1492 38.7408L90.1305 37.9178L91.1419 36.621L91.6169 35.7981L91.8378 35.2293L92.3763 33.3939L92.5971 31.3699L92.5346 30.7366L92.6294 28.7751L92.344 28.1428L91.6482 27.8585L90.6992 27.7637L89.6555 27.8897L88.7065 27.7637L87.7576 27.7949L87.093 28.1741L86.8398 28.7751V29.471L86.7451 30.072L86.7763 30.7053L86.5242 32.7616L86.3336 33.2356L86.144 33.9001L85.4169 34.9126L84.3096 35.7033L83.7398 35.9564L83.044 36.0512L82.4117 36.2408H81.7148L81.1773 35.8616L81.019 35.197L81.0513 34.596L81.019 32.3189L80.9565 31.7491L81.019 30.9897L80.9878 30.0095L81.0513 28.7126L80.6398 28.2064L79.7221 27.921L78.1409 27.7637L77.5398 27.7949L76.9065 27.7314L76.2107 27.7637L75.5784 28.1741L75.294 28.7751L75.2305 29.3137L75.294 33.1731L75.1992 33.8053L75.294 34.4376L75.2305 38.3293L75.3253 38.8668L75.1992 40.1637L75.294 40.8595L75.2617 42.0939L75.3253 42.6626L75.2305 43.9595L75.294 45.2564L75.2617 45.7626L75.3253 46.4272L75.2617 47.0595L75.3253 48.6731L75.6419 49.6543L76.2107 50.0335Z" fill="#F96B09"/>
<path d="M25.1181 34.5159L25.2848 34.5825L25.4796 34.5273L25.941 34.1669L26.2379 33.87L26.3233 33.6992L26.2368 33.443L26.0441 33.2555L25.9535 33.1232L25.3733 32.4544L25.3223 32.2784L25.4004 32.1127L25.5296 31.9805L25.6848 31.8919L25.791 31.7586L25.9296 31.6627L26.0577 31.5419L26.1952 31.4461L26.4462 31.2117L26.5254 31.0336L26.4212 30.7825L25.9327 30.2211L25.7598 30.1482L25.5827 30.2107L25.2598 30.4638L24.9441 30.7763L24.6691 30.9565L24.5348 31.0815L24.3639 31.1388L24.1796 31.0648L24.0275 30.8867L23.9379 30.7555L23.6806 30.4794L23.6368 30.2982L23.6868 30.1117L23.891 29.9388L24.0858 29.794L24.1952 29.6898L24.3285 29.5877L24.4514 29.4617L24.9462 29.0627L25.0191 28.8898L24.9743 28.7086L24.6848 28.395L24.4921 28.1419L24.2525 28.0159L24.0848 28.0377L23.7087 28.37L23.5514 28.47L23.3139 28.694L23.1889 28.7784L23.0087 28.9544L22.8764 29.0565L22.6889 29.2367L22.441 29.4482L22.316 29.5336L21.991 29.8096L21.8681 29.9357L21.6848 30.0815L21.6035 30.2711L21.6629 30.418L21.866 30.695L22.0483 30.87L22.6296 31.6044L22.7348 31.7023L22.8546 31.8305L22.94 31.9565L23.0764 32.0919L23.1618 32.2169L23.2587 32.344L23.3743 32.4534L23.4858 32.6107L25.1181 34.5159Z" fill="#F96B09"/>
<path d="M30.4771 31.506L31.1573 31.1946L31.425 30.9966L32.0209 30.4393L32.3938 29.7206L32.4479 29.5425L32.5709 28.8914L32.574 28.7216L32.5438 28.555L32.5479 28.4123L32.5209 28.2279L32.3709 27.6602L32.1448 27.1279L31.9813 26.8571L31.8615 26.7123L31.7594 26.5435L31.5282 26.331L31.424 26.2081L31.275 26.1081L31.1479 26.0456L30.9959 25.9383L30.55 25.7466L30.0604 25.631L28.9125 25.6602L28.5386 25.78L27.9948 26.0008L27.8479 26.0862L27.7063 26.1873L27.5854 26.2998L27.3115 26.4821L26.9938 26.8727L26.9157 27.005L26.7219 27.2664L26.5896 27.5768L26.4563 28.0643L26.4302 28.2227L26.4292 28.7091L26.4813 29.0716L26.7636 29.9998L27.0209 30.4685L27.2313 30.6977L27.3354 30.8477L27.4636 30.9623L28.0084 31.3425L28.3032 31.48L28.4469 31.5633L29.0823 31.6643L29.2542 31.6768L29.9938 31.6446L30.4771 31.506ZM29.7792 30.1893L29.6021 30.1883L29.4542 30.2206L29.1365 30.1706L28.8188 30.0404L28.7021 29.956L28.5615 29.881L28.2594 29.4893L28.0844 29.1071L28.0115 28.8664L27.9667 28.555L27.9657 28.3966L28.0229 28.2529L28.0479 28.0946L28.1073 27.9331L28.1907 27.7893L28.3667 27.5529L28.4844 27.4331L28.6375 27.3362L28.9907 27.18L29.3782 27.0748L29.8594 27.1133L30.1677 27.2112L30.4417 27.4185L30.5532 27.5393L30.6552 27.681L30.7584 27.805L30.9063 28.1341L30.9948 28.5456L31.0344 28.8946L30.9875 29.0435L30.9573 29.1862L30.9104 29.3612L30.7302 29.6352L30.6094 29.7466L30.5073 29.8612L30.3698 29.9258L30.2334 30.0164L29.7792 30.1893Z" fill="#F96B09"/>
<path d="M35.3457 30.913L35.5978 30.9099L35.7551 30.9318L36.4197 30.8224L36.7332 30.6901L37.0239 30.5307L37.278 30.3182L37.4947 30.0432L37.5593 29.8807L37.6551 29.7464L37.7603 29.4036L37.8374 29.0068L38.0343 26.7578L38.0312 26.5984L38.0645 26.4161L38.0593 26.2818L38.1197 25.5901L38.1593 25.4255L38.0666 25.2411L37.8884 25.1672L37.3614 25.138L37.0145 25.0818L36.8322 25.1505L36.7239 25.3255L36.4541 28.6089L36.3499 29.1203L36.2895 29.2411L36.1832 29.3995L36.0332 29.487L35.7322 29.5703L35.2322 29.5266L35.0437 29.4682L34.9093 29.3724L34.7853 29.2609L34.6968 29.1182L34.6603 28.9557L34.653 28.4682L34.9124 25.788L34.9072 25.662L34.9468 25.3964L34.9509 25.1536L34.8676 24.962L34.6989 24.8714L34.5405 24.8578L34.3718 24.8682L34.0166 24.8036L33.8395 24.813L33.6593 24.8641L33.5364 25.013L33.5384 25.1807L33.5218 25.3807L33.4926 25.513L33.4155 26.6807L33.3759 26.8453L33.3791 27.0057L33.2364 28.3443L33.228 29.0151L33.2822 29.3641L33.3905 29.6589L33.5562 29.9755L33.6457 30.1005L33.7614 30.2203L34.0124 30.4182L34.1718 30.5078L34.2905 30.5943L34.5947 30.763L34.9134 30.8578L35.0801 30.8724L35.3457 30.913Z" fill="#F96B09"/>
<path d="M37.9197 30.7371L37.876 31.0059L38.0416 31.2132L38.202 31.2673L38.4291 31.4111L38.5562 31.458L38.7791 31.5715L39.0551 31.6194L39.2333 31.4382L39.3624 31.185L39.4458 31.059L39.5041 30.8913L39.7624 30.4225L39.9062 30.308L40.0895 30.2986L40.4906 30.5788L40.5749 30.7819L40.5874 30.9767L40.5781 31.1413L40.6197 31.4444L40.6239 31.785L40.6489 31.9382L40.6322 32.1173L40.6489 32.2861L40.7447 32.5038L40.9624 32.7007L41.5541 32.9944L41.6885 33.0819L41.9374 33.2007L42.1135 33.2059L42.2416 33.0653L42.2437 32.859L42.2083 32.709L42.2208 32.5371L42.1624 32.0288L42.1645 31.86L42.1249 31.3507L42.0926 31.1934L42.177 31.0111L42.327 30.8819L42.4885 30.8236L42.6385 30.7882L43.1958 30.4153L43.5135 30.034L43.7395 29.5569L43.7937 29.3965L43.877 28.9038L43.8822 28.7465L43.8614 28.5861L43.6656 27.9225L43.4781 27.6475L43.2447 27.4059L42.8697 27.0913L42.6354 26.9621L42.4124 26.8663L41.9656 26.6371L41.8322 26.5309L41.6833 26.4548L41.5301 26.4236L41.3812 26.3475L41.2479 26.2413L41.0885 26.1496L40.6301 25.9621L40.4583 25.9673L40.2614 26.1309L39.3958 27.8382L39.3343 27.9944L39.1593 28.2809L39.0833 28.4486L39.0072 28.5975L38.9489 28.7465L38.8614 28.8798L38.5458 29.4788L38.4843 29.635L37.9197 30.7371ZM40.6999 29.108L40.5926 28.9496L40.5947 28.7996L40.8229 28.3538L40.8729 28.2194L41.0479 27.9142L41.1874 27.808L41.3739 27.8278L41.5197 27.9121L41.8322 28.035L42.0176 28.1861L42.2031 28.2996L42.326 28.41L42.3937 28.7361L42.377 28.8778L42.3083 29.0861L42.1708 29.2986L42.0281 29.4132L41.8885 29.483L41.7729 29.508L41.6083 29.4986L41.3656 29.4403L41.2208 29.3746L40.8708 29.1767L40.6999 29.108Z" fill="#F96B09"/>
<path d="M49.1707 48.6253L49.5124 48.8524L49.629 48.9472L49.7947 49.0472L49.977 49.0962L50.1405 48.9972L50.2322 48.8576L50.3467 48.7128L50.5145 48.4524L50.6207 48.3337L50.727 48.1732L50.8759 48.0951L51.0863 48.1337L51.2447 48.2285L51.3676 48.3587L52.104 48.8087L52.9342 49.018L53.0947 49.0097L53.2676 48.9701L53.4197 48.9462L53.5811 48.9087L53.8801 48.7941L54.1874 48.6139L54.3155 48.4795L54.4342 48.4003L54.8499 47.8545L54.9061 47.7201L54.9936 47.5566L55.0936 47.2472L55.1322 46.9232L55.1311 46.5826L55.0176 46.0972L54.902 45.7868L54.6905 45.5097L54.6092 45.3785L54.4738 45.2805L54.3728 45.1347L54.1749 44.9805L53.953 44.8305L53.7895 44.743L53.3811 44.4368L53.2603 44.3191L52.8207 44.042L52.677 43.9274L52.5697 43.818L52.4072 43.743L52.2113 43.7139L52.0717 43.7785L51.4853 44.6024L51.2624 44.8545L51.1822 44.993L49.9051 46.742L49.8259 46.8805L48.9113 48.1285L48.8926 48.3107L49.054 48.5305L49.1707 48.6253ZM51.8645 47.0451L51.7874 46.866L51.8103 46.7066L52.1863 46.143L52.303 46.0107L52.504 45.7326L52.6655 45.6535L52.8561 45.6889L53.5467 46.2191L53.6374 46.3785L53.6915 46.5316L53.7165 46.6826L53.6863 46.867L53.6176 47.0045L53.4947 47.2035L53.3478 47.3764L53.2124 47.4639L53.0728 47.5285L52.9061 47.5732L52.7395 47.5753L52.6061 47.5316L52.377 47.4066L52.0363 47.1493L51.8645 47.0451Z" fill="#F96B09"/>
<path d="M58.602 52.9262L58.9165 52.9783L59.0676 53.0314L59.3207 53.0856L59.5582 53.1001L59.6301 52.9116L59.6197 52.7106L59.5707 52.3804L59.4551 51.9043L59.4155 51.5762L59.3249 51.2439L59.1967 50.4293L59.1457 50.2876L59.102 50.1137L59.0978 49.9231L59.054 49.7824L59.0374 49.6408L58.9405 49.2991L58.9259 49.1147L58.6665 47.8543L58.6572 47.6793L58.604 47.5116L58.5905 47.3533L58.5061 47.0314L58.404 46.8512L58.1561 46.7043L57.8738 46.7304L57.6947 46.8324L57.5874 46.9522L57.4905 47.1012L57.3895 47.197L56.8811 47.8637L56.7624 47.9637L56.6822 48.1168L56.5551 48.2491L56.4697 48.3835L55.2155 49.9179L55.1228 50.0845L55.0124 50.1866L54.9155 50.3356L54.7051 50.5595L54.504 50.8543L54.3863 50.946L54.3103 51.0824L54.0686 51.3668L53.9801 51.5179L53.9707 51.7304L54.1207 51.8189L54.4415 51.8804L54.5999 51.9366L55.0592 52.0324L55.2603 52.021L55.4499 51.9126L55.6613 51.6804L55.854 51.5637L56.0467 51.5168L56.1947 51.5783L56.5436 51.6293L56.6842 51.6897L57.4822 51.8772L57.6238 51.9293L57.8092 51.9481L57.9655 52.0814L58.0884 52.2491L58.1228 52.422L58.1363 52.5793L58.2686 52.7418L58.4353 52.8689L58.602 52.9262ZM57.254 50.4522L57.0999 50.3804L56.9092 50.3501L56.7926 50.2616L56.8228 50.1054L57.4197 49.322L57.527 49.271L57.6249 49.3637L57.7874 50.3501L57.7186 50.4887L57.5811 50.5241L57.254 50.4522Z" fill="#F96B09"/>
<path d="M63.1754 52.7676L63.3389 52.8843L63.5431 52.9489L63.8504 52.8687L64.0149 52.7614L64.1056 52.5603L64.1462 52.4051L64.1535 52.2145L64.2014 52.0489L64.2097 51.901L64.2431 51.7124L64.2535 51.5728L64.366 50.9114L64.3743 50.7291L64.4493 50.3853L64.4816 50.0426L64.5681 50.0489L64.6816 50.1676L64.7712 50.3281L64.9733 50.5728L65.7295 51.7187L65.9139 51.9593L65.9993 52.102L66.1941 52.2374L66.4035 52.2916L66.5566 52.2478L66.6889 52.1906L66.8702 52.0801L66.9577 51.9051L66.9701 51.7395L67.0097 51.576L67.1691 50.0447L67.2097 49.8895L67.3181 49.1343L67.3295 48.8916L67.3691 48.727V48.5812L67.5681 47.076V46.8874L67.6149 46.7218L67.6545 46.1885L67.5597 46.0041L67.3879 46.002L67.2191 46.0156L66.9379 46.0978L66.6077 46.1572L66.441 46.2135L66.2806 46.2249L66.1285 46.3458L66.0295 46.5489L66.0254 46.7135L65.9837 46.8687L65.8691 48.4072L65.8743 48.577L65.8483 48.9437L65.8712 49.2989L65.8577 49.4656L65.7743 49.476L65.5035 49.0499L65.4254 48.8968L64.8608 48.0572L64.7077 47.7666L64.6066 47.627L64.4327 47.3239L64.3358 47.201L64.2358 47.0697L64.0837 46.9333L63.8899 46.8749L63.7108 46.9166L63.567 47.0364L63.467 47.2312L63.3858 48.0999L63.3316 48.4218L63.2577 49.4343L63.2056 49.576L63.2118 49.7541L63.1618 50.0926L63.0993 50.1156L63.0212 49.9281L62.0868 48.2739L61.9889 48.1499L61.817 47.8551L61.7472 47.6999L61.6441 47.552L61.467 47.4562L61.2952 47.4187L60.642 47.5624L60.4879 47.5635L60.3472 47.6218L60.1774 47.6697L60.0181 47.7593L60.0285 47.9541L60.1212 48.1645L60.6785 49.0135L60.7847 49.1343L61.3306 49.9687L61.4212 50.1364L61.791 50.6947L61.8952 50.8083L62.9847 52.5031L63.0941 52.6406L63.1754 52.7676Z" fill="#F96B09"/>
<path d="M71.9497 49.38L72.4768 48.981L72.5966 48.8633L72.7018 48.7268L72.8164 48.6029L72.906 48.4466L73.0132 48.3393L73.0903 48.181L73.3216 47.5591L73.3549 47.2112L73.3466 47.0675L73.3039 46.8664L73.2497 46.7175L73.1997 46.5758L72.9789 46.2175L72.7987 46.0185L72.3987 45.7175L72.2435 45.6695L71.9174 45.6091L71.7153 45.5987L71.5695 45.63L71.3945 45.6518L70.7591 45.9008L70.6132 45.9852L70.4768 46.0831L70.3185 46.1664L70.1289 46.3175L69.7257 46.5216L69.3893 46.5977L69.2185 46.5841L69.0362 46.4081L68.9278 46.206L68.9382 46.0581L68.9789 45.9081L69.0372 45.7664L69.1341 45.6456L69.3382 45.4727L69.5685 45.332L69.7122 45.2706L69.8924 45.256L70.0757 45.2581L70.2789 45.3112L70.4903 45.281L70.7768 45.0102L70.9632 44.8831L71.0945 44.7789L71.2226 44.6977L71.2737 44.507L71.2372 44.3539L71.1122 44.2508L70.9997 44.1372L70.5455 43.9435L70.2455 43.8612L69.5747 43.905L69.1091 44.0727L68.8122 44.2237L68.2987 44.6112L68.1862 44.7654L68.0601 44.8758L67.958 44.9893L67.7726 45.2664L67.6549 45.5737L67.5122 46.0404L67.5289 46.53L67.6976 46.9831L67.933 47.3195L68.1018 47.5164L68.356 47.7425L68.6424 47.8872L69.1247 47.9956L69.7622 47.8831L70.0601 47.7737L71.1799 47.0727L71.5039 46.9966L71.6518 47.007L71.8216 47.1393L71.8997 47.3445L71.8924 47.5102L71.7487 47.7862L71.556 47.9602L71.4539 48.0737L71.0945 48.307L70.9362 48.3372L70.7685 48.3539L70.3643 48.2904L70.1924 48.3425L70.0851 48.4487L69.9445 48.5279L69.4622 48.956L69.3862 49.1018L69.4435 49.281L69.5674 49.3966L69.6976 49.506L69.831 49.5925L70.1476 49.7352L70.307 49.7477L70.4705 49.7779L70.8143 49.7393L70.9841 49.7643L71.1549 49.7237L71.3164 49.6591L71.6445 49.5477L71.9497 49.38Z" fill="#F96B09"/>
</svg>
