<svg width="25" height="20" viewBox="0 0 25 20" fill="none" xmlns="http://www.w3.org/2000/svg">
<path d="M21.6186 19.34H3.72693C2.22324 19.34 1 18.1172 1 16.6139V5.23663C1 3.73334 2.22324 2.5101 3.72693 2.5101H8.97076C9.1792 2.5101 9.34823 2.67913 9.34823 2.88738C9.34823 3.09562 9.1792 3.26465 8.97076 3.26465H3.72693C2.63972 3.26465 1.75495 4.14922 1.75495 5.23663V16.6139C1.75495 17.7009 2.63972 18.5854 3.72693 18.5854H21.6186C22.7062 18.5854 23.591 17.7009 23.591 16.6139V5.23663C23.591 4.14962 22.7062 3.26465 21.6186 3.26465H16.4042C16.1958 3.26465 16.0267 3.09562 16.0267 2.88738C16.0267 2.67913 16.1958 2.5101 16.4042 2.5101H21.6186C23.1225 2.5101 24.346 3.73294 24.346 5.23663V16.6139C24.3456 18.1172 23.1225 19.34 21.6186 19.34Z" fill="#F96B09" stroke="#F96B0A"/>
<path d="M12.673 15.3802C12.567 15.3802 12.4658 15.3358 12.3942 15.2572L1.88954 3.7387C1.74911 3.58467 1.76011 3.34583 1.91414 3.2054C2.06857 3.06517 2.30722 3.07637 2.44765 3.23L12.6728 14.4426L22.8956 3.225C23.0357 3.07117 23.2747 3.05977 23.4291 3.2002C23.5832 3.34063 23.5944 3.57907 23.4539 3.7333L12.9525 15.2568C12.8803 15.3358 12.7793 15.3802 12.673 15.3802Z" fill="#F96B09" stroke="#F96B0A"/>
<path d="M2.41426 18.9355C2.31444 18.9355 2.21522 18.8963 2.1408 18.8184C1.99698 18.6676 2.00278 18.4288 2.15381 18.2849L9.37762 11.4008C9.52785 11.2568 9.7671 11.2624 9.91132 11.4132C10.0552 11.5642 10.0496 11.8031 9.89852 11.9469L2.67471 18.8311C2.60149 18.9009 2.50788 18.9355 2.41426 18.9355Z" fill="#F96B09" stroke="#F96B0A"/>
<path d="M23.241 18.6869C23.1478 18.6869 23.055 18.6525 22.9817 18.5843L15.6807 11.6942C15.5295 11.5507 15.5223 11.3119 15.6653 11.1607C15.8083 11.0092 16.0474 11.0024 16.199 11.145L23.4998 18.0352C23.6513 18.1786 23.6585 18.4175 23.5154 18.5689C23.441 18.6473 23.3414 18.6869 23.241 18.6869Z" fill="#F96B09" stroke="#F96B0A"/>
<circle cx="12.89" cy="7.89" r="6.89" fill="white" stroke="#F96B0A" stroke-width="2"/>
<path d="M10.328 11V5.72L10.672 6.096H9.064V5.4H11.12V11H10.328ZM12.2569 11V10.456L14.5369 8.256C14.7396 8.064 14.8889 7.896 14.9849 7.752C15.0863 7.60267 15.1529 7.46667 15.1849 7.344C15.2223 7.216 15.2409 7.09333 15.2409 6.976C15.2409 6.688 15.1396 6.46133 14.9369 6.296C14.7343 6.13067 14.4383 6.048 14.0489 6.048C13.7503 6.048 13.4809 6.09867 13.2409 6.2C13.0009 6.296 12.7929 6.448 12.6169 6.656L12.0729 6.184C12.2863 5.912 12.5716 5.704 12.9289 5.56C13.2916 5.41067 13.6889 5.336 14.1209 5.336C14.5103 5.336 14.8489 5.4 15.1369 5.528C15.4249 5.65067 15.6463 5.82933 15.8009 6.064C15.9609 6.29867 16.0409 6.576 16.0409 6.896C16.0409 7.07733 16.0169 7.256 15.9689 7.432C15.9209 7.608 15.8303 7.79467 15.6969 7.992C15.5636 8.18933 15.3716 8.41067 15.1209 8.656L13.0889 10.616L12.8969 10.304H16.2809V11H12.2569Z" fill="#F96B0A"/>
</svg>
