<svg width="268" height="165" viewBox="0 0 268 165" fill="none" xmlns="http://www.w3.org/2000/svg">
<ellipse rx="4.31013" ry="8.71044" transform="matrix(0.689469 -0.806097 -0.862648 -0.421022 140.245 118.107)" fill="#F96B0A"/>
<ellipse rx="4.32346" ry="8.73207" transform="matrix(0.639482 -0.835082 -0.882161 -0.392921 142.104 128.558)" fill="#F96B0A"/>
<ellipse rx="4.65941" ry="8.08274" transform="matrix(0.998241 -0.445172 -0.631088 -0.664018 133.79 133.964)" fill="#F96B0A"/>
<ellipse rx="4.65941" ry="8.08274" transform="matrix(0.998241 -0.445172 -0.631088 -0.664018 119.649 131.554)" fill="#F96B0A"/>
<path d="M130.325 125.798C134.627 122.714 130.728 107.254 124.059 106.248C116.586 105.119 117.177 109.546 113.603 112.99C109.703 116.747 102.357 115.042 104.996 122.796C105.963 125.636 126.023 128.882 130.325 125.798Z" fill="#F96B0A"/>
<ellipse rx="4.98847" ry="10.0813" transform="matrix(0.689469 -0.806097 -0.862648 -0.421022 226.386 112.965)" fill="#F96B0A"/>
<ellipse rx="5.00389" ry="10.1063" transform="matrix(0.639482 -0.835082 -0.882161 -0.392921 228.537 125.061)" fill="#F96B0A"/>
<ellipse rx="5.39272" ry="9.35482" transform="matrix(0.998241 -0.445171 -0.631088 -0.664018 218.915 131.318)" fill="#F96B0A"/>
<ellipse rx="5.39272" ry="9.35482" transform="matrix(0.998241 -0.445171 -0.631088 -0.664018 202.548 128.528)" fill="#F96B0A"/>
<path d="M214.904 121.867C219.883 118.297 215.371 100.404 207.652 99.239C199.003 97.9333 199.687 103.057 195.55 107.042C191.037 111.39 182.535 109.417 185.589 118.391C186.708 121.679 209.926 125.436 214.904 121.867Z" fill="#F96B0A"/>
<ellipse rx="3.84164" ry="7.76364" transform="matrix(0.689469 -0.806097 -0.862648 -0.421022 147.633 73.4511)" fill="#F96B0A"/>
<ellipse rx="3.85351" ry="7.78292" transform="matrix(0.639482 -0.835082 -0.882161 -0.392921 149.289 82.7665)" fill="#F96B0A"/>
<ellipse rx="4.15295" ry="7.20417" transform="matrix(0.998241 -0.445171 -0.631088 -0.664018 141.879 87.5846)" fill="#F96B0A"/>
<ellipse rx="4.15295" ry="7.20417" transform="matrix(0.998241 -0.445171 -0.631088 -0.664018 129.275 85.4362)" fill="#F96B0A"/>
<path d="M138.792 80.3064C142.626 77.5575 139.151 63.7782 133.207 62.8809C126.546 61.8753 127.073 65.8208 123.887 68.8901C120.411 72.2386 113.864 70.7193 116.216 77.6302C117.077 80.1622 134.957 83.0554 138.792 80.3064Z" fill="#F96B0A"/>
<ellipse rx="2.71726" ry="5.49136" transform="matrix(0.689469 -0.806097 -0.862648 -0.421022 82.5294 61.8985)" fill="#F96B0A"/>
<ellipse rx="2.72565" ry="5.50499" transform="matrix(0.639482 -0.835082 -0.882161 -0.392921 83.7012 68.4874)" fill="#F96B0A"/>
<ellipse rx="2.93783" ry="5.09509" transform="matrix(0.998243 -0.445168 -0.631092 -0.664015 78.4604 71.8956)" fill="#F96B0A"/>
<ellipse rx="2.93783" ry="5.09509" transform="matrix(0.998243 -0.445168 -0.631092 -0.664015 69.5453 70.3759)" fill="#F96B0A"/>
<path d="M76.2759 66.7474C78.9879 64.803 76.5299 55.0567 72.3255 54.422C67.6143 53.7107 67.9871 56.5014 65.7335 58.6724C63.275 61.0408 58.6438 59.9662 60.3075 64.8544C60.917 66.6454 73.5639 68.6917 76.2759 66.7474Z" fill="#F96B0A"/>
<ellipse rx="2.43617" ry="4.9233" transform="matrix(0.689469 -0.806097 -0.862648 -0.421022 94.7192 28.6365)" fill="#F96B0A"/>
<ellipse rx="2.4437" ry="4.93553" transform="matrix(0.639482 -0.835082 -0.882161 -0.392921 95.7698 34.5438)" fill="#F96B0A"/>
<ellipse rx="2.63392" ry="4.56803" transform="matrix(0.998243 -0.445168 -0.631092 -0.664015 91.0712 37.5994)" fill="#F96B0A"/>
<ellipse rx="2.63392" ry="4.56803" transform="matrix(0.998243 -0.445168 -0.631092 -0.664015 83.078 36.237)" fill="#F96B0A"/>
<path d="M89.112 32.9838C91.5435 31.2406 89.3398 22.5025 85.5703 21.9334C81.3464 21.2957 81.6807 23.7977 79.6603 25.7441C77.4561 27.8676 73.3039 26.9041 74.7955 31.2866C75.342 32.8923 86.6806 34.727 89.112 32.9838Z" fill="#F96B0A"/>
<ellipse rx="1.96767" ry="3.97651" transform="matrix(0.689469 -0.806097 -0.862648 -0.421022 47.5352 7.65663)" fill="white"/>
<ellipse rx="1.97376" ry="3.98639" transform="matrix(0.639482 -0.835082 -0.882161 -0.392921 48.3832 12.428)" fill="white"/>
<ellipse rx="2.1274" ry="3.68956" transform="matrix(0.998243 -0.445168 -0.631092 -0.664015 44.5882 14.8959)" fill="white"/>
<ellipse rx="2.1274" ry="3.68956" transform="matrix(0.998243 -0.445168 -0.631092 -0.664015 38.1326 13.7954)" fill="white"/>
<path d="M43.0063 11.1679C44.9702 9.75995 43.1902 2.70225 40.1456 2.24262C36.7341 1.72758 37.004 3.74842 35.3721 5.32053C33.5918 7.03561 30.2382 6.25744 31.4429 9.79717C31.8843 11.0941 41.0424 12.5759 43.0063 11.1679Z" fill="white"/>
</svg>
