<svg viewBox="0 0 1440 263" fill="none" xmlns="http://www.w3.org/2000/svg" preserveAspectRatio="none">
<path fill-rule="evenodd" clip-rule="evenodd" d="M133.75 0L0 0V131.347C35.4685 128.03 97.3005 127.118 163.301 127.302C131.859 93.581 130.671 37.9233 133.75 0ZM996.317 136.058C1290.27 138.099 1420.87 136.953 1440 131.347V0H1342.96C1355.09 96.7529 1198.55 127.183 996.317 136.058Z" fill="#F96B0A"/>
<ellipse rx="4.31013" ry="8.71044" transform="matrix(0.689469 -0.806097 -0.862648 -0.421022 140.245 216.107)" fill="#F96B0A"/>
<ellipse rx="4.32346" ry="8.73207" transform="matrix(0.639482 -0.835082 -0.882161 -0.392921 142.104 226.558)" fill="#F96B0A"/>
<ellipse rx="4.65941" ry="8.08274" transform="matrix(0.998241 -0.445172 -0.631088 -0.664018 133.79 231.964)" fill="#F96B0A"/>
<ellipse rx="4.65941" ry="8.08274" transform="matrix(0.998241 -0.445172 -0.631088 -0.664018 119.649 229.554)" fill="#F96B0A"/>
<path d="M130.325 223.798C134.627 220.714 130.728 205.254 124.059 204.248C116.586 203.119 117.177 207.546 113.603 210.99C109.703 214.746 102.357 213.042 104.996 220.796C105.963 223.636 126.023 226.882 130.325 223.798Z" fill="#F96B0A"/>
<ellipse rx="4.98847" ry="10.0813" transform="matrix(0.689469 -0.806097 -0.862648 -0.421022 226.386 210.965)" fill="#F96B0A"/>
<ellipse rx="5.00389" ry="10.1063" transform="matrix(0.639482 -0.835082 -0.882161 -0.392921 228.537 223.061)" fill="#F96B0A"/>
<ellipse rx="5.39272" ry="9.35482" transform="matrix(0.998241 -0.445171 -0.631088 -0.664018 218.915 229.318)" fill="#F96B0A"/>
<ellipse rx="5.39272" ry="9.35482" transform="matrix(0.998241 -0.445171 -0.631088 -0.664018 202.548 226.528)" fill="#F96B0A"/>
<path d="M214.904 219.867C219.883 216.297 215.371 198.404 207.652 197.239C199.003 195.933 199.687 201.057 195.55 205.042C191.037 209.39 182.535 207.417 185.589 216.391C186.708 219.679 209.926 223.436 214.904 219.867Z" fill="#F96B0A"/>
<ellipse rx="3.84164" ry="7.76364" transform="matrix(0.689469 -0.806097 -0.862648 -0.421022 147.633 171.451)" fill="#F96B0A"/>
<ellipse rx="3.85351" ry="7.78292" transform="matrix(0.639482 -0.835082 -0.882161 -0.392921 149.289 180.767)" fill="#F96B0A"/>
<ellipse rx="4.15295" ry="7.20417" transform="matrix(0.998241 -0.445171 -0.631088 -0.664018 141.879 185.585)" fill="#F96B0A"/>
<ellipse rx="4.15295" ry="7.20417" transform="matrix(0.998241 -0.445171 -0.631088 -0.664018 129.275 183.436)" fill="#F96B0A"/>
<path d="M138.792 178.306C142.626 175.558 139.151 161.778 133.207 160.881C126.546 159.875 127.073 163.821 123.887 166.89C120.411 170.239 113.864 168.719 116.216 175.63C117.077 178.162 134.957 181.055 138.792 178.306Z" fill="#F96B0A"/>
<ellipse rx="2.71726" ry="5.49136" transform="matrix(0.689469 -0.806097 -0.862648 -0.421022 82.5294 159.898)" fill="#F96B0A"/>
<ellipse rx="2.72565" ry="5.50499" transform="matrix(0.639482 -0.835082 -0.882161 -0.392921 83.7012 166.487)" fill="#F96B0A"/>
<ellipse rx="2.93783" ry="5.09509" transform="matrix(0.998243 -0.445168 -0.631092 -0.664015 78.4604 169.896)" fill="#F96B0A"/>
<ellipse rx="2.93783" ry="5.09509" transform="matrix(0.998243 -0.445168 -0.631092 -0.664015 69.5453 168.376)" fill="#F96B0A"/>
<path d="M76.2759 164.747C78.9879 162.803 76.5299 153.057 72.3255 152.422C67.6143 151.711 67.9871 154.501 65.7335 156.672C63.275 159.041 58.6438 157.966 60.3075 162.854C60.917 164.645 73.5639 166.692 76.2759 164.747Z" fill="#F96B0A"/>
<ellipse rx="2.43617" ry="4.9233" transform="matrix(0.689469 -0.806097 -0.862648 -0.421022 94.7192 126.637)" fill="#F96B0A"/>
<ellipse rx="2.4437" ry="4.93553" transform="matrix(0.639482 -0.835082 -0.882161 -0.392921 95.7698 132.544)" fill="#F96B0A"/>
<ellipse rx="2.63392" ry="4.56803" transform="matrix(0.998243 -0.445168 -0.631092 -0.664015 91.0712 135.599)" fill="#F96B0A"/>
<ellipse rx="2.63392" ry="4.56803" transform="matrix(0.998243 -0.445168 -0.631092 -0.664015 83.078 134.237)" fill="#F96B0A"/>
<path d="M89.112 130.984C91.5435 129.241 89.3398 120.502 85.5703 119.933C81.3464 119.296 81.6807 121.798 79.6602 123.744C77.4561 125.868 73.3039 124.904 74.7955 129.287C75.342 130.892 86.6806 132.727 89.112 130.984Z" fill="#F96B0A"/>
<ellipse rx="1.96767" ry="3.97651" transform="matrix(0.689469 -0.806097 -0.862648 -0.421022 47.5352 105.657)" fill="white"/>
<ellipse rx="1.97376" ry="3.98639" transform="matrix(0.639482 -0.835082 -0.882161 -0.392921 48.3832 110.428)" fill="white"/>
<ellipse rx="2.1274" ry="3.68956" transform="matrix(0.998243 -0.445168 -0.631092 -0.664015 44.5882 112.896)" fill="white"/>
<ellipse rx="2.1274" ry="3.68956" transform="matrix(0.998243 -0.445168 -0.631092 -0.664015 38.1326 111.795)" fill="white"/>
<path d="M43.0063 109.168C44.9702 107.76 43.1902 100.702 40.1456 100.243C36.7341 99.7276 37.004 101.748 35.3721 103.321C33.5919 105.036 30.2382 104.257 31.4429 107.797C31.8843 109.094 41.0424 110.576 43.0063 109.168Z" fill="white"/>
</svg>
