<svg width="50" height="50" viewBox="0 0 50 50" fill="none" xmlns="http://www.w3.org/2000/svg">
<circle cx="25" cy="25" r="24" fill="white"/>
<path d="M10.3354 6C14.391 2.8652 19.4778 1 25.0002 1C38.255 1 49.0002 11.7452 49.0002 25C49.0002 38.2548 38.255 49 25.0002 49C13.1082 49 3.23634 40.3509 1.33203 29" stroke="#F96B0A" stroke-width="2"/>
<g filter="url(#filter0_d_242_8248)">
<ellipse rx="3.62964" ry="5.96751" transform="matrix(-0.94782 -0.318805 -0.318805 0.94782 16.3428 18.9126)" fill="#F96B0A"/>
<ellipse rx="3.62964" ry="5.96751" transform="matrix(-0.960501 -0.278278 -0.278278 0.960501 25.6041 15.7418)" fill="#F96B0A"/>
<ellipse rx="3.62964" ry="5.96751" transform="matrix(-0.751727 -0.659474 -0.659474 0.751727 32.8468 19.9039)" fill="#F96B0A"/>
<ellipse rx="3.62964" ry="5.96751" transform="matrix(-0.751727 -0.659474 -0.659474 0.751727 34.3361 29.2125)" fill="#F96B0A"/>
<path d="M26.2928 23.0775C23.1281 20.8434 11.0468 26.6169 11.2128 31.269C11.3989 36.4819 14.9361 35.1786 18.2872 36.8542C21.943 38.6821 21.6382 43.9287 27.5959 40.5775C29.7788 39.3497 29.4575 25.3116 26.2928 23.0775Z" fill="#F96B0A"/>
</g>
<defs>
<filter id="filter0_d_242_8248" x="11.2109" y="9.92075" width="28.9146" height="32.7509" filterUnits="userSpaceOnUse" color-interpolation-filters="sRGB">
<feFlood flood-opacity="0" result="BackgroundImageFix"/>
<feColorMatrix in="SourceAlpha" type="matrix" values="0 0 0 0 0 0 0 0 0 0 0 0 0 0 0 0 0 0 127 0" result="hardAlpha"/>
<feOffset dx="1" dy="1"/>
<feComposite in2="hardAlpha" operator="out"/>
<feColorMatrix type="matrix" values="0 0 0 0 1 0 0 0 0 1 0 0 0 0 1 0 0 0 1 0"/>
<feBlend mode="normal" in2="BackgroundImageFix" result="effect1_dropShadow_242_8248"/>
<feBlend mode="normal" in="SourceGraphic" in2="effect1_dropShadow_242_8248" result="shape"/>
</filter>
</defs>
</svg>
