<svg width="391" height="155" viewBox="0 0 391 155" fill="none" xmlns="http://www.w3.org/2000/svg">
<path d="M120.788 97.8859C122.457 97.8812 123.811 99.2452 123.811 100.923C123.811 102.601 122.457 103.97 120.788 103.97C119.119 103.966 117.764 102.601 117.764 100.923C117.764 99.2452 119.119 97.8859 120.788 97.8859ZM114.952 86.8468C111.507 86.6874 108.197 87.564 105.483 89.1437C99.7223 92.4859 97.6317 96.0484 96.0848 101.406C94.8754 105.592 96.5254 109.872 99.577 112.412C101.236 113.748 103.927 114.386 105.98 113.973C107.002 113.772 107.85 113.341 108.427 112.698C109.008 112.066 109.383 111.203 109.383 109.867V96.3905C109.383 94.2812 111.197 94.4734 111.277 95.8609L112.05 109.867C112.05 111.756 111.436 113.369 110.4 114.512C109.365 115.656 107.968 116.312 106.505 116.612C103.575 117.194 100.285 116.416 97.9129 114.517C95.9489 112.942 94.2942 110.659 93.5348 107.969L88.3598 111.372C86.4145 112.426 86.2317 113.495 86.6958 115.497C88.9129 125.045 101.218 136.886 114.479 136.886C117.254 136.886 118.107 135.934 118.107 134.012V128.936C118.107 125.711 120.08 124.183 124.336 123.55L134.785 121.534C141.563 120.531 143.035 116.809 144.23 113.495C145.622 109.628 144.216 107.097 141.343 106.323C133.439 104.195 133.543 102.733 131.241 98.003C127.444 90.189 120.694 87.1234 114.952 86.8468Z" fill="black"/>
<path d="M123.892 154.128L136.563 152.844L141.972 151.137L154.638 145.442L164.603 135.908L166.455 133.344L172.005 123.523L173.003 120.819L173.43 117.969L174.283 115.691L174.855 112.559L175.567 102.594L174.855 92.7734L173.716 87.5047L172.577 84.5188L171.864 81.2422L169.3 76.5453L168.306 73.9813L166.455 71.5625L164.749 69.8563L162.897 67.2922L156.775 61.7422L149.514 57.186L130.867 51.35L124.178 51.2047L114.213 51.7766L111.363 52.3438L108.517 53.1969L105.953 54.336L100.544 55.761L93.2876 60.3172L91.2907 62.0235L86.7392 65.1547L82.8954 69.425L78.0532 76.5453L76.7735 78.9641L74.0688 86.7922L72.9298 92.9141L72.3579 109.428L73.9235 118.395L76.061 123.237L76.9142 126.228L78.3392 128.787L85.0282 137.9L89.0173 141.744L90.8642 143.877L100.544 149.005L103.249 150.139L115.352 153.702L123.892 154.128ZM119.908 129.073L117.058 128.075L114.494 127.794L109.656 125.23L105.245 121.386L103.82 119.394L101.969 117.402L99.2642 109.428L98.5517 102.312L98.697 98.0422L99.6907 92.7734L100.544 90.2094L102.255 88.2172L103.534 85.7984L105.386 83.5203L107.519 81.6688L111.649 78.8234L114.213 77.5391L117.199 76.8313L123.747 76.2594L130.581 76.6859L138.128 79.9625L142.539 83.2344L145.816 88.0766L146.955 90.6359L147.808 93.4859L148.802 96.0453L149.374 102.167L148.52 109.287L147.236 115.123L145.67 117.256L144.391 119.394L142.68 121.953L138.269 125.37L135.705 126.509L133.431 127.794L130.867 128.075L128.163 128.787L119.908 129.073Z" fill="#F96B09"/>
<path d="M238.838 52.2485C240.178 52.2485 241.261 53.336 241.261 54.6719C241.261 56.0125 240.178 57.0953 238.838 57.0953C237.497 57.0953 236.414 56.0125 236.414 54.6719C236.414 53.336 237.497 52.2485 238.838 52.2485ZM226.889 31.286C225.549 31.1922 224.166 32.0594 223.528 34.0844L221.011 42.1094C208.078 53.8563 216.516 62.6828 209.274 65.35L205.557 66.7141C203.56 67.45 203.447 68.7672 203.958 70.6704C206.874 81.5782 216.886 86.9501 229.66 86.9501C232.327 86.9501 233.152 86.0407 233.152 84.2032V79.7266C233.152 76.6329 233.752 74.3219 237.83 73.5672L247.538 72.0204C250.871 71.2797 252.98 67.6188 254.063 63.3907C255.15 59.1578 253.932 57.7328 251.035 56.2844C248.991 55.2625 246.835 52.8625 245.696 51.4938C245.424 50.9688 245.161 50.4157 244.917 49.8016C243.357 45.911 241.51 44.0406 238.753 43.0422C238.753 43.0422 238.308 39.0531 238.083 37.061C237.666 33.325 233.803 32.8891 232.289 36.6719L231.235 39.3203L229.992 34.3188C229.524 32.4578 228.23 31.3891 226.889 31.286Z" fill="black"/>
<path d="M1.01934 121.617L2.01777 125.315L4.72246 126.74L7.56777 127.026L13.5443 126.6L19.099 126.881L24.5084 126.6L27.2131 127.026L30.3443 126.74L58.5303 126.881L61.235 125.461L62.8006 121.045L62.66 109.514L61.3756 105.243L58.8162 103.537L55.8256 103.823L53.1209 104.39L50.1303 103.964L44.2943 104.104L41.449 103.537L38.885 103.964L33.335 103.678L30.3443 103.964L27.499 102.825L26.36 99.9794L26.5006 51.7216L26.2146 48.3044L26.5006 42.6091L26.074 34.495L26.2146 31.7903L24.7943 28.6591L21.9443 26.9528H16.3943L13.5443 27.52L7.85371 26.9528L5.14902 27.3794L2.1584 28.5184L0.878712 31.6497V51.5763L0.592773 54.2809L0.878712 57.1309L0.452148 62.395L0.592773 65.5263L0.878712 68.2309L1.01934 121.617Z" fill="#F96B09"/>
<path d="M238.067 103.143L250.737 101.858L256.146 100.152L268.812 94.4569L278.778 84.9226L280.629 82.3585L286.179 72.5382L287.178 69.8335L287.604 66.9835L288.457 64.7054L289.029 61.5741L289.742 51.6085L289.029 41.7882L287.89 36.5195L286.751 33.5335L286.038 30.257L283.474 25.5601L282.481 22.996L280.629 20.5773L278.923 18.871L277.071 16.307L270.949 10.757L263.688 6.20073L245.042 0.364795L238.353 0.219482L228.387 0.791357L225.537 1.35854L222.692 2.21167L220.128 3.35073L214.718 4.77573L207.462 9.33198L205.465 11.0382L200.913 14.1695L197.07 18.4398L192.228 25.5601L190.948 27.9788L188.243 35.807L187.104 41.9288L186.532 58.4429L188.098 67.4101L190.235 72.2523L191.088 75.2429L192.513 77.8023L199.203 86.9147L203.192 90.7585L205.038 92.8913L214.718 98.0194L217.423 99.1538L229.526 102.716L238.067 103.143ZM234.082 78.0882L231.232 77.0898L228.668 76.8085L223.831 74.2444L219.42 70.4007L217.995 68.4085L216.143 66.4163L213.438 58.4429L212.726 51.3273L212.871 47.057L213.865 41.7882L214.718 39.2241L216.429 37.232L217.709 34.8132L219.56 32.5351L221.693 30.6835L225.823 27.8382L228.387 26.5538L231.373 25.846L237.921 25.2742L244.756 25.7007L252.303 28.9773L256.713 32.2492L259.99 37.0913L261.129 39.6507L261.982 42.5007L262.976 45.0601L263.548 51.182L262.695 58.3023L261.41 64.1382L259.845 66.271L258.565 68.4085L256.854 70.9679L252.443 74.3851L249.879 75.5241L247.606 76.8085L245.042 77.0898L242.337 77.8023L234.082 78.0882Z" fill="#F96B09"/>
<path d="M309.947 127.151L318.774 126.724L322.763 127.01L327.314 126.583L330.164 125.444L331.73 122.313L331.444 110.922L331.871 107.932L331.444 92.9881L333.01 90.5647L336.567 88.999L340.411 89.285L343.688 91.7037L345.108 93.9818L346.106 96.9725L351.942 106.512L352.941 108.93L354.221 110.922L356.925 116.191L358.631 118.324L360.056 121.029L361.481 122.88L364.186 125.585L367.458 127.01L381.839 126.865L384.399 126.583L387.249 126.724L390.235 126.012L390.947 122.88L382.121 106.793L380.269 104.515L375.858 97.2584L374.292 95.2662L372.727 92.5615L371.588 90.1381L366.891 82.5959L366.319 79.3193L368.171 76.3334L372.586 72.6303L377.138 66.7943L379.275 63.0912L380.269 60.5318L382.692 52.2725L383.686 43.1646L383.405 40.3146L383.831 31.4881L382.547 28.6428L379.416 27.3631L375.146 26.9365L370.449 27.5037L366.178 26.9365L361.908 27.0771L358.917 28.7834L357.778 31.4881V34.6193L357.352 37.324L357.492 40.174L356.358 49.4271L355.5 51.56L354.647 54.5506L351.375 59.1068L346.392 62.6646L343.828 63.8037L340.697 64.2303L337.852 65.0834H334.716L332.297 63.3771L331.585 60.3865L331.73 57.6818L331.585 47.435L331.303 44.8709L331.585 41.4537L331.444 37.0428L331.73 31.2068L329.878 28.9287L325.749 27.6443L318.633 26.9365L315.928 27.0771L313.078 26.7912L309.947 26.9365L307.102 28.7834L305.822 31.4881L305.536 33.9115L305.822 51.2787L305.396 54.124L305.822 56.9693L305.536 74.4818L305.963 76.9006L305.396 82.7365L305.822 85.8678L305.677 91.4225L305.963 93.9818L305.536 99.8178L305.822 105.654L305.677 107.932L305.963 110.922L305.677 113.768L305.963 121.029L307.388 125.444L309.947 127.151Z" fill="#F96B09"/>
<path d="M80.0314 57.3214L80.7814 57.6214L81.658 57.373L83.7346 55.7511L85.0705 54.4151L85.4549 53.6464L85.0658 52.4933L84.1986 51.6495L83.7908 51.0542L81.1799 48.0448L80.9502 47.2527L81.3018 46.5073L81.883 45.912L82.5814 45.5136L83.0596 44.9136L83.683 44.4823L84.2596 43.9386L84.8783 43.5073L86.008 42.4527L86.3643 41.6511L85.8955 40.5214L83.6971 37.9948L82.9189 37.6667L82.1221 37.948L80.6689 39.087L79.2486 40.4933L78.0111 41.3042L77.4064 41.8667L76.6377 42.1245L75.808 41.7917L75.1236 40.9902L74.7205 40.3995L73.5627 39.1573L73.3658 38.3417L73.5908 37.5027L74.5096 36.7245L75.3861 36.073L75.8783 35.6042L76.4783 35.1448L77.0314 34.5777L79.258 32.7823L79.5861 32.0042L79.3846 31.1886L78.0814 29.7777L77.2143 28.6386L76.1361 28.0714L75.3814 28.1698L73.6893 29.6652L72.9814 30.1152L71.9127 31.123L71.3502 31.5027L70.5393 32.2948L69.9439 32.7542L69.1002 33.5652L67.9846 34.5167L67.4221 34.9011L65.9596 36.1433L65.4064 36.7105L64.5814 37.3667L64.2158 38.2198L64.483 38.8808L65.3971 40.1277L66.2174 40.9152L68.833 44.2198L69.3064 44.6605L69.8455 45.237L70.2299 45.8042L70.8439 46.4136L71.2283 46.9761L71.6643 47.548L72.1846 48.0401L72.6861 48.748L80.0314 57.3214Z" fill="#F96B09"/>
<path d="M104.148 43.7771L107.209 42.3755L108.414 41.4849L111.095 38.977L112.773 35.7427L113.017 34.9411L113.57 32.0114L113.584 31.2474L113.448 30.4974L113.467 29.8552L113.345 29.0255L112.67 26.4708L111.653 24.0755L110.917 22.8567L110.378 22.2052L109.919 21.4458L108.878 20.4895L108.409 19.9364L107.739 19.4864L107.167 19.2052L106.483 18.7224L104.476 17.8599L102.273 17.3395L97.1076 17.4708L95.4248 18.0099L92.9779 19.0036L92.317 19.388L91.6795 19.8427L91.1357 20.3489L89.9029 21.1692L88.4732 22.927L88.1217 23.5224L87.2498 24.6989L86.6545 26.0958L86.0545 28.2895L85.9373 29.002L85.9326 31.1911L86.167 32.8224L87.4373 36.9989L88.5951 39.1083L89.542 40.1395L90.0107 40.8145L90.5873 41.3302L93.0389 43.0411L94.3654 43.6599L95.0123 44.0349L97.8717 44.4895L98.6451 44.5458L101.973 44.4005L104.148 43.7771ZM101.008 37.852L100.211 37.8474L99.5451 37.9927L98.1154 37.7677L96.6857 37.1817L96.1607 36.802L95.5279 36.4645L94.1686 34.702L93.3811 32.9817L93.0529 31.8989L92.8514 30.4974L92.8467 29.7849L93.1045 29.138L93.217 28.4255L93.4842 27.6989L93.8592 27.052L94.6514 25.988L95.1811 25.4489L95.8701 25.013L97.4592 24.3099L99.2029 23.8364L101.369 24.0099L102.756 24.4505L103.989 25.3833L104.49 25.927L104.95 26.5645L105.414 27.1224L106.079 28.6036L106.478 30.4552L106.656 32.0255L106.445 32.6958L106.309 33.338L106.098 34.1255L105.287 35.3583L104.744 35.8599L104.284 36.3755L103.665 36.6661L103.051 37.0739L101.008 37.852Z" fill="#F96B09"/>
<path d="M126.056 41.1087L127.19 41.0946L127.898 41.1931L130.889 40.7009L132.3 40.1056L133.608 39.3884L134.751 38.4321L135.726 37.1946L136.017 36.4634L136.448 35.8587L136.922 34.3165L137.269 32.5306L138.155 22.4103L138.14 21.6931L138.29 20.8728L138.267 20.2681L138.539 17.1556L138.717 16.415L138.3 15.5853L137.498 15.2525L135.126 15.1212L133.565 14.8681L132.745 15.1775L132.258 15.965L131.044 30.7399L130.575 33.0415L130.303 33.5853L129.825 34.2978L129.15 34.6915L127.795 35.0665L125.545 34.8696L124.697 34.6071L124.092 34.1759L123.534 33.6743L123.136 33.0321L122.972 32.3009L122.939 30.1071L124.106 18.0462L124.083 17.479L124.261 16.2837L124.279 15.1915L123.904 14.329L123.145 13.9212L122.433 13.8603L121.673 13.9071L120.075 13.6165L119.278 13.6587L118.467 13.8884L117.914 14.5587L117.923 15.3134L117.848 16.2134L117.717 16.8087L117.37 22.0634L117.192 22.804L117.206 23.5259L116.564 29.5493L116.526 32.5681L116.77 34.1384L117.258 35.4649L118.003 36.8899L118.406 37.4524L118.926 37.9915L120.056 38.8821L120.773 39.2853L121.308 39.6743L122.676 40.4337L124.111 40.8603L124.861 40.9259L126.056 41.1087Z" fill="#F96B09"/>
<path d="M137.638 40.3171L137.441 41.5264L138.187 42.4592L138.909 42.703L139.93 43.3499L140.502 43.5608L141.505 44.0717L142.748 44.2874L143.549 43.4717L144.13 42.3327L144.505 41.7655L144.768 41.0108L145.93 38.9014L146.577 38.3858L147.402 38.3436L149.207 39.6046L149.587 40.5186L149.643 41.3952L149.601 42.1358L149.788 43.4999L149.807 45.0327L149.92 45.7217L149.845 46.528L149.92 47.2874L150.351 48.2671L151.33 49.153L153.993 50.4749L154.598 50.8686L155.718 51.403L156.51 51.4264L157.087 50.7936L157.096 49.8655L156.937 49.1905L156.993 48.4171L156.73 46.1296L156.74 45.3702L156.562 43.078L156.416 42.3702L156.796 41.5499L157.471 40.9686L158.198 40.7061L158.873 40.5467L161.38 38.8686L162.81 37.153L163.827 35.0061L164.071 34.2842L164.446 32.0671L164.47 31.3592L164.376 30.6374L163.495 27.6514L162.651 26.4139L161.601 25.3264L159.913 23.9108L158.859 23.3296L157.855 22.8983L155.845 21.8671L155.245 21.3889L154.574 21.0467L153.885 20.9061L153.215 20.5639L152.615 20.0858L151.898 19.6733L149.835 18.8296L149.062 18.853L148.176 19.5889L144.28 27.2717L144.004 27.9749L143.216 29.2639L142.874 30.0186L142.532 30.6889L142.27 31.3592L141.876 31.9592L140.455 34.6546L140.179 35.3577L137.638 40.3171ZM150.149 32.9858L149.666 32.2733L149.676 31.5983L150.702 29.5921L150.927 28.9874L151.715 27.6139L152.343 27.1358L153.182 27.2249L153.838 27.6046L155.245 28.1577L156.079 28.8374L156.913 29.3483L157.466 29.8452L157.771 31.3124L157.696 31.9499L157.387 32.8874L156.768 33.8436L156.126 34.3592L155.498 34.6733L154.977 34.7858L154.237 34.7436L153.145 34.4811L152.493 34.1858L150.918 33.2952L150.149 32.9858Z" fill="#F96B09"/>
<path d="M188.269 120.814L189.806 121.836L190.331 122.262L191.076 122.712L191.897 122.933L192.633 122.487L193.045 121.859L193.561 121.208L194.316 120.036L194.794 119.502L195.272 118.78L195.942 118.428L196.889 118.602L197.601 119.028L198.155 119.614L201.469 121.639L205.205 122.581L205.926 122.544L206.705 122.366L207.389 122.258L208.116 122.089L209.461 121.573L210.844 120.762L211.42 120.158L211.955 119.802L213.825 117.345L214.078 116.741L214.472 116.005L214.922 114.612L215.095 113.155L215.091 111.622L214.58 109.437L214.059 108.041L213.108 106.794L212.742 106.203L212.133 105.762L211.678 105.106L210.787 104.412L209.789 103.737L209.053 103.344L207.216 101.966L206.672 101.436L204.694 100.189L204.047 99.6734L203.564 99.1812L202.833 98.8437L201.951 98.7125L201.323 99.0031L198.684 102.711L197.681 103.845L197.32 104.469L191.573 112.339L191.217 112.962L187.101 118.578L187.017 119.398L187.744 120.387L188.269 120.814ZM200.391 113.703L200.044 112.897L200.147 112.18L201.839 109.644L202.364 109.048L203.269 107.797L203.995 107.441L204.853 107.6L207.961 109.986L208.369 110.703L208.612 111.392L208.725 112.072L208.589 112.902L208.28 113.52L207.726 114.416L207.066 115.194L206.456 115.587L205.828 115.878L205.078 116.08L204.328 116.089L203.728 115.892L202.697 115.33L201.164 114.172L200.391 113.703Z" fill="#F96B09"/>
<path d="M230.708 140.168L232.123 140.402L232.803 140.641L233.942 140.885L235.011 140.951L235.334 140.102L235.287 139.198L235.067 137.712L234.547 135.569L234.369 134.093L233.961 132.598L233.384 128.932L233.155 128.294L232.958 127.512L232.939 126.654L232.742 126.021L232.667 125.383L232.231 123.846L232.166 123.016L230.998 117.344L230.956 116.557L230.717 115.802L230.656 115.09L230.277 113.641L229.817 112.83L228.702 112.169L227.431 112.287L226.625 112.746L226.142 113.285L225.706 113.955L225.252 114.387L222.964 117.387L222.43 117.837L222.069 118.526L221.497 119.121L221.112 119.726L215.469 126.63L215.052 127.38L214.555 127.84L214.119 128.51L213.172 129.518L212.267 130.844L211.737 131.257L211.395 131.871L210.308 133.151L209.909 133.83L209.867 134.787L210.542 135.185L211.986 135.462L212.698 135.715L214.766 136.146L215.67 136.094L216.523 135.607L217.475 134.562L218.342 134.037L219.209 133.826L219.875 134.102L221.445 134.332L222.078 134.604L225.669 135.448L226.306 135.682L227.141 135.766L227.844 136.366L228.397 137.121L228.552 137.899L228.612 138.607L229.208 139.338L229.958 139.91L230.708 140.168ZM224.642 129.035L223.948 128.712L223.091 128.576L222.566 128.177L222.702 127.474L225.387 123.949L225.87 123.719L226.311 124.137L227.042 128.576L226.733 129.199L226.114 129.358L224.642 129.035Z" fill="#F96B09"/>
<path d="M251.29 139.454L252.026 139.979L252.945 140.27L254.327 139.909L255.068 139.426L255.476 138.521L255.659 137.823L255.691 136.965L255.907 136.22L255.945 135.554L256.095 134.706L256.141 134.078L256.648 131.101L256.685 130.281L257.023 128.734L257.168 127.192L257.557 127.22L258.068 127.754L258.471 128.476L259.38 129.578L262.784 134.734L263.613 135.817L263.998 136.459L264.874 137.068L265.816 137.312L266.505 137.115L267.101 136.857L267.916 136.361L268.31 135.573L268.366 134.828L268.545 134.092L269.262 127.201L269.445 126.503L269.932 123.104L269.984 122.012L270.162 121.271V120.615L271.057 113.842V112.993L271.268 112.248L271.446 109.848L271.02 109.018L270.246 109.009L269.487 109.07L268.221 109.44L266.735 109.707L265.985 109.961L265.263 110.012L264.579 110.556L264.134 111.47L264.115 112.211L263.927 112.909L263.412 119.832L263.435 120.596L263.318 122.246L263.421 123.845L263.36 124.595L262.985 124.642L261.766 122.725L261.415 122.036L258.874 118.257L258.185 116.95L257.73 116.321L256.948 114.957L256.512 114.404L256.062 113.814L255.377 113.2L254.505 112.937L253.699 113.125L253.052 113.664L252.602 114.54L252.237 118.45L251.993 119.898L251.66 124.454L251.426 125.092L251.454 125.893L251.229 127.417L250.948 127.52L250.596 126.676L246.391 119.232L245.951 118.675L245.177 117.348L244.863 116.65L244.399 115.984L243.602 115.553L242.829 115.384L239.89 116.031L239.196 116.036L238.563 116.298L237.799 116.514L237.082 116.917L237.129 117.793L237.546 118.74L240.054 122.561L240.532 123.104L242.988 126.859L243.396 127.614L245.06 130.126L245.529 130.637L250.432 138.264L250.924 138.882L251.29 139.454Z" fill="#F96B09"/>
<path d="M290.774 124.21L293.146 122.414L293.685 121.885L294.158 121.271L294.674 120.713L295.077 120.01L295.56 119.527L295.907 118.814L296.947 116.016L297.097 114.45L297.06 113.803L296.868 112.899L296.624 112.228L296.399 111.591L295.405 109.978L294.594 109.083L292.794 107.728L292.096 107.513L290.629 107.241L289.719 107.194L289.063 107.335L288.275 107.433L285.416 108.553L284.76 108.933L284.146 109.374L283.433 109.749L282.58 110.428L280.766 111.347L279.252 111.689L278.483 111.628L277.663 110.836L277.175 109.927L277.222 109.261L277.405 108.586L277.668 107.949L278.104 107.405L279.022 106.627L280.058 105.994L280.705 105.718L281.516 105.652L282.341 105.661L283.255 105.9L284.207 105.764L285.496 104.546L286.335 103.974L286.925 103.505L287.502 103.139L287.732 102.282L287.568 101.593L287.005 101.128L286.499 100.618L284.455 99.7456L283.105 99.3753L280.086 99.5722L277.991 100.327L276.655 101.007L274.344 102.75L273.838 103.444L273.271 103.941L272.811 104.452L271.977 105.699L271.447 107.082L270.805 109.182L270.88 111.385L271.64 113.424L272.699 114.938L273.458 115.824L274.602 116.841L275.891 117.493L278.061 117.98L280.93 117.474L282.271 116.982L287.31 113.827L288.768 113.485L289.433 113.532L290.197 114.127L290.549 115.05L290.516 115.796L289.869 117.038L289.002 117.821L288.543 118.332L286.925 119.382L286.213 119.518L285.458 119.593L283.64 119.307L282.866 119.541L282.383 120.019L281.75 120.375L279.58 122.302L279.238 122.958L279.496 123.764L280.054 124.285L280.64 124.777L281.24 125.166L282.665 125.808L283.382 125.864L284.118 126L285.665 125.827L286.429 125.939L287.197 125.757L287.924 125.466L289.4 124.964L290.774 124.21Z" fill="#F96B09"/>
</svg>
