<svg width="197" height="190" viewBox="0 0 197 190" fill="none" xmlns="http://www.w3.org/2000/svg">
<ellipse cx="155.745" cy="142.499" rx="5.56544" ry="9.15018" transform="rotate(146.281 155.745 142.499)" fill="#F96B0A"/>
<ellipse cx="170.722" cy="143.486" rx="5.56544" ry="9.15018" transform="rotate(148.715 170.722 143.486)" fill="#F96B0A"/>
<ellipse cx="179.777" cy="134.428" rx="5.56544" ry="9.15018" transform="rotate(123.612 179.777 134.428)" fill="#F96B0A"/>
<ellipse cx="178.257" cy="120.053" rx="5.56544" ry="9.15018" transform="rotate(123.612 178.257 120.053)" fill="#F96B0A"/>
<path d="M168.807 132.353C165.016 136.926 144.823 133.214 143.207 126.262C141.397 118.472 147.154 118.985 151.444 115.164C156.124 110.995 153.573 103.351 163.733 105.928C167.455 106.872 172.597 127.779 168.807 132.353Z" fill="#F96B0A"/>
<ellipse cx="89.5879" cy="154.096" rx="4.9605" ry="8.15558" transform="rotate(146.281 89.5879 154.096)" fill="#F96B0A"/>
<ellipse cx="102.937" cy="154.976" rx="4.9605" ry="8.15558" transform="rotate(148.715 102.937 154.976)" fill="#F96B0A"/>
<ellipse cx="111.008" cy="146.901" rx="4.9605" ry="8.15558" transform="rotate(123.612 111.008 146.901)" fill="#F96B0A"/>
<ellipse cx="109.653" cy="134.089" rx="4.9605" ry="8.15558" transform="rotate(123.612 109.653 134.089)" fill="#F96B0A"/>
<path d="M101.23 145.052C97.8515 149.128 79.8534 145.82 78.4132 139.623C76.7994 132.68 81.9309 133.137 85.7544 129.732C89.9255 126.016 87.6521 119.203 96.7075 121.499C100.025 122.341 104.608 140.976 101.23 145.052Z" fill="#F96B0A"/>
<ellipse cx="81.9253" cy="87.9569" rx="3.50864" ry="5.76858" transform="rotate(146.281 81.9253 87.9569)" fill="#F96B0A"/>
<ellipse cx="91.3672" cy="88.5793" rx="3.50864" ry="5.76858" transform="rotate(148.715 91.3672 88.5793)" fill="#F96B0A"/>
<ellipse cx="97.0759" cy="82.8683" rx="3.50864" ry="5.76858" transform="rotate(123.612 97.0759 82.8683)" fill="#F96B0A"/>
<ellipse cx="96.1174" cy="73.8062" rx="3.50864" ry="5.76858" transform="rotate(123.612 96.1174 73.8062)" fill="#F96B0A"/>
<path d="M90.1594 81.5602C87.7699 84.4433 75.0395 82.1035 74.0208 77.7204C72.8794 72.8091 76.509 73.1328 79.2134 70.7239C82.1637 68.0959 80.5557 63.2768 86.9607 64.901C89.3074 65.4961 92.549 78.6771 90.1594 81.5602Z" fill="#F96B0A"/>
<ellipse cx="31.7049" cy="103.493" rx="3.14569" ry="5.17185" transform="rotate(146.281 31.7049 103.493)" fill="#F96B0A"/>
<ellipse cx="40.1709" cy="104.052" rx="3.14569" ry="5.17185" transform="rotate(148.715 40.1709 104.052)" fill="#F96B0A"/>
<ellipse cx="45.2884" cy="98.9313" rx="3.14569" ry="5.17185" transform="rotate(123.612 45.2884 98.9313)" fill="#F96B0A"/>
<ellipse cx="44.4295" cy="90.8066" rx="3.14569" ry="5.17185" transform="rotate(123.612 44.4295 90.8066)" fill="#F96B0A"/>
<path d="M39.0876 97.7585C36.9453 100.343 25.5318 98.2456 24.6185 94.3159C23.5951 89.9126 26.8492 90.2028 29.2739 88.0431C31.919 85.687 30.4773 81.3664 36.2198 82.8226C38.3237 83.3561 41.23 95.1736 39.0876 97.7585Z" fill="#F96B0A"/>
<ellipse cx="7.76801" cy="56.6812" rx="2.54075" ry="4.17726" transform="rotate(146.281 7.76801 56.6812)" fill="#F96B0A"/>
<ellipse cx="14.6057" cy="57.1318" rx="2.54075" ry="4.17726" transform="rotate(148.715 14.6057 57.1318)" fill="#F96B0A"/>
<ellipse cx="18.7392" cy="52.9963" rx="2.54075" ry="4.17726" transform="rotate(123.612 18.7392 52.9963)" fill="#F96B0A"/>
<ellipse cx="18.0453" cy="46.434" rx="2.54075" ry="4.17726" transform="rotate(123.612 18.0453 46.434)" fill="#F96B0A"/>
<path d="M13.7311 52.049C12.0008 54.1368 2.78218 52.4424 2.04452 49.2685C1.21795 45.712 3.84628 45.9464 5.80465 44.202C7.9411 42.299 6.77666 38.8093 11.4148 39.9854C13.1141 40.4164 15.4615 49.9612 13.7311 52.049Z" fill="#F96B0A"/>
</svg>
