<svg width="259" height="176" viewBox="0 0 259 176" fill="none" xmlns="http://www.w3.org/2000/svg">
<ellipse rx="4.08698" ry="8.90851" transform="matrix(-0.671288 -0.741197 0.86908 -0.494671 119.19 122.014)" fill="#F96B0A"/>
<ellipse rx="4.03968" ry="8.96663" transform="matrix(-0.629046 -0.777368 0.884025 -0.46744 117.331 132.896)" fill="#F96B0A"/>
<ellipse rx="4.69014" ry="8.06543" transform="matrix(-0.926732 -0.375724 0.670224 -0.742159 125.646 138.525)" fill="#F96B0A"/>
<ellipse rx="4.69014" ry="8.06543" transform="matrix(-0.926732 -0.375724 0.670224 -0.742159 139.787 136.015)" fill="#F96B0A"/>
<path d="M128.329 130.421C124.085 128.142 128.917 113.236 135.809 111.388C143.532 109.317 142.686 113.513 146.165 116.226C149.961 119.186 157.584 116.596 154.46 124.166C153.315 126.939 132.572 132.7 128.329 130.421Z" fill="#F96B0A"/>
<ellipse rx="4.73019" ry="10.3105" transform="matrix(-0.671288 -0.741197 0.86908 -0.494671 33.0495 116.66)" fill="#F96B0A"/>
<ellipse rx="4.67545" ry="10.3778" transform="matrix(-0.629046 -0.777368 0.884025 -0.46744 30.8987 129.255)" fill="#F96B0A"/>
<ellipse rx="5.42829" ry="9.33478" transform="matrix(-0.926732 -0.375724 0.670224 -0.742159 40.5207 135.769)" fill="#F96B0A"/>
<ellipse rx="5.42829" ry="9.33478" transform="matrix(-0.926732 -0.375724 0.670224 -0.742159 56.8874 132.864)" fill="#F96B0A"/>
<path d="M43.626 126.39C38.7141 123.752 44.3072 106.5 52.2839 104.361C61.222 101.965 60.2435 106.821 64.2699 109.961C68.6625 113.386 77.4861 110.39 73.8699 119.15C72.545 122.36 48.5378 129.028 43.626 126.39Z" fill="#F96B0A"/>
<ellipse rx="3.64274" ry="7.94018" transform="matrix(-0.671288 -0.741197 0.86908 -0.494671 111.803 75.5177)" fill="#F96B0A"/>
<ellipse rx="3.60058" ry="7.99199" transform="matrix(-0.629046 -0.777368 0.884025 -0.46744 110.146 85.2171)" fill="#F96B0A"/>
<ellipse rx="4.18034" ry="7.18874" transform="matrix(-0.926732 -0.375724 0.670224 -0.742159 117.556 90.2338)" fill="#F96B0A"/>
<ellipse rx="4.18034" ry="7.18874" transform="matrix(-0.926732 -0.375724 0.670224 -0.742159 130.16 87.9968)" fill="#F96B0A"/>
<path d="M119.947 83.0106C116.165 80.9792 120.472 67.6935 126.615 66.0464C133.498 64.2008 132.744 67.941 135.845 70.3589C139.228 72.9967 146.023 70.689 143.238 77.4356C142.218 79.9075 123.73 85.042 119.947 83.0106Z" fill="#F96B0A"/>
<ellipse rx="2.57657" ry="5.61623" transform="matrix(-0.671288 -0.741197 0.86908 -0.494671 176.906 63.489)" fill="#F96B0A"/>
<ellipse rx="2.54675" ry="5.65287" transform="matrix(-0.629046 -0.777368 0.884025 -0.46744 175.734 70.3495)" fill="#F96B0A"/>
<ellipse rx="2.95683" ry="5.08472" transform="matrix(-0.926732 -0.375724 0.670224 -0.742159 180.975 73.8979)" fill="#F96B0A"/>
<ellipse rx="2.95683" ry="5.08472" transform="matrix(-0.926732 -0.375724 0.670224 -0.742159 189.89 72.3156)" fill="#F96B0A"/>
<path d="M182.667 68.7888C179.991 67.352 183.038 57.9547 187.383 56.7898C192.251 55.4843 191.718 58.1298 193.912 59.84C196.304 61.7058 201.111 60.0735 199.141 64.8455C198.419 66.5939 185.342 70.2256 182.667 68.7888Z" fill="#F96B0A"/>
<ellipse rx="2.31003" ry="5.03525" transform="matrix(-0.671288 -0.741197 0.86908 -0.494671 164.716 28.8561)" fill="#F96B0A"/>
<ellipse rx="2.2833" ry="5.06811" transform="matrix(-0.629046 -0.777368 0.884025 -0.46744 163.666 35.0069)" fill="#F96B0A"/>
<ellipse rx="2.65096" ry="4.55873" transform="matrix(-0.926732 -0.375724 0.670224 -0.742159 168.365 38.1882)" fill="#F96B0A"/>
<ellipse rx="2.65096" ry="4.55873" transform="matrix(-0.926732 -0.375724 0.670224 -0.742159 176.358 36.7696)" fill="#F96B0A"/>
<path d="M169.882 33.6076C167.483 32.3194 170.214 23.8943 174.11 22.8498C178.475 21.6795 177.997 24.0513 179.963 25.5846C182.108 27.2573 186.417 25.7939 184.652 30.0723C184.004 31.6398 172.28 34.8958 169.882 33.6076Z" fill="#F96B0A"/>
<ellipse rx="1.8658" ry="4.06693" transform="matrix(-0.671288 -0.741197 0.86908 -0.494671 211.9 7.01145)" fill="white"/>
<ellipse rx="1.8442" ry="4.09347" transform="matrix(-0.629046 -0.777368 0.884025 -0.46744 211.052 11.9794)" fill="white"/>
<ellipse rx="2.14116" ry="3.68205" transform="matrix(-0.926732 -0.375724 0.670224 -0.742159 214.847 14.5489)" fill="white"/>
<ellipse rx="2.14116" ry="3.68205" transform="matrix(-0.926732 -0.375724 0.670224 -0.742159 221.303 13.4031)" fill="white"/>
<path d="M216.072 10.8493C214.135 9.80884 216.341 3.00394 219.488 2.16032C223.013 1.21501 222.627 3.1307 224.215 4.36916C225.948 5.72024 229.428 4.53822 228.002 7.99381C227.479 9.25989 218.01 11.8898 216.072 10.8493Z" fill="white"/>
</svg>
